<svg xmlns="http://www.w3.org/2000/svg" width="105.44mm" height="35.61mm" viewBox="0 0 298.88 100.95"><g style="opacity:0.8"><circle cx="214.68" cy="51.28" r="34.98" transform="matrix(0.94, -0.33, 0.33, 0.94, -4.87, 73.95)" style="fill:none;stroke:#fec905;stroke-miterlimit:10;stroke-dasharray:1.9972946643829346,1.9972946643829346"/></g><g style="opacity:0.8"><circle cx="249.65" cy="51.28" r="34.98" transform="translate(74.78 236.69) rotate(-58.28)" style="fill:none;stroke:#fec905;stroke-miterlimit:10;stroke-dasharray:1.9972946643829346,1.9972946643829346"/></g><line x1="120.15" y1="51.28" x2="162.49" y2="51.28" style="fill:none;stroke:#139c5a;stroke-miterlimit:10"/><polygon points="161.03 56.27 169.67 51.28 161.03 46.3 161.03 56.27" style="fill:#139c5a"/><circle cx="45.9" cy="51.28" r="34.98" style="fill:#e21c84;stroke:#fff;stroke-miterlimit:10;opacity:0.4"/><circle cx="80.88" cy="51.28" r="34.98" style="fill:#0f9c5a;stroke:#fff;stroke-miterlimit:10;opacity:0.6"/><g style="opacity:0.8"><path d="M214.68,51.28A35,35,0,0,1,232.16,21a35,35,0,1,0,0,60.57A35,35,0,0,1,214.68,51.28Z" style="fill:#fec905"/><path d="M249.65,16.31A34.81,34.81,0,0,0,232.16,21a35,35,0,0,1,0,60.57,35,35,0,1,0,17.49-65.26Z" style="fill:#fec905"/></g></svg>