<svg xmlns="http://www.w3.org/2000/svg" width="107.81mm" height="51.72mm" viewBox="0 0 305.59 146.59"><path d="M209,116.05h1.36a.81.81,0,0,0,.41.52,1.67,1.67,0,0,0,.81.19H212a1.55,1.55,0,0,0,.92-.24.77.77,0,0,0,.33-.66c0-.48-.36-.77-1.06-.87l-1-.13a2.78,2.78,0,0,1-1.58-.62,1.94,1.94,0,0,1,.13-2.75,2.89,2.89,0,0,1,1.83-.5h.42a2.85,2.85,0,0,1,1.7.46,1.79,1.79,0,0,1,.78,1.25h-1.36a.72.72,0,0,0-.37-.47,1.44,1.44,0,0,0-.75-.18h-.42a1.5,1.5,0,0,0-.86.21.72.72,0,0,0-.3.63.65.65,0,0,0,.22.54,1.34,1.34,0,0,0,.72.26l1,.13a3.08,3.08,0,0,1,1.66.63,2,2,0,0,1-.14,2.85,3,3,0,0,1-1.89.53h-.43a3.09,3.09,0,0,1-1.8-.48A1.73,1.73,0,0,1,209,116.05Z" style="fill:#139c5a"/><path d="M216.36,117.71v-8.64h1.32v2c0,.11,0,.23,0,.36s0,.26,0,.37,0,.25,0,.41h.11a1.49,1.49,0,0,1,.59-.93,2,2,0,0,1,1.17-.33,2.36,2.36,0,0,1,.9.16,2.2,2.2,0,0,1,.68.48,2.32,2.32,0,0,1,.44.75,3.05,3.05,0,0,1,.15,1v4.35h-1.3v-4.17a1.45,1.45,0,0,0-.36-1.05,1.26,1.26,0,0,0-1-.38,1.29,1.29,0,0,0-1,.4,1.53,1.53,0,0,0-.36,1.08v4.12Z" style="fill:#139c5a"/><path d="M223.29,115.82a1.88,1.88,0,0,1,.66-1.52,2.71,2.71,0,0,1,1.81-.57h1.79v-.55a1,1,0,0,0-.37-.82,1.59,1.59,0,0,0-1-.29,1.93,1.93,0,0,0-.87.18,1,1,0,0,0-.48.52h-1.3a1.93,1.93,0,0,1,.88-1.3,3.65,3.65,0,0,1,3.77.09,1.93,1.93,0,0,1,.73,1.59v4.56h-1.23v-1.29h-.09a1.59,1.59,0,0,1-.71,1,2.51,2.51,0,0,1-1.41.38,2.21,2.21,0,0,1-1.56-.55A1.89,1.89,0,0,1,223.29,115.82Zm1.32-.11a.94.94,0,0,0,.32.78,1.34,1.34,0,0,0,.91.28,2.17,2.17,0,0,0,.69-.1,1.71,1.71,0,0,0,.54-.27,1.21,1.21,0,0,0,.35-.4,1.14,1.14,0,0,0,.13-.51v-.83h-1.78a1.26,1.26,0,0,0-.85.27A1,1,0,0,0,224.61,115.71Z" style="fill:#139c5a"/><path d="M230.77,111.11H232v1.14h.1a1.47,1.47,0,0,1,.61-.93,2,2,0,0,1,1.19-.33,2.29,2.29,0,0,1,.92.18,2.05,2.05,0,0,1,.72.51,2.46,2.46,0,0,1,.45.81,3.31,3.31,0,0,1,.17,1.08v1.65a3.41,3.41,0,0,1-.17,1.09,2.32,2.32,0,0,1-.45.82,2.08,2.08,0,0,1-.72.52,2.29,2.29,0,0,1-.92.18,2,2,0,0,1-1.19-.33,1.47,1.47,0,0,1-.61-.93H232s0,.05,0,.13,0,.17,0,.29,0,.23,0,.36,0,.24,0,.36v2h-1.32Zm1.32,2.48v1.63a1.54,1.54,0,0,0,.37,1.06,1.28,1.28,0,0,0,1,.39,1.38,1.38,0,0,0,1-.39,1.5,1.5,0,0,0,.38-1.07v-1.62a1.47,1.47,0,0,0-.38-1.07,1.38,1.38,0,0,0-1-.39,1.27,1.27,0,0,0-1,.39A1.5,1.5,0,0,0,232.09,113.59Z" style="fill:#139c5a"/><path d="M237.84,113.54a3,3,0,0,1,.19-1.06,2.18,2.18,0,0,1,.56-.8,2.5,2.5,0,0,1,.87-.51,3.51,3.51,0,0,1,1.15-.18,3.43,3.43,0,0,1,1.15.18,2.5,2.5,0,0,1,.87.51,2.16,2.16,0,0,1,.55.8,2.78,2.78,0,0,1,.19,1.06v1.21h-4.22v.47a1.53,1.53,0,0,0,.39,1.11,1.45,1.45,0,0,0,1.07.39,2.35,2.35,0,0,0,.88-.15,1.05,1.05,0,0,0,.54-.47h1.3a2.18,2.18,0,0,1-1,1.26,2.77,2.77,0,0,1-.8.35,3.74,3.74,0,0,1-1,.12,3.41,3.41,0,0,1-1.14-.18,2.52,2.52,0,0,1-.87-.52,2.22,2.22,0,0,1-.56-.81,2.78,2.78,0,0,1-.2-1.06Zm1.31.25h2.93v-.25a1.34,1.34,0,0,0-1.47-1.45,1.32,1.32,0,0,0-1.46,1.45Z" style="fill:#139c5a"/><path d="M244.63,110.18V109h3.46v6.69a.8.8,0,0,0,.22.61.78.78,0,0,0,.6.23h2v1.2h-2a2.11,2.11,0,0,1-1.53-.55,2,2,0,0,1-.55-1.49v-5.49Z" style="fill:#139c5a"/><path d="M251.92,111.11h1.44l1.39,3.63a4.42,4.42,0,0,1,.15.48,4.15,4.15,0,0,1,.09.43c0,.16,0,.3.06.44h.1a3.59,3.59,0,0,1,0-.44c0-.12.06-.27.09-.43s.09-.32.14-.48l1.3-3.63h1.39l-3.17,8.64h-1.39l.91-2.46Z" style="fill:#139c5a"/><path d="M205.39,127.93a3.5,3.5,0,0,1,.16-1.05,2.1,2.1,0,0,1,.46-.8,2.05,2.05,0,0,1,.72-.51,2.34,2.34,0,0,1,.93-.18,2.1,2.1,0,0,1,1.23.34,1.61,1.61,0,0,1,.63,1h.09v-1.2h1.24v6.2a2.27,2.27,0,0,1-.71,1.78,2.78,2.78,0,0,1-2,.66h-1.71V133h1.71a1.4,1.4,0,0,0,1-.35,1.27,1.27,0,0,0,.37-1v-.23l0-1.2h-.07a1.59,1.59,0,0,1-.65,1,2,2,0,0,1-1.22.35,2.34,2.34,0,0,1-.93-.18,2,2,0,0,1-.71-.51,2.22,2.22,0,0,1-.45-.8,3.11,3.11,0,0,1-.17-1Zm1.34,1.12a1.41,1.41,0,1,0,2.82,0v-1.11a1.43,1.43,0,0,0-.38-1,1.63,1.63,0,0,0-2.07,0,1.42,1.42,0,0,0-.37,1Z" style="fill:#139c5a"/><path d="M212.64,127.94a3,3,0,0,1,.19-1.06,2.18,2.18,0,0,1,.56-.8,2.5,2.5,0,0,1,.87-.51,3.51,3.51,0,0,1,1.15-.18,3.43,3.43,0,0,1,1.15.18,2.5,2.5,0,0,1,.87.51,2.16,2.16,0,0,1,.55.8,2.78,2.78,0,0,1,.19,1.06v1.21H214v.47a1.53,1.53,0,0,0,.39,1.11,1.45,1.45,0,0,0,1.07.39,2.35,2.35,0,0,0,.88-.15,1.05,1.05,0,0,0,.54-.47h1.3a2.18,2.18,0,0,1-.95,1.26,2.77,2.77,0,0,1-.8.35,3.74,3.74,0,0,1-1,.12,3.41,3.41,0,0,1-1.14-.18,2.52,2.52,0,0,1-.87-.52,2.22,2.22,0,0,1-.56-.81,2.78,2.78,0,0,1-.2-1.06Zm1.31.25h2.93v-.25a1.34,1.34,0,0,0-1.47-1.45,1.32,1.32,0,0,0-1.46,1.45Z" style="fill:#139c5a"/><path d="M222.61,132.23a3.41,3.41,0,0,1-1.14-.19,2.4,2.4,0,0,1-.87-.53,2.35,2.35,0,0,1-.56-.82,2.83,2.83,0,0,1-.2-1.07V128a2.83,2.83,0,0,1,.2-1.07,2.35,2.35,0,0,1,.56-.82,2.4,2.4,0,0,1,.87-.53,3.64,3.64,0,0,1,2.29,0,2.4,2.4,0,0,1,.87.53,2.31,2.31,0,0,1,.56.81,2.85,2.85,0,0,1,.2,1.08v1.65a2.92,2.92,0,0,1-.2,1.08,2.32,2.32,0,0,1-.55.82,2.52,2.52,0,0,1-.87.52A3.53,3.53,0,0,1,222.61,132.23Zm-1.45-2.61a1.43,1.43,0,0,0,.39,1.06,1.45,1.45,0,0,0,1.06.38,1.49,1.49,0,0,0,1.07-.38,1.42,1.42,0,0,0,.38-1.06V128a1.42,1.42,0,0,0-.38-1.06,1.68,1.68,0,0,0-2.13,0,1.43,1.43,0,0,0-.39,1.06Z" style="fill:#139c5a"/><path d="M226.87,132.11v-6.6H228v1h.09a1.27,1.27,0,0,1,.32-.81,1,1,0,0,1,.76-.28.94.94,0,0,1,.72.27,1.7,1.7,0,0,1,.39.82h.08a1.22,1.22,0,0,1,.32-.81,1.08,1.08,0,0,1,.78-.28,1.2,1.2,0,0,1,1,.45,1.93,1.93,0,0,1,.37,1.24v5h-1.22v-5a1,1,0,0,0-.15-.59.54.54,0,0,0-.46-.2q-.63,0-.63.84v4.92h-1v-5a.92.92,0,0,0-.16-.59.59.59,0,0,0-.48-.2q-.63,0-.63.84v4.92Z" style="fill:#139c5a"/><path d="M234.24,127.94a3,3,0,0,1,.19-1.06,2.18,2.18,0,0,1,.56-.8,2.5,2.5,0,0,1,.87-.51,3.51,3.51,0,0,1,1.15-.18,3.43,3.43,0,0,1,1.15.18,2.5,2.5,0,0,1,.87.51,2.16,2.16,0,0,1,.55.8,2.78,2.78,0,0,1,.19,1.06v1.21h-4.22v.47a1.53,1.53,0,0,0,.39,1.11,1.45,1.45,0,0,0,1.07.39,2.35,2.35,0,0,0,.88-.15,1.05,1.05,0,0,0,.54-.47h1.3a2.18,2.18,0,0,1-.95,1.26,2.77,2.77,0,0,1-.8.35,3.74,3.74,0,0,1-1,.12,3.41,3.41,0,0,1-1.14-.18,2.52,2.52,0,0,1-.87-.52,2.22,2.22,0,0,1-.56-.81,2.78,2.78,0,0,1-.2-1.06Zm1.31.25h2.93v-.25a1.34,1.34,0,0,0-1.47-1.45,1.32,1.32,0,0,0-1.46,1.45Z" style="fill:#139c5a"/><path d="M241.24,125.51h1.86v-2h1.32v2H247v1.18h-2.53v3.52a.66.66,0,0,0,.19.51.77.77,0,0,0,.54.19h1.68v1.2h-1.74a2,2,0,0,1-1.46-.52,1.8,1.8,0,0,1-.53-1.38v-3.52h-1.86Z" style="fill:#139c5a"/><path d="M250.28,125.51v1.14h.11a1.48,1.48,0,0,1,.62-.93,2.43,2.43,0,0,1,2.88.32,2.64,2.64,0,0,1,.59,1.82v.43h-1.35V128a1.56,1.56,0,0,0-.37-1.09,1.35,1.35,0,0,0-1-.39,1.33,1.33,0,0,0-1,.4,1.49,1.49,0,0,0-.37,1.08v4.12H249v-6.6Z" style="fill:#139c5a"/><path d="M255.52,125.51H257l1.39,3.63a4.42,4.42,0,0,1,.15.48c0,.15.06.3.09.43s0,.3.06.44h.1a3.59,3.59,0,0,1,0-.44c0-.12.06-.27.09-.43s.09-.32.14-.48l1.3-3.63h1.39l-3.17,8.64h-1.39l.91-2.46Z" style="fill:#139c5a"/><rect x="11" y="31.75" width="38.2" height="19.1" style="fill:#0f9c5a;stroke:#fff;stroke-miterlimit:10;opacity:0.2"/><rect x="11" y="50.85" width="38.2" height="19.1" style="fill:#0f9c5a;stroke:#fff;stroke-miterlimit:10;opacity:0.4"/><rect x="11" y="69.95" width="38.2" height="19.1" style="fill:#0f9c5a;stroke:#fff;stroke-miterlimit:10;opacity:0.6"/><rect x="11" y="89.05" width="38.2" height="19.1" style="fill:#0f9c5a;stroke:#fff;stroke-miterlimit:10;opacity:0.8"/><rect x="11" y="108.16" width="38.2" height="19.1" style="fill:#0f9c5a;stroke:#fff;stroke-miterlimit:10"/><rect x="53.8" y="31.75" width="83.41" height="19.1" style="fill:#e21c84;stroke:#fff;stroke-miterlimit:10;opacity:0.2"/><rect x="53.8" y="12.65" width="83.41" height="19.1" style="fill:#e21c84;stroke:#fff;stroke-miterlimit:10;opacity:0.4"/><rect x="53.8" y="50.85" width="83.41" height="19.1" style="fill:#e21c84;stroke:#fff;stroke-miterlimit:10;opacity:0.2"/><rect x="53.8" y="69.95" width="83.41" height="19.1" style="fill:#e21c84;stroke:#fff;stroke-miterlimit:10;opacity:0.2"/><rect x="53.8" y="89.05" width="83.41" height="19.1" style="fill:#e21c84;stroke:#fff;stroke-miterlimit:10;opacity:0.2"/><rect x="53.8" y="108.16" width="83.41" height="19.1" style="fill:#e21c84;stroke:#fff;stroke-miterlimit:10;opacity:0.2"/><line x1="144.24" y1="41.3" x2="193.76" y2="79.5" style="fill:none;stroke:#139c5a;stroke-miterlimit:10"/><line x1="144.24" y1="60.4" x2="193.76" y2="79.5" style="fill:none;stroke:#139c5a;stroke-miterlimit:10"/><line x1="144.24" y1="79.5" x2="193.76" y2="79.5" style="fill:none;stroke:#139c5a;stroke-miterlimit:10"/><polygon points="192.3 84.49 200.94 79.5 192.3 74.52 192.3 84.49" style="fill:#139c5a"/><line x1="144.24" y1="98.6" x2="193.76" y2="79.5" style="fill:none;stroke:#139c5a;stroke-miterlimit:10"/><line x1="144.24" y1="117.71" x2="193.76" y2="79.5" style="fill:none;stroke:#139c5a;stroke-miterlimit:10"/><polygon points="254.5 75.67 247.28 95.85 226.19 99.69 212.32 83.34 219.55 63.16 240.64 59.32 254.5 75.67" style="fill:#e21c84;stroke:#fff;stroke-miterlimit:10;opacity:0.2"/></svg>