<svg xmlns="http://www.w3.org/2000/svg" width="255.6mm" height="57.81mm" viewBox="0 0 724.53 163.88"><rect x="11" y="28.59" width="38.2" height="19.1" style="fill:#0f9c5a;stroke:#fff;stroke-miterlimit:10;opacity:0.2"/><rect x="11" y="47.7" width="38.2" height="19.1" style="fill:#0f9c5a;stroke:#fff;stroke-miterlimit:10;opacity:0.4"/><rect x="11" y="66.8" width="38.2" height="19.1" style="fill:#0f9c5a;stroke:#fff;stroke-miterlimit:10;opacity:0.6"/><rect x="11" y="85.9" width="38.2" height="19.1" style="fill:#0f9c5a;stroke:#fff;stroke-miterlimit:10;opacity:0.8"/><rect x="11" y="105" width="38.2" height="19.1" style="fill:#0f9c5a;stroke:#fff;stroke-miterlimit:10"/><rect x="53.8" y="28.59" width="83.41" height="19.1" style="fill:#e21c84;stroke:#fff;stroke-miterlimit:10;opacity:0.2"/><rect x="53.8" y="9.49" width="83.41" height="19.1" style="fill:#e21c84;stroke:#fff;stroke-miterlimit:10;opacity:0.4"/><rect x="53.8" y="47.7" width="83.41" height="19.1" style="fill:#e21c84;stroke:#fff;stroke-miterlimit:10;opacity:0.2"/><rect x="53.8" y="66.8" width="83.41" height="19.1" style="fill:#e21c84;stroke:#fff;stroke-miterlimit:10;opacity:0.2"/><rect x="53.8" y="85.9" width="83.41" height="19.1" style="fill:#e21c84;stroke:#fff;stroke-miterlimit:10;opacity:0.2"/><rect x="53.8" y="105" width="83.41" height="19.1" style="fill:#e21c84;stroke:#fff;stroke-miterlimit:10;opacity:0.2"/><rect x="200.25" y="28.59" width="38.2" height="19.1" style="fill:#0f9c5a;stroke:#fff;stroke-miterlimit:10;opacity:0.8"/><rect x="200.25" y="47.7" width="38.2" height="19.1" style="fill:#0f9c5a;stroke:#fff;stroke-miterlimit:10;opacity:0.2"/><rect x="200.25" y="66.8" width="38.2" height="19.1" style="fill:#0f9c5a;stroke:#fff;stroke-miterlimit:10"/><rect x="200.25" y="85.9" width="38.2" height="19.1" style="fill:#0f9c5a;stroke:#fff;stroke-miterlimit:10;opacity:0.4"/><rect x="200.25" y="105" width="38.2" height="19.1" style="fill:#0f9c5a;stroke:#fff;stroke-miterlimit:10;opacity:0.6"/><rect x="243.05" y="28.59" width="83.41" height="19.1" style="fill:#e21c84;stroke:#fff;stroke-miterlimit:10;opacity:0.2"/><rect x="243.05" y="9.49" width="83.41" height="19.1" style="fill:#e21c84;stroke:#fff;stroke-miterlimit:10;opacity:0.4"/><rect x="243.05" y="47.7" width="83.41" height="19.1" style="fill:#e21c84;stroke:#fff;stroke-miterlimit:10;opacity:0.2"/><rect x="243.05" y="66.8" width="83.41" height="19.1" style="fill:#e21c84;stroke:#fff;stroke-miterlimit:10;opacity:0.2"/><rect x="243.05" y="85.9" width="83.41" height="19.1" style="fill:#e21c84;stroke:#fff;stroke-miterlimit:10;opacity:0.2"/><rect x="243.05" y="105" width="83.41" height="19.1" style="fill:#e21c84;stroke:#fff;stroke-miterlimit:10;opacity:0.2"/><line x1="144.24" y1="38.14" x2="187.07" y2="54.66" style="fill:none;stroke:#139c5a;stroke-miterlimit:10"/><polygon points="183.91 58.79 193.76 57.25 187.5 49.49 183.91 58.79" style="fill:#139c5a"/><line x1="144.24" y1="57.25" x2="188.08" y2="91.07" style="fill:none;stroke:#139c5a;stroke-miterlimit:10"/><polygon points="183.88 94.12 193.76 95.45 189.97 86.23 183.88 94.12" style="fill:#139c5a"/><line x1="144.24" y1="76.35" x2="188.08" y2="110.17" style="fill:none;stroke:#139c5a;stroke-miterlimit:10"/><polygon points="183.88 113.22 193.76 114.55 189.97 105.33 183.88 113.22" style="fill:#139c5a"/><line x1="144.24" y1="95.45" x2="189.07" y2="43.57" style="fill:none;stroke:#139c5a;stroke-miterlimit:10"/><polygon points="191.89 47.94 193.76 38.15 184.34 41.42 191.89 47.94" style="fill:#139c5a"/><line x1="144.24" y1="114.55" x2="188.08" y2="80.73" style="fill:none;stroke:#139c5a;stroke-miterlimit:10"/><polygon points="189.97 85.57 193.76 76.35 183.88 77.67 189.97 85.57" style="fill:#139c5a"/><line x1="533.72" y1="38.14" x2="576.06" y2="38.14" style="fill:none;stroke:#139c5a;stroke-miterlimit:10"/><polygon points="574.6 43.13 583.23 38.15 574.6 33.16 574.6 43.13" style="fill:#139c5a"/><line x1="533.72" y1="57.25" x2="576.06" y2="57.25" style="fill:none;stroke:#139c5a;stroke-miterlimit:10"/><polygon points="574.6 62.23 583.23 57.25 574.6 52.26 574.6 62.23" style="fill:#139c5a"/><line x1="533.72" y1="76.35" x2="576.06" y2="76.35" style="fill:none;stroke:#139c5a;stroke-miterlimit:10"/><polygon points="574.6 81.33 583.23 76.35 574.6 71.36 574.6 81.33" style="fill:#139c5a"/><line x1="533.72" y1="95.45" x2="576.06" y2="95.45" style="fill:none;stroke:#139c5a;stroke-miterlimit:10"/><polygon points="574.6 100.44 583.23 95.45 574.6 90.46 574.6 100.44" style="fill:#139c5a"/><line x1="533.72" y1="114.55" x2="576.06" y2="114.55" style="fill:none;stroke:#139c5a;stroke-miterlimit:10"/><polygon points="574.6 119.54 583.23 114.55 574.6 109.56 574.6 119.54" style="fill:#139c5a"/><rect x="400.47" y="28.59" width="38.2" height="19.1" style="fill:#0f9c5a;stroke:#fff;stroke-miterlimit:10;opacity:0.2"/><rect x="400.47" y="47.7" width="38.2" height="19.1" style="fill:#0f9c5a;stroke:#fff;stroke-miterlimit:10;opacity:0.4"/><rect x="400.47" y="66.8" width="38.2" height="19.1" style="fill:#0f9c5a;stroke:#fff;stroke-miterlimit:10;opacity:0.6"/><rect x="400.47" y="85.9" width="38.2" height="19.1" style="fill:#0f9c5a;stroke:#fff;stroke-miterlimit:10;opacity:0.8"/><rect x="400.47" y="105" width="38.2" height="19.1" style="fill:#0f9c5a;stroke:#fff;stroke-miterlimit:10"/><rect x="443.27" y="28.59" width="83.41" height="19.1" style="fill:#e21c84;stroke:#fff;stroke-miterlimit:10;opacity:0.2"/><rect x="443.27" y="9.49" width="83.41" height="19.1" style="fill:#e21c84;stroke:#fff;stroke-miterlimit:10;opacity:0.4"/><rect x="443.27" y="47.7" width="83.41" height="19.1" style="fill:#e21c84;stroke:#fff;stroke-miterlimit:10;opacity:0.2"/><rect x="443.27" y="66.8" width="83.41" height="19.1" style="fill:#e21c84;stroke:#fff;stroke-miterlimit:10;opacity:0.2"/><rect x="443.27" y="85.9" width="83.41" height="19.1" style="fill:#e21c84;stroke:#fff;stroke-miterlimit:10;opacity:0.2"/><rect x="443.27" y="105" width="83.41" height="19.1" style="fill:#e21c84;stroke:#fff;stroke-miterlimit:10;opacity:0.2"/><rect x="589.72" y="28.59" width="38.2" height="19.1" style="fill:#0f9c5a;stroke:#fff;stroke-miterlimit:10;opacity:0.8"/><rect x="589.72" y="47.7" width="38.2" height="19.1" style="fill:#0f9c5a;stroke:#fff;stroke-miterlimit:10;opacity:0.2"/><rect x="589.72" y="66.8" width="38.2" height="19.1" style="fill:#0f9c5a;stroke:#fff;stroke-miterlimit:10"/><rect x="589.72" y="85.9" width="38.2" height="19.1" style="fill:#0f9c5a;stroke:#fff;stroke-miterlimit:10;opacity:0.4"/><rect x="589.72" y="105" width="38.2" height="19.1" style="fill:#0f9c5a;stroke:#fff;stroke-miterlimit:10;opacity:0.6"/><rect x="632.52" y="28.59" width="83.41" height="19.1" style="fill:#e21c84;stroke:#fff;stroke-miterlimit:10;opacity:0.2"/><rect x="632.52" y="9.49" width="83.41" height="19.1" style="fill:#e21c84;stroke:#fff;stroke-miterlimit:10;opacity:0.4"/><rect x="632.52" y="47.7" width="83.41" height="19.1" style="fill:#e21c84;stroke:#fff;stroke-miterlimit:10;opacity:0.2"/><rect x="632.52" y="66.8" width="83.41" height="19.1" style="fill:#e21c84;stroke:#fff;stroke-miterlimit:10;opacity:0.2"/><rect x="632.52" y="85.9" width="83.41" height="19.1" style="fill:#e21c84;stroke:#fff;stroke-miterlimit:10;opacity:0.2"/><rect x="632.52" y="105" width="83.41" height="19.1" style="fill:#e21c84;stroke:#fff;stroke-miterlimit:10;opacity:0.2"/><path d="M130.89,145.13a1.9,1.9,0,0,1,.66-1.52,2.71,2.71,0,0,1,1.81-.57h1.79v-.55a1,1,0,0,0-.37-.82,1.59,1.59,0,0,0-1-.29,1.93,1.93,0,0,0-.87.18,1,1,0,0,0-.48.53h-1.3a1.93,1.93,0,0,1,.88-1.31,3.65,3.65,0,0,1,3.77.09,2,2,0,0,1,.73,1.59V147h-1.23v-1.29h-.09a1.57,1.57,0,0,1-.71,1,2.51,2.51,0,0,1-1.41.38,2.17,2.17,0,0,1-1.56-.55A1.89,1.89,0,0,1,130.89,145.13Zm1.32-.11a.94.94,0,0,0,.32.78,1.34,1.34,0,0,0,.91.28,2.17,2.17,0,0,0,.69-.1,1.71,1.71,0,0,0,.54-.27,1.21,1.21,0,0,0,.35-.4,1.14,1.14,0,0,0,.13-.51V144h-1.78a1.21,1.21,0,0,0-.85.28A1,1,0,0,0,132.21,145Z" style="fill:#139c5a"/><path d="M137.83,139.49v-1.2h3.46V145a.8.8,0,0,0,.22.61.78.78,0,0,0,.6.23h2V147h-2a2.07,2.07,0,0,1-1.53-.55A2,2,0,0,1,140,145v-5.49Z" style="fill:#139c5a"/><path d="M145.68,145.82h2.38V141.6H146v-1.18h3.36v5.4h1.93V147h-5.59Zm1.9-7.22a.71.71,0,0,1,.22-.55.84.84,0,0,1,.59-.21h.29a.8.8,0,0,1,.59.21.78.78,0,0,1,0,1.11.87.87,0,0,1-.6.2h-.28a.88.88,0,0,1-.59-.2A.72.72,0,0,1,147.58,138.6Z" style="fill:#139c5a"/><path d="M152.59,142.84a3.5,3.5,0,0,1,.16-1.05,2.22,2.22,0,0,1,.45-.8,2.09,2.09,0,0,1,.73-.51,2.3,2.3,0,0,1,.93-.18,2.1,2.1,0,0,1,1.23.34,1.65,1.65,0,0,1,.63,1h.09v-1.2h1.24v6.2a2.3,2.3,0,0,1-.71,1.78,2.78,2.78,0,0,1-2,.66h-1.71v-1.13h1.71a1.4,1.4,0,0,0,1-.35,1.27,1.27,0,0,0,.36-1v-.23l0-1.2h-.07a1.64,1.64,0,0,1-.65,1,2.07,2.07,0,0,1-1.22.34,2.3,2.3,0,0,1-.93-.18,2,2,0,0,1-.71-.51,2.22,2.22,0,0,1-.45-.8,3.06,3.06,0,0,1-.17-1Zm1.34,1.12a1.41,1.41,0,1,0,2.81,0v-1.11a1.41,1.41,0,1,0-2.81,0Z" style="fill:#139c5a"/><path d="M160,140.42h1.25v1.14h.11a1.47,1.47,0,0,1,.58-.94,2.05,2.05,0,0,1,1.18-.32,2.22,2.22,0,0,1,.92.17,1.89,1.89,0,0,1,.68.49,2.13,2.13,0,0,1,.43.75,2.93,2.93,0,0,1,.14,1V147h-1.32v-4.17a1.48,1.48,0,0,0-.34-1,1.27,1.27,0,0,0-1-.38,1.29,1.29,0,0,0-1,.4,1.57,1.57,0,0,0-.36,1.08V147H160Z" style="fill:#139c5a"/><path d="M172.45,141v1.2h-5.28V141Zm-5.28,2.93h5.28v1.2h-5.28Z" style="fill:#139c5a"/><path d="M173.92,139.56v-1.18h6.19v1.18h-2.42V147h-1.35v-7.46Z" style="fill:#139c5a"/><path d="M183.08,140.42v1.14h.11a1.48,1.48,0,0,1,.62-.93,2.43,2.43,0,0,1,2.88.32,2.64,2.64,0,0,1,.59,1.82v.43h-1.35v-.3a1.58,1.58,0,0,0-.37-1.09,1.35,1.35,0,0,0-1-.39,1.33,1.33,0,0,0-1,.4,1.52,1.52,0,0,0-.37,1.08V147h-1.32v-6.6Z" style="fill:#139c5a"/><path d="M190.12,140.42v4.18c0,.93.42,1.38,1.28,1.38s1.31-.45,1.31-1.38v-4.18H194v4.18a2.48,2.48,0,0,1-.69,1.88,2.67,2.67,0,0,1-1.94.66,2.63,2.63,0,0,1-1.92-.67,2.46,2.46,0,0,1-.68-1.87v-4.18Z" style="fill:#139c5a"/><path d="M195.84,142.85a2.78,2.78,0,0,1,.19-1.06,2.16,2.16,0,0,1,.55-.8,2.55,2.55,0,0,1,.88-.51,3.47,3.47,0,0,1,1.15-.18,3.43,3.43,0,0,1,1.15.18,2.5,2.5,0,0,1,.87.51,2.16,2.16,0,0,1,.55.8,2.78,2.78,0,0,1,.19,1.06v1.21h-4.22v.47a1.53,1.53,0,0,0,.39,1.11,1.45,1.45,0,0,0,1.07.39,2.35,2.35,0,0,0,.88-.15,1.05,1.05,0,0,0,.54-.47h1.29a2,2,0,0,1-.34.71,2.11,2.11,0,0,1-.6.55,2.77,2.77,0,0,1-.8.35,3.74,3.74,0,0,1-1,.12,3.41,3.41,0,0,1-1.14-.18,2.38,2.38,0,0,1-.87-.52,2.22,2.22,0,0,1-.56-.81,2.78,2.78,0,0,1-.2-1.06Zm1.31.25h2.93v-.25a1.41,1.41,0,0,0-.39-1.06,1.43,1.43,0,0,0-1.08-.39,1.33,1.33,0,0,0-1.46,1.45Z" style="fill:#139c5a"/><path d="M519.27,145.13a1.88,1.88,0,0,1,.67-1.52,2.66,2.66,0,0,1,1.8-.57h1.79v-.55a1,1,0,0,0-.36-.82,1.61,1.61,0,0,0-1-.29,1.94,1.94,0,0,0-.88.18,1,1,0,0,0-.48.53h-1.29a1.92,1.92,0,0,1,.87-1.31,3.67,3.67,0,0,1,3.78.09,1.94,1.94,0,0,1,.72,1.59V147h-1.22v-1.29h-.1a1.56,1.56,0,0,1-.7,1,2.51,2.51,0,0,1-1.41.38,2.15,2.15,0,0,1-1.56-.55A1.9,1.9,0,0,1,519.27,145.13Zm1.32-.11a1,1,0,0,0,.33.78,1.32,1.32,0,0,0,.91.28,2.07,2.07,0,0,0,.68-.1,1.52,1.52,0,0,0,.54-.27,1.37,1.37,0,0,0,.36-.4,1.13,1.13,0,0,0,.12-.51V144h-1.77a1.24,1.24,0,0,0-.86.28A1,1,0,0,0,520.59,145Z" style="fill:#139c5a"/><path d="M526.22,139.49v-1.2h3.46V145a.84.84,0,0,0,.21.61.81.81,0,0,0,.6.23h2V147h-2a2.06,2.06,0,0,1-1.52-.55,2,2,0,0,1-.55-1.49v-5.49Z" style="fill:#139c5a"/><path d="M534.07,145.82h2.37V141.6h-2.07v-1.18h3.36v5.4h1.93V147h-5.59ZM536,138.6a.72.72,0,0,1,.23-.55.8.8,0,0,1,.59-.21h.29a.82.82,0,0,1,.59.21.71.71,0,0,1,.22.55.72.72,0,0,1-.22.56.89.89,0,0,1-.6.2h-.28a.84.84,0,0,1-.59-.2A.72.72,0,0,1,536,138.6Z" style="fill:#139c5a"/><path d="M541,142.84a3.21,3.21,0,0,1,.16-1.05,2.09,2.09,0,0,1,.45-.8,2.05,2.05,0,0,1,.72-.51,2.35,2.35,0,0,1,.94-.18,2,2,0,0,1,1.22.34,1.62,1.62,0,0,1,.64,1h.08v-1.2h1.25v6.2a2.3,2.3,0,0,1-.71,1.78,2.78,2.78,0,0,1-2,.66h-1.71v-1.13h1.71a1.42,1.42,0,0,0,1-.35,1.27,1.27,0,0,0,.36-1v-.23l0-1.2h-.07a1.68,1.68,0,0,1-.65,1,2.09,2.09,0,0,1-1.22.34,2.27,2.27,0,0,1-.93-.18,1.93,1.93,0,0,1-.71-.51,2.24,2.24,0,0,1-.46-.8,3.07,3.07,0,0,1-.16-1Zm1.33,1.12a1.43,1.43,0,0,0,.38,1,1.41,1.41,0,0,0,2.44-1v-1.11a1.47,1.47,0,0,0-2.44-1,1.43,1.43,0,0,0-.38,1Z" style="fill:#139c5a"/><path d="M548.35,140.42h1.25v1.14h.1a1.52,1.52,0,0,1,.59-.94,2.05,2.05,0,0,1,1.18-.32,2.25,2.25,0,0,1,.92.17,2.08,2.08,0,0,1,.68.49,2.13,2.13,0,0,1,.43.75,3.22,3.22,0,0,1,.14,1V147h-1.32v-4.17a1.48,1.48,0,0,0-.35-1,1.24,1.24,0,0,0-1-.38,1.28,1.28,0,0,0-1,.4,1.57,1.57,0,0,0-.36,1.08V147h-1.32Z" style="fill:#139c5a"/><path d="M560.84,141v1.2h-5.28V141Zm-5.28,2.93h5.28v1.2h-5.28Z" style="fill:#139c5a"/><path d="M562.84,138.37h5.32v1.19h-4V142h3.71v1.2h-3.69V147h-1.32Z" style="fill:#139c5a"/><path d="M569.67,145.13a1.88,1.88,0,0,1,.67-1.52,2.66,2.66,0,0,1,1.8-.57h1.79v-.55a1,1,0,0,0-.36-.82,1.61,1.61,0,0,0-1-.29,1.94,1.94,0,0,0-.88.18,1,1,0,0,0-.48.53h-1.29a1.92,1.92,0,0,1,.87-1.31,3.67,3.67,0,0,1,3.78.09,1.94,1.94,0,0,1,.72,1.59V147H574v-1.29h-.1a1.56,1.56,0,0,1-.7,1,2.51,2.51,0,0,1-1.41.38,2.18,2.18,0,0,1-1.57-.55A1.93,1.93,0,0,1,569.67,145.13ZM571,145a1,1,0,0,0,.33.78,1.32,1.32,0,0,0,.91.28,2.11,2.11,0,0,0,.68-.1,1.52,1.52,0,0,0,.54-.27,1.37,1.37,0,0,0,.36-.4,1.13,1.13,0,0,0,.12-.51V144h-1.77a1.24,1.24,0,0,0-.86.28A1,1,0,0,0,571,145Z" style="fill:#139c5a"/><path d="M576.62,139.49v-1.2h3.46V145a.84.84,0,0,0,.21.61.81.81,0,0,0,.6.23h2V147h-2a2,2,0,0,1-1.52-.55,2,2,0,0,1-.55-1.49v-5.49Z" style="fill:#139c5a"/><path d="M584.19,145.36h1.37a.79.79,0,0,0,.4.52,1.67,1.67,0,0,0,.81.19h.43a1.53,1.53,0,0,0,.92-.24.77.77,0,0,0,.33-.66q0-.72-1.05-.87l-1-.13a2.75,2.75,0,0,1-1.58-.62,1.72,1.72,0,0,1-.51-1.33,1.7,1.7,0,0,1,.64-1.42,2.89,2.89,0,0,1,1.83-.5h.42a2.87,2.87,0,0,1,1.7.46,1.82,1.82,0,0,1,.77,1.25h-1.35a.76.76,0,0,0-.38-.47,1.4,1.4,0,0,0-.74-.17h-.42a1.4,1.4,0,0,0-.86.21.7.7,0,0,0-.3.63.67.67,0,0,0,.22.54,1.39,1.39,0,0,0,.71.25l1,.13a3.08,3.08,0,0,1,1.65.63,2,2,0,0,1-.13,2.86,3,3,0,0,1-1.9.52h-.43a3.08,3.08,0,0,1-1.79-.48A1.77,1.77,0,0,1,584.19,145.36Z" style="fill:#139c5a"/><path d="M591.43,142.85a2.78,2.78,0,0,1,.19-1.06,2.16,2.16,0,0,1,.55-.8,2.46,2.46,0,0,1,.88-.51,3.76,3.76,0,0,1,2.3,0,2.5,2.5,0,0,1,.87.51,2.16,2.16,0,0,1,.55.8,2.78,2.78,0,0,1,.19,1.06v1.21h-4.22v.47a1.53,1.53,0,0,0,.39,1.11,1.44,1.44,0,0,0,1.07.39,2.35,2.35,0,0,0,.88-.15,1.14,1.14,0,0,0,.54-.47h1.29a2.22,2.22,0,0,1-.94,1.26,2.9,2.9,0,0,1-.8.35,3.79,3.79,0,0,1-1,.12,3.47,3.47,0,0,1-1.15-.18,2.38,2.38,0,0,1-.87-.52,2.2,2.2,0,0,1-.55-.81,2.6,2.6,0,0,1-.2-1.06Zm1.31.25h2.92v-.25a1.41,1.41,0,0,0-.38-1.06,1.69,1.69,0,0,0-2.16,0,1.41,1.41,0,0,0-.38,1.06Z" style="fill:#139c5a"/></svg>