<svg xmlns="http://www.w3.org/2000/svg" width="115.16mm" height="58.15mm" viewBox="0 0 326.44 164.84"><rect x="5.24" y="27.78" width="38.2" height="19.1" style="fill:#0f9c5a;stroke:#fff;stroke-miterlimit:10;opacity:0.2"/><rect x="5.24" y="46.88" width="38.2" height="19.1" style="fill:#0f9c5a;stroke:#fff;stroke-miterlimit:10;opacity:0.4"/><rect x="5.24" y="65.98" width="38.2" height="19.1" style="fill:#0f9c5a;stroke:#fff;stroke-miterlimit:10;opacity:0.6"/><rect x="5.24" y="85.08" width="38.2" height="19.1" style="fill:#0f9c5a;stroke:#fff;stroke-miterlimit:10;opacity:0.8"/><rect x="5.24" y="104.19" width="38.2" height="19.1" style="fill:#0f9c5a;stroke:#fff;stroke-miterlimit:10"/><rect x="48.04" y="27.78" width="83.41" height="19.1" style="fill:#e21c84;stroke:#fff;stroke-miterlimit:10;opacity:0.2"/><rect x="48.04" y="8.68" width="83.41" height="19.1" style="fill:#e21c84;stroke:#fff;stroke-miterlimit:10;opacity:0.4"/><rect x="48.04" y="46.88" width="83.41" height="19.1" style="fill:#e21c84;stroke:#fff;stroke-miterlimit:10;opacity:0.2"/><rect x="48.04" y="65.98" width="83.41" height="19.1" style="fill:#e21c84;stroke:#fff;stroke-miterlimit:10;opacity:0.2"/><rect x="48.04" y="85.08" width="83.41" height="19.1" style="fill:#e21c84;stroke:#fff;stroke-miterlimit:10;opacity:0.2"/><rect x="48.04" y="104.19" width="83.41" height="19.1" style="fill:#e21c84;stroke:#fff;stroke-miterlimit:10;opacity:0.2"/><rect x="194.49" y="27.78" width="38.2" height="19.1" style="fill:#0f9c5a;stroke:#fff;stroke-miterlimit:10;opacity:0.2"/><rect x="194.49" y="46.88" width="38.2" height="19.1" style="fill:#0f9c5a;stroke:#fff;stroke-miterlimit:10;opacity:0.4"/><rect x="194.49" y="65.98" width="38.2" height="19.1" style="fill:#0f9c5a;stroke:#fff;stroke-miterlimit:10;opacity:0.6"/><rect x="194.49" y="85.08" width="38.2" height="19.1" style="fill:#0f9c5a;stroke:#fff;stroke-miterlimit:10;opacity:0.8"/><rect x="194.49" y="104.19" width="38.2" height="19.1" style="fill:#0f9c5a;stroke:#fff;stroke-miterlimit:10"/><rect x="237.29" y="27.78" width="83.41" height="19.1" style="fill:#e21c84;stroke:#fff;stroke-miterlimit:10;opacity:0.2"/><rect x="237.29" y="8.68" width="83.41" height="19.1" style="fill:#e21c84;stroke:#fff;stroke-miterlimit:10;opacity:0.4"/><rect x="237.29" y="46.88" width="83.41" height="19.1" style="fill:#e21c84;stroke:#fff;stroke-miterlimit:10;opacity:0.2"/><rect x="237.29" y="65.98" width="83.41" height="19.1" style="fill:#e21c84;stroke:#fff;stroke-miterlimit:10;opacity:0.2"/><rect x="237.29" y="85.08" width="83.41" height="19.1" style="fill:#e21c84;stroke:#fff;stroke-miterlimit:10;opacity:0.2"/><rect x="237.29" y="104.19" width="83.41" height="19.1" style="fill:#e21c84;stroke:#fff;stroke-miterlimit:10;opacity:0.2"/><line x1="138.48" y1="37.33" x2="180.83" y2="37.33" style="fill:none;stroke:#139c5a;stroke-miterlimit:10"/><polygon points="179.37 42.32 188 37.33 179.37 32.35 179.37 42.32" style="fill:#139c5a"/><line x1="138.48" y1="56.43" x2="180.83" y2="56.43" style="fill:none;stroke:#139c5a;stroke-miterlimit:10"/><polygon points="179.37 61.42 188 56.43 179.37 51.45 179.37 61.42" style="fill:#139c5a"/><line x1="138.48" y1="75.53" x2="180.83" y2="75.53" style="fill:none;stroke:#139c5a;stroke-miterlimit:10"/><polygon points="179.37 80.52 188 75.53 179.37 70.55 179.37 80.52" style="fill:#139c5a"/><line x1="138.48" y1="94.64" x2="180.83" y2="94.64" style="fill:none;stroke:#139c5a;stroke-miterlimit:10"/><polygon points="179.37 99.62 188 94.64 179.37 89.65 179.37 99.62" style="fill:#139c5a"/><line x1="138.48" y1="113.74" x2="180.83" y2="113.74" style="fill:none;stroke:#139c5a;stroke-miterlimit:10"/><polygon points="179.37 118.72 188 113.74 179.37 108.75 179.37 118.72" style="fill:#139c5a"/><rect x="3.19" y="25.4" width="42.25" height="99.95" style="fill:none;stroke:#139c5a;stroke-miterlimit:10;stroke-width:0.5px"/><path d="M7.38,143.15H9.76v-4.21H7.68v-1.19H11v5.4H13v1.2H7.38Zm1.9-7.21a.73.73,0,0,1,.22-.56.84.84,0,0,1,.59-.21h.29a.84.84,0,0,1,.6.21.77.77,0,0,1,.22.56.75.75,0,0,1-.22.55.85.85,0,0,1-.61.2h-.28a.83.83,0,0,1-.59-.2A.71.71,0,0,1,9.28,135.94Z" style="fill:#139c5a"/><path d="M14.46,137.75h1.25v1.14h.11a1.48,1.48,0,0,1,.59-.94,2,2,0,0,1,1.17-.32,2.4,2.4,0,0,1,.92.17,1.89,1.89,0,0,1,.68.49,2.13,2.13,0,0,1,.43.75,3,3,0,0,1,.14,1v4.34H18.43v-4.16a1.5,1.5,0,0,0-.34-1.06,1.27,1.27,0,0,0-1-.37,1.28,1.28,0,0,0-1,.39,1.57,1.57,0,0,0-.36,1.08v4.12H14.46Z" style="fill:#139c5a"/><path d="M21.54,140.21a3.49,3.49,0,0,1,.16-1.07,2.29,2.29,0,0,1,.46-.81,1.85,1.85,0,0,1,.71-.52,2.34,2.34,0,0,1,.93-.18A2,2,0,0,1,25,138a1.47,1.47,0,0,1,.61.93h.11l0-.41c0-.12,0-.24,0-.38s0-.25,0-.35v-2H27v8.64H25.71v-1.14H25.6a1.47,1.47,0,0,1-.61.93,2,2,0,0,1-1.19.33,2.34,2.34,0,0,1-.93-.18,1.85,1.85,0,0,1-.71-.52,2.25,2.25,0,0,1-.46-.82,3.6,3.6,0,0,1-.16-1.08Zm1.32,0v1.62a1.49,1.49,0,0,0,.38,1.07,1.35,1.35,0,0,0,1,.4,1.28,1.28,0,0,0,1-.4,1.45,1.45,0,0,0,.37-1v-1.64a1.47,1.47,0,0,0-.37-1.06,1.3,1.3,0,0,0-1-.4,1.38,1.38,0,0,0-1,.39A1.49,1.49,0,0,0,22.86,140.23Z" style="fill:#139c5a"/><path d="M28.74,140.19a3,3,0,0,1,.19-1.07,2.27,2.27,0,0,1,.56-.8,2.5,2.5,0,0,1,.87-.51,3.51,3.51,0,0,1,1.15-.18,3.43,3.43,0,0,1,1.15.18,2.5,2.5,0,0,1,.87.51,2.24,2.24,0,0,1,.55.8,2.8,2.8,0,0,1,.19,1.07v1.21H30.05v.47a1.49,1.49,0,0,0,.39,1.1,1.46,1.46,0,0,0,1.07.4,2.34,2.34,0,0,0,.88-.16,1,1,0,0,0,.54-.47h1.3a2.29,2.29,0,0,1-.35.72,2.23,2.23,0,0,1-.6.54,2.77,2.77,0,0,1-.8.35,3.74,3.74,0,0,1-1,.12,3.41,3.41,0,0,1-1.14-.18,2.38,2.38,0,0,1-.87-.52,2.22,2.22,0,0,1-.56-.81,2.74,2.74,0,0,1-.2-1.06Zm1.31.25H33v-.25a1.35,1.35,0,0,0-1.47-1.46,1.34,1.34,0,0,0-1.46,1.46Z" style="fill:#139c5a"/><path d="M38,141l-2.23-3.2h1.53l1.23,1.86a1.05,1.05,0,0,1,.15.3.43.43,0,0,1,0,.13h.06a.43.43,0,0,1,0-.13,1,1,0,0,1,.15-.3l1.24-1.86H41.7l-2.22,3.19,2.37,3.41H40.31l-1.33-2a.59.59,0,0,1-.1-.17l-.07-.14-.06-.14h-.07s0,.1-.06.15l-.06.14a1.4,1.4,0,0,1-.1.16l-1.35,2H35.58Z" style="fill:#139c5a"/><rect x="46.28" y="6.23" width="86.81" height="119.12" style="fill:none;stroke:#139c5a;stroke-miterlimit:10;stroke-width:0.5px"/><path d="M135.05,144.47a3.23,3.23,0,0,1-1.15-.19,2.52,2.52,0,0,1-.87-.52,2.36,2.36,0,0,1-.55-.83,2.6,2.6,0,0,1-.2-1.06v-1.65a2.65,2.65,0,0,1,.2-1.07,2.32,2.32,0,0,1,.55-.82,2.54,2.54,0,0,1,.87-.53,3.76,3.76,0,0,1,2.3,0,2.38,2.38,0,0,1,.87.52,2.32,2.32,0,0,1,.55.82,2.59,2.59,0,0,1,.2,1.07v1.66a2.83,2.83,0,0,1-.19,1.07,2.24,2.24,0,0,1-.55.82,2.34,2.34,0,0,1-.88.52A3.23,3.23,0,0,1,135.05,144.47Zm-1.45-2.6a1.5,1.5,0,0,0,2.51,1,1.4,1.4,0,0,0,.39-1v-1.65a1.39,1.39,0,0,0-.39-1.05,1.64,1.64,0,0,0-2.12,0,1.39,1.39,0,0,0-.39,1.05Z" style="fill:#139c5a"/><path d="M139.61,137.75h1.26v1.14h.1a1.46,1.46,0,0,1,.6-.93,2.07,2.07,0,0,1,1.2-.33,2.32,2.32,0,0,1,.92.18,1.85,1.85,0,0,1,.71.52,2.29,2.29,0,0,1,.46.81,3.21,3.21,0,0,1,.16,1.07v1.66a3.31,3.31,0,0,1-.16,1.08,2.25,2.25,0,0,1-.46.82,1.85,1.85,0,0,1-.71.52,2.32,2.32,0,0,1-.92.18,2.07,2.07,0,0,1-1.2-.33,1.46,1.46,0,0,1-.6-.93h-.1a1,1,0,0,0,0,.13,2.33,2.33,0,0,1,0,.29c0,.11,0,.23,0,.36s0,.25,0,.36v2h-1.32Zm1.32,2.48v1.64a1.45,1.45,0,0,0,.37,1,1.25,1.25,0,0,0,1,.4,1.33,1.33,0,0,0,1-.4,1.45,1.45,0,0,0,.38-1.07v-1.62a1.45,1.45,0,0,0-.38-1.07,1.36,1.36,0,0,0-1-.39,1.28,1.28,0,0,0-1,.4A1.47,1.47,0,0,0,140.93,140.23Z" style="fill:#139c5a"/><path d="M146.68,140.19a2.8,2.8,0,0,1,.19-1.07,2.24,2.24,0,0,1,.55-.8,2.46,2.46,0,0,1,.88-.51,3.43,3.43,0,0,1,1.15-.18,3.47,3.47,0,0,1,1.15.18,2.6,2.6,0,0,1,.87.51,2.24,2.24,0,0,1,.55.8,3,3,0,0,1,.19,1.07v1.21H148v.47a1.46,1.46,0,0,0,.4,1.1,1.44,1.44,0,0,0,1.07.4,2.29,2.29,0,0,0,.87-.16,1,1,0,0,0,.54-.47h1.3a2.1,2.1,0,0,1-.35.72,2.35,2.35,0,0,1-.59.54,2.9,2.9,0,0,1-.8.35,3.85,3.85,0,0,1-1,.12,3.43,3.43,0,0,1-1.15-.18,2.38,2.38,0,0,1-.87-.52,2.2,2.2,0,0,1-.55-.81,2.57,2.57,0,0,1-.2-1.06Zm1.3.25h2.93v-.25a1.52,1.52,0,0,0-2.54-1.07,1.42,1.42,0,0,0-.39,1.07Z" style="fill:#139c5a"/><path d="M155.52,137.75v1.14h.11a1.45,1.45,0,0,1,.62-.93,2.11,2.11,0,0,1,1.22-.33,2.15,2.15,0,0,1,1.65.65,2.61,2.61,0,0,1,.6,1.82v.43h-1.35v-.3a1.5,1.5,0,0,0-.38-1.08,1.32,1.32,0,0,0-1-.39,1.3,1.3,0,0,0-1,.39,1.53,1.53,0,0,0-.38,1.08v4.12h-1.32v-6.6Z" style="fill:#139c5a"/><path d="M160.92,142.47a1.9,1.9,0,0,1,.67-1.53,2.71,2.71,0,0,1,1.8-.56h1.79v-.55a1,1,0,0,0-.36-.83,1.67,1.67,0,0,0-1-.29,1.82,1.82,0,0,0-.88.19.9.9,0,0,0-.48.52h-1.29a1.94,1.94,0,0,1,.87-1.31,3.17,3.17,0,0,1,1.79-.48,3.1,3.1,0,0,1,2,.58,1.91,1.91,0,0,1,.72,1.58v4.56h-1.22v-1.28h-.1a1.56,1.56,0,0,1-.7,1,2.51,2.51,0,0,1-1.41.38,2.18,2.18,0,0,1-1.57-.55A1.92,1.92,0,0,1,160.92,142.47Zm1.32-.11a1,1,0,0,0,.33.78,1.37,1.37,0,0,0,.91.27,2.43,2.43,0,0,0,.68-.09,2,2,0,0,0,.54-.27,1.4,1.4,0,0,0,.36-.41,1.13,1.13,0,0,0,.12-.51v-.83h-1.77a1.24,1.24,0,0,0-.86.28A1,1,0,0,0,162.24,142.36Z" style="fill:#139c5a"/><path d="M168.07,137.75h1.86v-2h1.32v2h2.53v1.19h-2.53v3.51a.69.69,0,0,0,.19.51.73.73,0,0,0,.54.19h1.68v1.2h-1.74a2,2,0,0,1-1.45-.52,1.81,1.81,0,0,1-.54-1.38v-3.51h-1.86Z" style="fill:#139c5a"/><path d="M175.72,143.15h2.37v-4.21H176v-1.19h3.36v5.4h1.93v1.2h-5.59Zm1.89-7.21a.77.77,0,0,1,.22-.56.84.84,0,0,1,.6-.21h.29a.84.84,0,0,1,.59.21.73.73,0,0,1,.22.56.71.71,0,0,1-.22.55.85.85,0,0,1-.61.2h-.27a.84.84,0,0,1-.6-.2A.75.75,0,0,1,177.61,135.94Z" style="fill:#139c5a"/><path d="M185.45,144.47a3.19,3.19,0,0,1-1.15-.19,2.52,2.52,0,0,1-.87-.52,2.36,2.36,0,0,1-.55-.83,2.6,2.6,0,0,1-.2-1.06v-1.65a2.65,2.65,0,0,1,.2-1.07,2.32,2.32,0,0,1,.55-.82,2.54,2.54,0,0,1,.87-.53,3.43,3.43,0,0,1,1.15-.18,3.47,3.47,0,0,1,1.15.18,2.46,2.46,0,0,1,.87.52,2.32,2.32,0,0,1,.55.82,2.76,2.76,0,0,1,.2,1.07v1.66a2.83,2.83,0,0,1-.19,1.07,2.24,2.24,0,0,1-.55.82,2.42,2.42,0,0,1-.88.52A3.23,3.23,0,0,1,185.45,144.47Zm-1.45-2.6a1.4,1.4,0,0,0,.38,1,1.65,1.65,0,0,0,2.13,0,1.4,1.4,0,0,0,.39-1v-1.65a1.39,1.39,0,0,0-.39-1.05,1.64,1.64,0,0,0-2.12,0,1.39,1.39,0,0,0-.39,1.05Z" style="fill:#139c5a"/><path d="M190,137.75h1.24v1.14h.11a1.52,1.52,0,0,1,.59-.94,2,2,0,0,1,1.18-.32,2.34,2.34,0,0,1,.91.17,2,2,0,0,1,.69.49,2,2,0,0,1,.42.75,3,3,0,0,1,.15,1v4.34H194v-4.16a1.5,1.5,0,0,0-.35-1.06,1.24,1.24,0,0,0-1-.37,1.26,1.26,0,0,0-1,.39,1.57,1.57,0,0,0-.36,1.08v4.12H190Z" style="fill:#139c5a"/><path d="M61.67,140.17a3.51,3.51,0,0,1,.15-1,2.33,2.33,0,0,1,.46-.8,2.05,2.05,0,0,1,.72-.51,2.34,2.34,0,0,1,.93-.18,2.1,2.1,0,0,1,1.23.35,1.56,1.56,0,0,1,.63,1h.09v-1.2h1.25V144a2.3,2.3,0,0,1-.72,1.79,2.83,2.83,0,0,1-2,.65h-1.7v-1.13h1.7a1.36,1.36,0,0,0,1-.35,1.27,1.27,0,0,0,.37-1v-.22l.05-1.2h-.08a1.61,1.61,0,0,1-.65,1,2,2,0,0,1-1.22.35,2.34,2.34,0,0,1-.93-.18,2.11,2.11,0,0,1-.71-.51,2.31,2.31,0,0,1-.45-.8,3.13,3.13,0,0,1-.16-1.05ZM63,141.29a1.31,1.31,0,0,0,1.4,1.42,1.31,1.31,0,0,0,1.42-1.42v-1.1a1.31,1.31,0,0,0-1.42-1.42,1.31,1.31,0,0,0-1.4,1.42Z" style="fill:#139c5a"/><path d="M68.91,140.19a3,3,0,0,1,.19-1.07,2.27,2.27,0,0,1,.56-.8,2.5,2.5,0,0,1,.87-.51,3.51,3.51,0,0,1,1.15-.18,3.43,3.43,0,0,1,1.15.18,2.5,2.5,0,0,1,.87.51,2.12,2.12,0,0,1,.55.8,2.79,2.79,0,0,1,.2,1.07v1.21H70.22v.47a1.49,1.49,0,0,0,.39,1.1,1.46,1.46,0,0,0,1.07.4,2.34,2.34,0,0,0,.88-.16,1,1,0,0,0,.54-.47h1.3a2.1,2.1,0,0,1-.35.72,2.35,2.35,0,0,1-.59.54,3,3,0,0,1-.81.35,3.74,3.74,0,0,1-1,.12,3.41,3.41,0,0,1-1.14-.18,2.38,2.38,0,0,1-.87-.52,2.22,2.22,0,0,1-.56-.81,2.74,2.74,0,0,1-.2-1.06Zm1.31.25h2.93v-.25a1.47,1.47,0,1,0-2.93,0Z" style="fill:#139c5a"/><path d="M78.88,144.47a3.17,3.17,0,0,1-1.14-.19,2.52,2.52,0,0,1-.87-.52,2.39,2.39,0,0,1-.56-.83,2.78,2.78,0,0,1-.2-1.06v-1.65a2.83,2.83,0,0,1,.2-1.07,2.35,2.35,0,0,1,.56-.82,2.54,2.54,0,0,1,.87-.53,3.73,3.73,0,0,1,2.29,0,2.38,2.38,0,0,1,.87.52,2.35,2.35,0,0,1,.56.82,2.76,2.76,0,0,1,.2,1.07v1.66a2.83,2.83,0,0,1-.2,1.07,2.12,2.12,0,0,1-.55.82,2.38,2.38,0,0,1-.87.52A3.28,3.28,0,0,1,78.88,144.47Zm-1.45-2.6a1.35,1.35,0,0,0,1.45,1.44,1.45,1.45,0,0,0,1.07-.39,1.4,1.4,0,0,0,.39-1v-1.65a1.39,1.39,0,0,0-.39-1.05,1.65,1.65,0,0,0-2.13,0,1.39,1.39,0,0,0-.39,1.05Z" style="fill:#139c5a"/><path d="M83.14,144.35v-6.6h1.1v1h.09a1.24,1.24,0,0,1,.32-.8,1,1,0,0,1,.76-.29.91.91,0,0,1,.72.28,1.62,1.62,0,0,1,.39.81h.08a1.15,1.15,0,0,1,.33-.8,1,1,0,0,1,.77-.29,1.19,1.19,0,0,1,1,.45,1.93,1.93,0,0,1,.37,1.24v5H87.82v-5a1,1,0,0,0-.15-.59.57.57,0,0,0-.46-.2q-.63,0-.63.84v4.92h-1v-5a.94.94,0,0,0-.16-.59.63.63,0,0,0-.48-.2q-.63,0-.63.84v4.92Z" style="fill:#139c5a"/><path d="M90.51,140.19a3,3,0,0,1,.19-1.07,2.27,2.27,0,0,1,.56-.8,2.5,2.5,0,0,1,.87-.51,3.51,3.51,0,0,1,1.15-.18,3.43,3.43,0,0,1,1.15.18,2.5,2.5,0,0,1,.87.51,2.12,2.12,0,0,1,.55.8,2.79,2.79,0,0,1,.2,1.07v1.21H91.82v.47a1.49,1.49,0,0,0,.39,1.1,1.46,1.46,0,0,0,1.07.4,2.34,2.34,0,0,0,.88-.16,1,1,0,0,0,.54-.47H96a2.1,2.1,0,0,1-.35.72,2.35,2.35,0,0,1-.59.54,3,3,0,0,1-.81.35,3.74,3.74,0,0,1-1,.12,3.41,3.41,0,0,1-1.14-.18,2.38,2.38,0,0,1-.87-.52,2.22,2.22,0,0,1-.56-.81,2.74,2.74,0,0,1-.2-1.06Zm1.31.25h2.93v-.25a1.35,1.35,0,0,0-1.47-1.46,1.34,1.34,0,0,0-1.46,1.46Z" style="fill:#139c5a"/><path d="M97.51,137.75h1.86v-2h1.32v2h2.53v1.19h-2.53v3.51a.66.66,0,0,0,.19.51.73.73,0,0,0,.54.19h1.68v1.2h-1.74a2,2,0,0,1-1.46-.52,1.84,1.84,0,0,1-.53-1.38v-3.51H97.51Z" style="fill:#139c5a"/><path d="M106.56,137.75v1.14h.1a1.48,1.48,0,0,1,.62-.93,2.14,2.14,0,0,1,1.22-.33,2.17,2.17,0,0,1,1.66.65,2.61,2.61,0,0,1,.6,1.82v.43H109.4v-.3a1.49,1.49,0,0,0-.37-1.08,1.35,1.35,0,0,0-1-.39,1.33,1.33,0,0,0-1,.39,1.52,1.52,0,0,0-.37,1.08v4.12h-1.32v-6.6Z" style="fill:#139c5a"/><path d="M111.79,137.75h1.44l1.39,3.64a4.26,4.26,0,0,1,.15.47,4.31,4.31,0,0,1,.09.44l.06.43h.1a3.28,3.28,0,0,1,0-.43c0-.13.06-.27.09-.43s.09-.32.14-.48l1.3-3.64H118l-3.17,8.64h-1.39l.91-2.46Z" style="fill:#139c5a"/></svg>