<?xml version="1.0" encoding="utf-8" standalone="no"?>
<!DOCTYPE svg PUBLIC "-//W3C//DTD SVG 1.1//EN"
  "http://www.w3.org/Graphics/SVG/1.1/DTD/svg11.dtd">
<!-- Created with matplotlib (https://matplotlib.org/) -->
<svg height="864pt" version="1.1" viewBox="0 0 864 864" width="864pt" xmlns="http://www.w3.org/2000/svg" xmlns:xlink="http://www.w3.org/1999/xlink">
 <metadata>
  <rdf:RDF xmlns:cc="http://creativecommons.org/ns#" xmlns:dc="http://purl.org/dc/elements/1.1/" xmlns:rdf="http://www.w3.org/1999/02/22-rdf-syntax-ns#">
   <cc:Work>
    <dc:type rdf:resource="http://purl.org/dc/dcmitype/StillImage"/>
    <dc:date>2020-12-12T22:09:26.486161</dc:date>
    <dc:format>image/svg+xml</dc:format>
    <dc:creator>
     <cc:Agent>
      <dc:title>Matplotlib v3.3.2, https://matplotlib.org/</dc:title>
     </cc:Agent>
    </dc:creator>
   </cc:Work>
  </rdf:RDF>
 </metadata>
 <defs>
  <style type="text/css">*{stroke-linecap:butt;stroke-linejoin:round;}</style>
 </defs>
 <g id="figure_1">
  <g id="patch_1">
   <path d="M 0 864 
L 864 864 
L 864 0 
L 0 0 
z
" style="fill:none;"/>
  </g>
  <g id="axes_1">
   <g id="patch_2">
    <path d="M 115.177746 295.538824 
L 405.185891 295.538824 
L 405.185891 103.68 
L 115.177746 103.68 
z
" style="fill:#ffffff;"/>
   </g>
   <g id="PatchCollection_1">
    <path clip-path="url(#p8beae937eb)" d="M 316.557494 258.421149 
L 375.369231 199.609412 
L 316.557494 140.797674 
L 316.557494 258.421149 
" style="fill:#1f77b4;"/>
   </g>
   <g id="PathCollection_1">
    <defs>
     <path d="M 0 3 
C 0.795609 3 1.55874 2.683901 2.12132 2.12132 
C 2.683901 1.55874 3 0.795609 3 0 
C 3 -0.795609 2.683901 -1.55874 2.12132 -2.12132 
C 1.55874 -2.683901 0.795609 -3 0 -3 
C -0.795609 -3 -1.55874 -2.683901 -2.12132 -2.12132 
C -2.683901 -1.55874 -3 -0.795609 -3 0 
C -3 0.795609 -2.683901 1.55874 -2.12132 2.12132 
C -1.55874 2.683901 -0.795609 3 0 3 
z
" id="m5566cd2d04" style="stroke:#1f77b4;"/>
    </defs>
    <g clip-path="url(#p8beae937eb)">
     <use style="fill:#1f77b4;stroke:#1f77b4;" x="140.122282" xlink:href="#m5566cd2d04" y="199.609412"/>
    </g>
   </g>
   <g id="PatchCollection_2">
    <path clip-path="url(#p8beae937eb)" d="M 151.884629 199.609412 
L 151.82799 200.762323 
L 151.658619 201.904132 
L 151.378146 203.023841 
L 150.989274 204.110667 
L 150.495746 205.154144 
L 149.902316 206.144222 
L 149.214699 207.071366 
L 148.439517 207.926647 
L 147.584236 208.701829 
L 146.657092 209.389446 
L 145.667014 209.982876 
L 144.623537 210.476404 
L 143.536711 210.865277 
L 142.417002 211.145749 
L 141.275193 211.31512 
L 140.122282 211.371759 
L 138.96937 211.31512 
L 137.827561 211.145749 
L 136.707852 210.865277 
L 135.621026 210.476404 
L 134.577549 209.982876 
L 133.587471 209.389446 
L 132.660327 208.701829 
L 131.805046 207.926647 
L 131.029864 207.071366 
L 130.342247 206.144222 
L 129.748817 205.154144 
L 129.255289 204.110667 
L 128.866417 203.023841 
L 128.585944 201.904132 
L 128.416573 200.762323 
L 128.359934 199.609412 
L 128.416573 198.4565 
L 128.585944 197.314692 
L 128.866417 196.194983 
L 129.255289 195.108156 
L 129.748817 194.06468 
L 130.342247 193.074602 
L 131.029864 192.147458 
L 131.805046 191.292176 
L 132.660327 190.516994 
L 133.587471 189.829377 
L 134.577549 189.235947 
L 135.621026 188.74242 
L 136.707852 188.353547 
L 137.827561 188.073075 
L 138.96937 187.903703 
L 140.122282 187.847064 
L 141.275193 187.903703 
L 142.417002 188.073075 
L 143.536711 188.353547 
L 144.623537 188.74242 
L 145.667014 189.235947 
L 146.657092 189.829377 
L 147.584236 190.516994 
L 148.439517 191.292176 
L 149.214699 192.147458 
L 149.902316 193.074602 
L 150.495746 194.06468 
L 150.989274 195.108156 
L 151.378146 196.194983 
L 151.658619 197.314692 
L 151.82799 198.4565 
L 151.884629 199.609412 
L 151.884629 199.609412 
" style="fill:#1f77b4;fill-opacity:0.6;"/>
    <path clip-path="url(#p8beae937eb)" d="M 187.171671 199.609412 
L 187.22831 198.4565 
L 187.397682 197.314692 
L 187.678154 196.194983 
L 188.067027 195.108156 
L 188.560555 194.06468 
L 189.153984 193.074602 
L 189.841601 192.147458 
L 190.616783 191.292176 
L 191.472065 190.516994 
L 192.399209 189.829377 
L 193.389287 189.235947 
L 194.432763 188.74242 
L 195.51959 188.353547 
L 196.639299 188.073075 
L 197.781107 187.903703 
L 198.934019 187.847064 
L 245.983409 187.847064 
L 245.983409 140.797674 
L 246.040048 139.644763 
L 246.209419 138.502954 
L 246.489892 137.383245 
L 246.878764 136.296419 
L 247.372292 135.252942 
L 247.965722 134.262864 
L 248.653339 133.33572 
L 249.428521 132.480439 
L 250.283802 131.705257 
L 251.210946 131.01764 
L 252.201024 130.42421 
L 253.244501 129.930682 
L 254.331327 129.54181 
L 255.451036 129.261337 
L 256.592845 129.091966 
L 257.745756 129.035327 
L 258.898668 129.091966 
L 260.040476 129.261337 
L 261.160185 129.54181 
L 262.247012 129.930682 
L 263.290488 130.42421 
L 264.280566 131.01764 
L 265.20771 131.705257 
L 266.062992 132.480439 
L 266.838174 133.33572 
L 267.525791 134.262864 
L 268.119221 135.252942 
L 268.612748 136.296419 
L 269.001621 137.383245 
L 269.282094 138.502954 
L 269.451465 139.644763 
L 269.508104 140.797674 
L 269.508104 199.609412 
L 269.451465 200.762323 
L 269.282094 201.904132 
L 269.001621 203.023841 
L 268.612748 204.110667 
L 268.119221 205.154144 
L 267.525791 206.144222 
L 266.838174 207.071366 
L 266.062992 207.926647 
L 265.20771 208.701829 
L 264.280566 209.389446 
L 263.290488 209.982876 
L 262.247012 210.476404 
L 261.160185 210.865277 
L 260.040476 211.145749 
L 258.898668 211.31512 
L 257.745756 211.371759 
L 210.696366 211.371759 
L 210.696366 258.421149 
L 210.639727 259.574061 
L 210.470356 260.715869 
L 210.189884 261.835578 
L 209.801011 262.922405 
L 209.307483 263.965881 
L 208.714053 264.955959 
L 208.026436 265.883103 
L 207.251255 266.738385 
L 206.395973 267.513567 
L 205.468829 268.201184 
L 204.478751 268.794613 
L 203.435274 269.288141 
L 202.348448 269.677014 
L 201.228739 269.957486 
L 200.086931 270.126858 
L 198.934019 270.183497 
L 197.781107 270.126858 
L 196.639299 269.957486 
L 195.51959 269.677014 
L 194.432763 269.288141 
L 193.389287 268.794613 
L 192.399209 268.201184 
L 191.472065 267.513567 
L 190.616783 266.738385 
L 189.841601 265.883103 
L 189.153984 264.955959 
L 188.560555 263.965881 
L 188.067027 262.922405 
L 187.678154 261.835578 
L 187.397682 260.715869 
L 187.22831 259.574061 
L 187.171671 258.421149 
L 187.171671 199.609412 
" style="fill:#1f77b4;fill-opacity:0.6;"/>
    <path clip-path="url(#p8beae937eb)" d="M 304.795146 258.421149 
L 304.795146 140.797674 
L 304.851785 139.644763 
L 305.021156 138.502954 
L 305.301629 137.383245 
L 305.690502 136.296419 
L 306.184029 135.252942 
L 306.777459 134.262864 
L 307.465076 133.33572 
L 308.240258 132.480439 
L 309.095539 131.705257 
L 310.022683 131.01764 
L 311.012761 130.42421 
L 312.056238 129.930682 
L 313.143064 129.54181 
L 314.262773 129.261337 
L 315.404582 129.091966 
L 316.557494 129.035327 
L 317.710405 129.091966 
L 318.852214 129.261337 
L 319.971923 129.54181 
L 321.058749 129.930682 
L 322.102226 130.42421 
L 323.092304 131.01764 
L 324.019448 131.705257 
L 324.874729 132.480439 
L 383.686467 191.292176 
L 384.461649 192.147458 
L 385.149265 193.074602 
L 385.742695 194.06468 
L 386.236223 195.108156 
L 386.625096 196.194983 
L 386.905568 197.314692 
L 387.07494 198.4565 
L 387.131578 199.609412 
L 387.07494 200.762323 
L 386.905568 201.904132 
L 386.625096 203.023841 
L 386.236223 204.110667 
L 385.742695 205.154144 
L 385.149265 206.144222 
L 384.461649 207.071366 
L 383.686467 207.926647 
L 324.874729 266.738385 
L 324.019448 267.513567 
L 323.092304 268.201184 
L 322.102226 268.794613 
L 321.058749 269.288141 
L 319.971923 269.677014 
L 318.852214 269.957486 
L 317.710405 270.126858 
L 316.557494 270.183497 
L 315.404582 270.126858 
L 314.262773 269.957486 
L 313.143064 269.677014 
L 312.056238 269.288141 
L 311.012761 268.794613 
L 310.022683 268.201184 
L 309.095539 267.513567 
L 308.240258 266.738385 
L 307.465076 265.883103 
L 306.777459 264.955959 
L 306.184029 263.965881 
L 305.690502 262.922405 
L 305.301629 261.835578 
L 305.021156 260.715869 
L 304.851785 259.574061 
L 304.795146 258.421149 
" style="fill:#1f77b4;fill-opacity:0.6;"/>
   </g>
   <g id="matplotlib.axis_1">
    <g id="xtick_1">
     <g id="line2d_1">
      <defs>
       <path d="M 0 0 
L 0 3.5 
" id="m29f5844d4d" style="stroke:#000000;stroke-width:0.8;"/>
      </defs>
      <g>
       <use style="stroke:#000000;stroke-width:0.8;" x="140.122282" xlink:href="#m29f5844d4d" y="295.538824"/>
      </g>
     </g>
    </g>
    <g id="xtick_2">
     <g id="line2d_2">
      <g>
       <use style="stroke:#000000;stroke-width:0.8;" x="198.934019" xlink:href="#m29f5844d4d" y="295.538824"/>
      </g>
     </g>
    </g>
    <g id="xtick_3">
     <g id="line2d_3">
      <g>
       <use style="stroke:#000000;stroke-width:0.8;" x="257.745756" xlink:href="#m29f5844d4d" y="295.538824"/>
      </g>
     </g>
    </g>
    <g id="xtick_4">
     <g id="line2d_4">
      <g>
       <use style="stroke:#000000;stroke-width:0.8;" x="316.557494" xlink:href="#m29f5844d4d" y="295.538824"/>
      </g>
     </g>
    </g>
    <g id="xtick_5">
     <g id="line2d_5">
      <g>
       <use style="stroke:#000000;stroke-width:0.8;" x="375.369231" xlink:href="#m29f5844d4d" y="295.538824"/>
      </g>
     </g>
    </g>
   </g>
   <g id="matplotlib.axis_2">
    <g id="ytick_1">
     <g id="line2d_6">
      <defs>
       <path d="M 0 0 
L -3.5 0 
" id="mb94f7f7cb9" style="stroke:#000000;stroke-width:0.8;"/>
      </defs>
      <g>
       <use style="stroke:#000000;stroke-width:0.8;" x="115.177746" xlink:href="#mb94f7f7cb9" y="287.827018"/>
      </g>
     </g>
     <g id="text_1">
      <!-- −1.5 -->
      <g transform="translate(83.894933 291.626237)scale(0.1 -0.1)">
       <defs>
        <path d="M 10.59375 35.5 
L 73.1875 35.5 
L 73.1875 27.203125 
L 10.59375 27.203125 
z
" id="DejaVuSans-8722"/>
        <path d="M 12.40625 8.296875 
L 28.515625 8.296875 
L 28.515625 63.921875 
L 10.984375 60.40625 
L 10.984375 69.390625 
L 28.421875 72.90625 
L 38.28125 72.90625 
L 38.28125 8.296875 
L 54.390625 8.296875 
L 54.390625 0 
L 12.40625 0 
z
" id="DejaVuSans-49"/>
        <path d="M 10.6875 12.40625 
L 21 12.40625 
L 21 0 
L 10.6875 0 
z
" id="DejaVuSans-46"/>
        <path d="M 10.796875 72.90625 
L 49.515625 72.90625 
L 49.515625 64.59375 
L 19.828125 64.59375 
L 19.828125 46.734375 
Q 21.96875 47.46875 24.109375 47.828125 
Q 26.265625 48.1875 28.421875 48.1875 
Q 40.625 48.1875 47.75 41.5 
Q 54.890625 34.8125 54.890625 23.390625 
Q 54.890625 11.625 47.5625 5.09375 
Q 40.234375 -1.421875 26.90625 -1.421875 
Q 22.3125 -1.421875 17.546875 -0.640625 
Q 12.796875 0.140625 7.71875 1.703125 
L 7.71875 11.625 
Q 12.109375 9.234375 16.796875 8.0625 
Q 21.484375 6.890625 26.703125 6.890625 
Q 35.15625 6.890625 40.078125 11.328125 
Q 45.015625 15.765625 45.015625 23.390625 
Q 45.015625 31 40.078125 35.4375 
Q 35.15625 39.890625 26.703125 39.890625 
Q 22.75 39.890625 18.8125 39.015625 
Q 14.890625 38.140625 10.796875 36.28125 
z
" id="DejaVuSans-53"/>
       </defs>
       <use xlink:href="#DejaVuSans-8722"/>
       <use x="83.789062" xlink:href="#DejaVuSans-49"/>
       <use x="147.412109" xlink:href="#DejaVuSans-46"/>
       <use x="179.199219" xlink:href="#DejaVuSans-53"/>
      </g>
     </g>
    </g>
    <g id="ytick_2">
     <g id="line2d_7">
      <g>
       <use style="stroke:#000000;stroke-width:0.8;" x="115.177746" xlink:href="#mb94f7f7cb9" y="258.421149"/>
      </g>
     </g>
     <g id="text_2">
      <!-- −1.0 -->
      <g transform="translate(83.894933 262.220368)scale(0.1 -0.1)">
       <defs>
        <path d="M 31.78125 66.40625 
Q 24.171875 66.40625 20.328125 58.90625 
Q 16.5 51.421875 16.5 36.375 
Q 16.5 21.390625 20.328125 13.890625 
Q 24.171875 6.390625 31.78125 6.390625 
Q 39.453125 6.390625 43.28125 13.890625 
Q 47.125 21.390625 47.125 36.375 
Q 47.125 51.421875 43.28125 58.90625 
Q 39.453125 66.40625 31.78125 66.40625 
z
M 31.78125 74.21875 
Q 44.046875 74.21875 50.515625 64.515625 
Q 56.984375 54.828125 56.984375 36.375 
Q 56.984375 17.96875 50.515625 8.265625 
Q 44.046875 -1.421875 31.78125 -1.421875 
Q 19.53125 -1.421875 13.0625 8.265625 
Q 6.59375 17.96875 6.59375 36.375 
Q 6.59375 54.828125 13.0625 64.515625 
Q 19.53125 74.21875 31.78125 74.21875 
z
" id="DejaVuSans-48"/>
       </defs>
       <use xlink:href="#DejaVuSans-8722"/>
       <use x="83.789062" xlink:href="#DejaVuSans-49"/>
       <use x="147.412109" xlink:href="#DejaVuSans-46"/>
       <use x="179.199219" xlink:href="#DejaVuSans-48"/>
      </g>
     </g>
    </g>
    <g id="ytick_3">
     <g id="line2d_8">
      <g>
       <use style="stroke:#000000;stroke-width:0.8;" x="115.177746" xlink:href="#mb94f7f7cb9" y="229.01528"/>
      </g>
     </g>
     <g id="text_3">
      <!-- −0.5 -->
      <g transform="translate(83.894933 232.814499)scale(0.1 -0.1)">
       <use xlink:href="#DejaVuSans-8722"/>
       <use x="83.789062" xlink:href="#DejaVuSans-48"/>
       <use x="147.412109" xlink:href="#DejaVuSans-46"/>
       <use x="179.199219" xlink:href="#DejaVuSans-53"/>
      </g>
     </g>
    </g>
    <g id="ytick_4">
     <g id="line2d_9">
      <g>
       <use style="stroke:#000000;stroke-width:0.8;" x="115.177746" xlink:href="#mb94f7f7cb9" y="199.609412"/>
      </g>
     </g>
     <g id="text_4">
      <!-- 0.0 -->
      <g transform="translate(92.274621 203.408631)scale(0.1 -0.1)">
       <use xlink:href="#DejaVuSans-48"/>
       <use x="63.623047" xlink:href="#DejaVuSans-46"/>
       <use x="95.410156" xlink:href="#DejaVuSans-48"/>
      </g>
     </g>
    </g>
    <g id="ytick_5">
     <g id="line2d_10">
      <g>
       <use style="stroke:#000000;stroke-width:0.8;" x="115.177746" xlink:href="#mb94f7f7cb9" y="170.203543"/>
      </g>
     </g>
     <g id="text_5">
      <!-- 0.5 -->
      <g transform="translate(92.274621 174.002762)scale(0.1 -0.1)">
       <use xlink:href="#DejaVuSans-48"/>
       <use x="63.623047" xlink:href="#DejaVuSans-46"/>
       <use x="95.410156" xlink:href="#DejaVuSans-53"/>
      </g>
     </g>
    </g>
    <g id="ytick_6">
     <g id="line2d_11">
      <g>
       <use style="stroke:#000000;stroke-width:0.8;" x="115.177746" xlink:href="#mb94f7f7cb9" y="140.797674"/>
      </g>
     </g>
     <g id="text_6">
      <!-- 1.0 -->
      <g transform="translate(92.274621 144.596893)scale(0.1 -0.1)">
       <use xlink:href="#DejaVuSans-49"/>
       <use x="63.623047" xlink:href="#DejaVuSans-46"/>
       <use x="95.410156" xlink:href="#DejaVuSans-48"/>
      </g>
     </g>
    </g>
    <g id="ytick_7">
     <g id="line2d_12">
      <g>
       <use style="stroke:#000000;stroke-width:0.8;" x="115.177746" xlink:href="#mb94f7f7cb9" y="111.391806"/>
      </g>
     </g>
     <g id="text_7">
      <!-- 1.5 -->
      <g transform="translate(92.274621 115.191024)scale(0.1 -0.1)">
       <use xlink:href="#DejaVuSans-49"/>
       <use x="63.623047" xlink:href="#DejaVuSans-46"/>
       <use x="95.410156" xlink:href="#DejaVuSans-53"/>
      </g>
     </g>
    </g>
   </g>
   <g id="LineCollection_1">
    <path clip-path="url(#p8beae937eb)" d="M 198.934019 258.421149 
L 198.934019 199.609412 
L 257.745756 199.609412 
L 257.745756 140.797674 
" style="fill:none;stroke:#1f77b4;stroke-width:1.5;"/>
   </g>
   <g id="patch_3">
    <path d="M 115.177746 295.538824 
L 115.177746 103.68 
" style="fill:none;stroke:#000000;stroke-linecap:square;stroke-linejoin:miter;stroke-width:0.8;"/>
   </g>
   <g id="patch_4">
    <path d="M 405.185891 295.538824 
L 405.185891 103.68 
" style="fill:none;stroke:#000000;stroke-linecap:square;stroke-linejoin:miter;stroke-width:0.8;"/>
   </g>
   <g id="patch_5">
    <path d="M 115.177746 295.538824 
L 405.185891 295.538824 
" style="fill:none;stroke:#000000;stroke-linecap:square;stroke-linejoin:miter;stroke-width:0.8;"/>
   </g>
   <g id="patch_6">
    <path d="M 115.177746 103.68 
L 405.185891 103.68 
" style="fill:none;stroke:#000000;stroke-linecap:square;stroke-linejoin:miter;stroke-width:0.8;"/>
   </g>
   <g id="text_8">
    <!-- s.buffer(0.2) -->
    <g transform="translate(222.931193 97.68)scale(0.12 -0.12)">
     <defs>
      <path d="M 44.28125 53.078125 
L 44.28125 44.578125 
Q 40.484375 46.53125 36.375 47.5 
Q 32.28125 48.484375 27.875 48.484375 
Q 21.1875 48.484375 17.84375 46.4375 
Q 14.5 44.390625 14.5 40.28125 
Q 14.5 37.15625 16.890625 35.375 
Q 19.28125 33.59375 26.515625 31.984375 
L 29.59375 31.296875 
Q 39.15625 29.25 43.1875 25.515625 
Q 47.21875 21.78125 47.21875 15.09375 
Q 47.21875 7.46875 41.1875 3.015625 
Q 35.15625 -1.421875 24.609375 -1.421875 
Q 20.21875 -1.421875 15.453125 -0.5625 
Q 10.6875 0.296875 5.421875 2 
L 5.421875 11.28125 
Q 10.40625 8.6875 15.234375 7.390625 
Q 20.0625 6.109375 24.8125 6.109375 
Q 31.15625 6.109375 34.5625 8.28125 
Q 37.984375 10.453125 37.984375 14.40625 
Q 37.984375 18.0625 35.515625 20.015625 
Q 33.0625 21.96875 24.703125 23.78125 
L 21.578125 24.515625 
Q 13.234375 26.265625 9.515625 29.90625 
Q 5.8125 33.546875 5.8125 39.890625 
Q 5.8125 47.609375 11.28125 51.796875 
Q 16.75 56 26.8125 56 
Q 31.78125 56 36.171875 55.265625 
Q 40.578125 54.546875 44.28125 53.078125 
z
" id="DejaVuSans-115"/>
      <path d="M 48.6875 27.296875 
Q 48.6875 37.203125 44.609375 42.84375 
Q 40.53125 48.484375 33.40625 48.484375 
Q 26.265625 48.484375 22.1875 42.84375 
Q 18.109375 37.203125 18.109375 27.296875 
Q 18.109375 17.390625 22.1875 11.75 
Q 26.265625 6.109375 33.40625 6.109375 
Q 40.53125 6.109375 44.609375 11.75 
Q 48.6875 17.390625 48.6875 27.296875 
z
M 18.109375 46.390625 
Q 20.953125 51.265625 25.265625 53.625 
Q 29.59375 56 35.59375 56 
Q 45.5625 56 51.78125 48.09375 
Q 58.015625 40.1875 58.015625 27.296875 
Q 58.015625 14.40625 51.78125 6.484375 
Q 45.5625 -1.421875 35.59375 -1.421875 
Q 29.59375 -1.421875 25.265625 0.953125 
Q 20.953125 3.328125 18.109375 8.203125 
L 18.109375 0 
L 9.078125 0 
L 9.078125 75.984375 
L 18.109375 75.984375 
z
" id="DejaVuSans-98"/>
      <path d="M 8.5 21.578125 
L 8.5 54.6875 
L 17.484375 54.6875 
L 17.484375 21.921875 
Q 17.484375 14.15625 20.5 10.265625 
Q 23.53125 6.390625 29.59375 6.390625 
Q 36.859375 6.390625 41.078125 11.03125 
Q 45.3125 15.671875 45.3125 23.6875 
L 45.3125 54.6875 
L 54.296875 54.6875 
L 54.296875 0 
L 45.3125 0 
L 45.3125 8.40625 
Q 42.046875 3.421875 37.71875 1 
Q 33.40625 -1.421875 27.6875 -1.421875 
Q 18.265625 -1.421875 13.375 4.4375 
Q 8.5 10.296875 8.5 21.578125 
z
M 31.109375 56 
z
" id="DejaVuSans-117"/>
      <path d="M 37.109375 75.984375 
L 37.109375 68.5 
L 28.515625 68.5 
Q 23.6875 68.5 21.796875 66.546875 
Q 19.921875 64.59375 19.921875 59.515625 
L 19.921875 54.6875 
L 34.71875 54.6875 
L 34.71875 47.703125 
L 19.921875 47.703125 
L 19.921875 0 
L 10.890625 0 
L 10.890625 47.703125 
L 2.296875 47.703125 
L 2.296875 54.6875 
L 10.890625 54.6875 
L 10.890625 58.5 
Q 10.890625 67.625 15.140625 71.796875 
Q 19.390625 75.984375 28.609375 75.984375 
z
" id="DejaVuSans-102"/>
      <path d="M 56.203125 29.59375 
L 56.203125 25.203125 
L 14.890625 25.203125 
Q 15.484375 15.921875 20.484375 11.0625 
Q 25.484375 6.203125 34.421875 6.203125 
Q 39.59375 6.203125 44.453125 7.46875 
Q 49.3125 8.734375 54.109375 11.28125 
L 54.109375 2.78125 
Q 49.265625 0.734375 44.1875 -0.34375 
Q 39.109375 -1.421875 33.890625 -1.421875 
Q 20.796875 -1.421875 13.15625 6.1875 
Q 5.515625 13.8125 5.515625 26.8125 
Q 5.515625 40.234375 12.765625 48.109375 
Q 20.015625 56 32.328125 56 
Q 43.359375 56 49.78125 48.890625 
Q 56.203125 41.796875 56.203125 29.59375 
z
M 47.21875 32.234375 
Q 47.125 39.59375 43.09375 43.984375 
Q 39.0625 48.390625 32.421875 48.390625 
Q 24.90625 48.390625 20.390625 44.140625 
Q 15.875 39.890625 15.1875 32.171875 
z
" id="DejaVuSans-101"/>
      <path d="M 41.109375 46.296875 
Q 39.59375 47.171875 37.8125 47.578125 
Q 36.03125 48 33.890625 48 
Q 26.265625 48 22.1875 43.046875 
Q 18.109375 38.09375 18.109375 28.8125 
L 18.109375 0 
L 9.078125 0 
L 9.078125 54.6875 
L 18.109375 54.6875 
L 18.109375 46.1875 
Q 20.953125 51.171875 25.484375 53.578125 
Q 30.03125 56 36.53125 56 
Q 37.453125 56 38.578125 55.875 
Q 39.703125 55.765625 41.0625 55.515625 
z
" id="DejaVuSans-114"/>
      <path d="M 31 75.875 
Q 24.46875 64.65625 21.28125 53.65625 
Q 18.109375 42.671875 18.109375 31.390625 
Q 18.109375 20.125 21.3125 9.0625 
Q 24.515625 -2 31 -13.1875 
L 23.1875 -13.1875 
Q 15.875 -1.703125 12.234375 9.375 
Q 8.59375 20.453125 8.59375 31.390625 
Q 8.59375 42.28125 12.203125 53.3125 
Q 15.828125 64.359375 23.1875 75.875 
z
" id="DejaVuSans-40"/>
      <path d="M 19.1875 8.296875 
L 53.609375 8.296875 
L 53.609375 0 
L 7.328125 0 
L 7.328125 8.296875 
Q 12.9375 14.109375 22.625 23.890625 
Q 32.328125 33.6875 34.8125 36.53125 
Q 39.546875 41.84375 41.421875 45.53125 
Q 43.3125 49.21875 43.3125 52.78125 
Q 43.3125 58.59375 39.234375 62.25 
Q 35.15625 65.921875 28.609375 65.921875 
Q 23.96875 65.921875 18.8125 64.3125 
Q 13.671875 62.703125 7.8125 59.421875 
L 7.8125 69.390625 
Q 13.765625 71.78125 18.9375 73 
Q 24.125 74.21875 28.421875 74.21875 
Q 39.75 74.21875 46.484375 68.546875 
Q 53.21875 62.890625 53.21875 53.421875 
Q 53.21875 48.921875 51.53125 44.890625 
Q 49.859375 40.875 45.40625 35.40625 
Q 44.1875 33.984375 37.640625 27.21875 
Q 31.109375 20.453125 19.1875 8.296875 
z
" id="DejaVuSans-50"/>
      <path d="M 8.015625 75.875 
L 15.828125 75.875 
Q 23.140625 64.359375 26.78125 53.3125 
Q 30.421875 42.28125 30.421875 31.390625 
Q 30.421875 20.453125 26.78125 9.375 
Q 23.140625 -1.703125 15.828125 -13.1875 
L 8.015625 -13.1875 
Q 14.5 -2 17.703125 9.0625 
Q 20.90625 20.125 20.90625 31.390625 
Q 20.90625 42.671875 17.703125 53.65625 
Q 14.5 64.65625 8.015625 75.875 
z
" id="DejaVuSans-41"/>
     </defs>
     <use xlink:href="#DejaVuSans-115"/>
     <use x="52.099609" xlink:href="#DejaVuSans-46"/>
     <use x="83.886719" xlink:href="#DejaVuSans-98"/>
     <use x="147.363281" xlink:href="#DejaVuSans-117"/>
     <use x="210.742188" xlink:href="#DejaVuSans-102"/>
     <use x="245.947266" xlink:href="#DejaVuSans-102"/>
     <use x="281.152344" xlink:href="#DejaVuSans-101"/>
     <use x="342.675781" xlink:href="#DejaVuSans-114"/>
     <use x="383.789062" xlink:href="#DejaVuSans-40"/>
     <use x="422.802734" xlink:href="#DejaVuSans-48"/>
     <use x="486.425781" xlink:href="#DejaVuSans-46"/>
     <use x="518.212891" xlink:href="#DejaVuSans-50"/>
     <use x="581.835938" xlink:href="#DejaVuSans-41"/>
    </g>
   </g>
  </g>
  <g id="axes_2">
   <g id="patch_7">
    <path d="M 480.414109 295.538824 
L 770.422254 295.538824 
L 770.422254 103.68 
L 480.414109 103.68 
z
" style="fill:#ffffff;"/>
   </g>
   <g id="PatchCollection_3">
    <path clip-path="url(#p8108b882b4)" d="M 681.793857 258.421149 
L 740.605595 199.609412 
L 681.793857 140.797674 
L 681.793857 258.421149 
" style="fill:#1f77b4;"/>
   </g>
   <g id="PathCollection_2">
    <g clip-path="url(#p8108b882b4)">
     <use style="fill:#1f77b4;stroke:#1f77b4;" x="505.358645" xlink:href="#m5566cd2d04" y="199.609412"/>
    </g>
   </g>
   <g id="PatchCollection_4">
    <path clip-path="url(#p8108b882b4)" d="M 517.120993 199.609412 
L 513.675881 207.926647 
L 505.358645 211.371759 
L 497.04141 207.926647 
L 493.596298 199.609412 
L 497.04141 191.292176 
L 505.358645 187.847064 
L 513.675881 191.292176 
L 517.120993 199.609412 
" style="fill:#1f77b4;fill-opacity:0.6;"/>
    <path clip-path="url(#p8108b882b4)" d="M 552.408035 199.609412 
L 555.853147 191.292176 
L 564.170383 187.847064 
L 611.219772 187.847064 
L 611.219772 140.797674 
L 614.664884 132.480439 
L 622.98212 129.035327 
L 631.299356 132.480439 
L 634.744467 140.797674 
L 634.744467 199.609412 
L 631.299356 207.926647 
L 622.98212 211.371759 
L 575.93273 211.371759 
L 575.93273 258.421149 
L 572.487618 266.738385 
L 564.170383 270.183497 
L 555.853147 266.738385 
L 552.408035 258.421149 
L 552.408035 199.609412 
" style="fill:#1f77b4;fill-opacity:0.6;"/>
    <path clip-path="url(#p8108b882b4)" d="M 670.03151 258.421149 
L 670.03151 140.797674 
L 673.476622 132.480439 
L 681.793857 129.035327 
L 690.111093 132.480439 
L 748.92283 191.292176 
L 752.367942 199.609412 
L 748.92283 207.926647 
L 690.111093 266.738385 
L 681.793857 270.183497 
L 673.476622 266.738385 
L 670.03151 258.421149 
" style="fill:#1f77b4;fill-opacity:0.6;"/>
   </g>
   <g id="matplotlib.axis_3">
    <g id="xtick_6">
     <g id="line2d_13">
      <g>
       <use style="stroke:#000000;stroke-width:0.8;" x="505.358645" xlink:href="#m29f5844d4d" y="295.538824"/>
      </g>
     </g>
    </g>
    <g id="xtick_7">
     <g id="line2d_14">
      <g>
       <use style="stroke:#000000;stroke-width:0.8;" x="564.170383" xlink:href="#m29f5844d4d" y="295.538824"/>
      </g>
     </g>
    </g>
    <g id="xtick_8">
     <g id="line2d_15">
      <g>
       <use style="stroke:#000000;stroke-width:0.8;" x="622.98212" xlink:href="#m29f5844d4d" y="295.538824"/>
      </g>
     </g>
    </g>
    <g id="xtick_9">
     <g id="line2d_16">
      <g>
       <use style="stroke:#000000;stroke-width:0.8;" x="681.793857" xlink:href="#m29f5844d4d" y="295.538824"/>
      </g>
     </g>
    </g>
    <g id="xtick_10">
     <g id="line2d_17">
      <g>
       <use style="stroke:#000000;stroke-width:0.8;" x="740.605595" xlink:href="#m29f5844d4d" y="295.538824"/>
      </g>
     </g>
    </g>
   </g>
   <g id="matplotlib.axis_4">
    <g id="ytick_8">
     <g id="line2d_18">
      <g>
       <use style="stroke:#000000;stroke-width:0.8;" x="480.414109" xlink:href="#mb94f7f7cb9" y="287.827018"/>
      </g>
     </g>
    </g>
    <g id="ytick_9">
     <g id="line2d_19">
      <g>
       <use style="stroke:#000000;stroke-width:0.8;" x="480.414109" xlink:href="#mb94f7f7cb9" y="258.421149"/>
      </g>
     </g>
    </g>
    <g id="ytick_10">
     <g id="line2d_20">
      <g>
       <use style="stroke:#000000;stroke-width:0.8;" x="480.414109" xlink:href="#mb94f7f7cb9" y="229.01528"/>
      </g>
     </g>
    </g>
    <g id="ytick_11">
     <g id="line2d_21">
      <g>
       <use style="stroke:#000000;stroke-width:0.8;" x="480.414109" xlink:href="#mb94f7f7cb9" y="199.609412"/>
      </g>
     </g>
    </g>
    <g id="ytick_12">
     <g id="line2d_22">
      <g>
       <use style="stroke:#000000;stroke-width:0.8;" x="480.414109" xlink:href="#mb94f7f7cb9" y="170.203543"/>
      </g>
     </g>
    </g>
    <g id="ytick_13">
     <g id="line2d_23">
      <g>
       <use style="stroke:#000000;stroke-width:0.8;" x="480.414109" xlink:href="#mb94f7f7cb9" y="140.797674"/>
      </g>
     </g>
    </g>
    <g id="ytick_14">
     <g id="line2d_24">
      <g>
       <use style="stroke:#000000;stroke-width:0.8;" x="480.414109" xlink:href="#mb94f7f7cb9" y="111.391806"/>
      </g>
     </g>
    </g>
   </g>
   <g id="LineCollection_2">
    <path clip-path="url(#p8108b882b4)" d="M 564.170383 258.421149 
L 564.170383 199.609412 
L 622.98212 199.609412 
L 622.98212 140.797674 
" style="fill:none;stroke:#1f77b4;stroke-width:1.5;"/>
   </g>
   <g id="patch_8">
    <path d="M 480.414109 295.538824 
L 480.414109 103.68 
" style="fill:none;stroke:#000000;stroke-linecap:square;stroke-linejoin:miter;stroke-width:0.8;"/>
   </g>
   <g id="patch_9">
    <path d="M 770.422254 295.538824 
L 770.422254 103.68 
" style="fill:none;stroke:#000000;stroke-linecap:square;stroke-linejoin:miter;stroke-width:0.8;"/>
   </g>
   <g id="patch_10">
    <path d="M 480.414109 295.538824 
L 770.422254 295.538824 
" style="fill:none;stroke:#000000;stroke-linecap:square;stroke-linejoin:miter;stroke-width:0.8;"/>
   </g>
   <g id="patch_11">
    <path d="M 480.414109 103.68 
L 770.422254 103.68 
" style="fill:none;stroke:#000000;stroke-linecap:square;stroke-linejoin:miter;stroke-width:0.8;"/>
   </g>
   <g id="text_9">
    <!-- s.buffer(0.2, resolution=2) -->
    <g transform="translate(545.725994 97.68)scale(0.12 -0.12)">
     <defs>
      <path d="M 11.71875 12.40625 
L 22.015625 12.40625 
L 22.015625 4 
L 14.015625 -11.625 
L 7.71875 -11.625 
L 11.71875 4 
z
" id="DejaVuSans-44"/>
      <path id="DejaVuSans-32"/>
      <path d="M 30.609375 48.390625 
Q 23.390625 48.390625 19.1875 42.75 
Q 14.984375 37.109375 14.984375 27.296875 
Q 14.984375 17.484375 19.15625 11.84375 
Q 23.34375 6.203125 30.609375 6.203125 
Q 37.796875 6.203125 41.984375 11.859375 
Q 46.1875 17.53125 46.1875 27.296875 
Q 46.1875 37.015625 41.984375 42.703125 
Q 37.796875 48.390625 30.609375 48.390625 
z
M 30.609375 56 
Q 42.328125 56 49.015625 48.375 
Q 55.71875 40.765625 55.71875 27.296875 
Q 55.71875 13.875 49.015625 6.21875 
Q 42.328125 -1.421875 30.609375 -1.421875 
Q 18.84375 -1.421875 12.171875 6.21875 
Q 5.515625 13.875 5.515625 27.296875 
Q 5.515625 40.765625 12.171875 48.375 
Q 18.84375 56 30.609375 56 
z
" id="DejaVuSans-111"/>
      <path d="M 9.421875 75.984375 
L 18.40625 75.984375 
L 18.40625 0 
L 9.421875 0 
z
" id="DejaVuSans-108"/>
      <path d="M 18.3125 70.21875 
L 18.3125 54.6875 
L 36.8125 54.6875 
L 36.8125 47.703125 
L 18.3125 47.703125 
L 18.3125 18.015625 
Q 18.3125 11.328125 20.140625 9.421875 
Q 21.96875 7.515625 27.59375 7.515625 
L 36.8125 7.515625 
L 36.8125 0 
L 27.59375 0 
Q 17.1875 0 13.234375 3.875 
Q 9.28125 7.765625 9.28125 18.015625 
L 9.28125 47.703125 
L 2.6875 47.703125 
L 2.6875 54.6875 
L 9.28125 54.6875 
L 9.28125 70.21875 
z
" id="DejaVuSans-116"/>
      <path d="M 9.421875 54.6875 
L 18.40625 54.6875 
L 18.40625 0 
L 9.421875 0 
z
M 9.421875 75.984375 
L 18.40625 75.984375 
L 18.40625 64.59375 
L 9.421875 64.59375 
z
" id="DejaVuSans-105"/>
      <path d="M 54.890625 33.015625 
L 54.890625 0 
L 45.90625 0 
L 45.90625 32.71875 
Q 45.90625 40.484375 42.875 44.328125 
Q 39.84375 48.1875 33.796875 48.1875 
Q 26.515625 48.1875 22.3125 43.546875 
Q 18.109375 38.921875 18.109375 30.90625 
L 18.109375 0 
L 9.078125 0 
L 9.078125 54.6875 
L 18.109375 54.6875 
L 18.109375 46.1875 
Q 21.34375 51.125 25.703125 53.5625 
Q 30.078125 56 35.796875 56 
Q 45.21875 56 50.046875 50.171875 
Q 54.890625 44.34375 54.890625 33.015625 
z
" id="DejaVuSans-110"/>
      <path d="M 10.59375 45.40625 
L 73.1875 45.40625 
L 73.1875 37.203125 
L 10.59375 37.203125 
z
M 10.59375 25.484375 
L 73.1875 25.484375 
L 73.1875 17.1875 
L 10.59375 17.1875 
z
" id="DejaVuSans-61"/>
     </defs>
     <use xlink:href="#DejaVuSans-115"/>
     <use x="52.099609" xlink:href="#DejaVuSans-46"/>
     <use x="83.886719" xlink:href="#DejaVuSans-98"/>
     <use x="147.363281" xlink:href="#DejaVuSans-117"/>
     <use x="210.742188" xlink:href="#DejaVuSans-102"/>
     <use x="245.947266" xlink:href="#DejaVuSans-102"/>
     <use x="281.152344" xlink:href="#DejaVuSans-101"/>
     <use x="342.675781" xlink:href="#DejaVuSans-114"/>
     <use x="383.789062" xlink:href="#DejaVuSans-40"/>
     <use x="422.802734" xlink:href="#DejaVuSans-48"/>
     <use x="486.425781" xlink:href="#DejaVuSans-46"/>
     <use x="518.212891" xlink:href="#DejaVuSans-50"/>
     <use x="581.835938" xlink:href="#DejaVuSans-44"/>
     <use x="613.623047" xlink:href="#DejaVuSans-32"/>
     <use x="645.410156" xlink:href="#DejaVuSans-114"/>
     <use x="684.273438" xlink:href="#DejaVuSans-101"/>
     <use x="745.796875" xlink:href="#DejaVuSans-115"/>
     <use x="797.896484" xlink:href="#DejaVuSans-111"/>
     <use x="859.078125" xlink:href="#DejaVuSans-108"/>
     <use x="886.861328" xlink:href="#DejaVuSans-117"/>
     <use x="950.240234" xlink:href="#DejaVuSans-116"/>
     <use x="989.449219" xlink:href="#DejaVuSans-105"/>
     <use x="1017.232422" xlink:href="#DejaVuSans-111"/>
     <use x="1078.414062" xlink:href="#DejaVuSans-110"/>
     <use x="1141.792969" xlink:href="#DejaVuSans-61"/>
     <use x="1225.582031" xlink:href="#DejaVuSans-50"/>
     <use x="1289.205078" xlink:href="#DejaVuSans-41"/>
    </g>
   </g>
  </g>
  <g id="axes_3">
   <g id="patch_12">
    <path d="M 115.177746 525.769412 
L 405.185891 525.769412 
L 405.185891 333.910588 
L 115.177746 333.910588 
z
" style="fill:#ffffff;"/>
   </g>
   <g id="PatchCollection_5">
    <path clip-path="url(#p65d68b0b20)" d="M 316.557494 488.651737 
L 375.369231 429.84 
L 316.557494 371.028263 
L 316.557494 488.651737 
" style="fill:#1f77b4;"/>
   </g>
   <g id="PathCollection_3">
    <g clip-path="url(#p65d68b0b20)">
     <use style="fill:#1f77b4;stroke:#1f77b4;" x="140.122282" xlink:href="#m5566cd2d04" y="429.84"/>
    </g>
   </g>
   <g id="PatchCollection_6">
    <path clip-path="url(#p65d68b0b20)" d="M 187.171671 429.84 
L 187.22831 428.687088 
L 187.397682 427.54528 
L 187.678154 426.425571 
L 188.067027 425.338744 
L 188.560555 424.295268 
L 189.153984 423.30519 
L 189.841601 422.378046 
L 190.616783 421.522764 
L 191.472065 420.747582 
L 192.399209 420.059966 
L 193.389287 419.466536 
L 194.432763 418.973008 
L 195.51959 418.584135 
L 196.639299 418.303663 
L 197.781107 418.134291 
L 198.934019 418.077653 
L 245.983409 418.077653 
L 245.983409 371.028263 
L 269.508104 371.028263 
L 269.508104 429.84 
L 269.451465 430.992912 
L 269.282094 432.13472 
L 269.001621 433.254429 
L 268.612748 434.341256 
L 268.119221 435.384732 
L 267.525791 436.37481 
L 266.838174 437.301954 
L 266.062992 438.157236 
L 265.20771 438.932418 
L 264.280566 439.620034 
L 263.290488 440.213464 
L 262.247012 440.706992 
L 261.160185 441.095865 
L 260.040476 441.376337 
L 258.898668 441.545709 
L 257.745756 441.602347 
L 210.696366 441.602347 
L 210.696366 488.651737 
L 187.171671 488.651737 
L 187.171671 429.84 
" style="fill:#1f77b4;fill-opacity:0.6;"/>
    <path clip-path="url(#p65d68b0b20)" d="M 304.795146 488.651737 
L 304.795146 371.028263 
L 304.851785 369.875351 
L 305.021156 368.733542 
L 305.301629 367.613833 
L 305.690502 366.527007 
L 306.184029 365.48353 
L 306.777459 364.493453 
L 307.465076 363.566308 
L 308.240258 362.711027 
L 309.095539 361.935845 
L 310.022683 361.248228 
L 311.012761 360.654798 
L 312.056238 360.161271 
L 313.143064 359.772398 
L 314.262773 359.491925 
L 315.404582 359.322554 
L 316.557494 359.265915 
L 317.710405 359.322554 
L 318.852214 359.491925 
L 319.971923 359.772398 
L 321.058749 360.161271 
L 322.102226 360.654798 
L 323.092304 361.248228 
L 324.019448 361.935845 
L 324.874729 362.711027 
L 383.686467 421.522764 
L 384.461649 422.378046 
L 385.149265 423.30519 
L 385.742695 424.295268 
L 386.236223 425.338744 
L 386.625096 426.425571 
L 386.905568 427.54528 
L 387.07494 428.687088 
L 387.131578 429.84 
L 387.07494 430.992912 
L 386.905568 432.13472 
L 386.625096 433.254429 
L 386.236223 434.341256 
L 385.742695 435.384732 
L 385.149265 436.37481 
L 384.461649 437.301954 
L 383.686467 438.157236 
L 324.874729 496.968973 
L 324.019448 497.744155 
L 323.092304 498.431772 
L 322.102226 499.025202 
L 321.058749 499.518729 
L 319.971923 499.907602 
L 318.852214 500.188075 
L 317.710405 500.357446 
L 316.557494 500.414085 
L 315.404582 500.357446 
L 314.262773 500.188075 
L 313.143064 499.907602 
L 312.056238 499.518729 
L 311.012761 499.025202 
L 310.022683 498.431772 
L 309.095539 497.744155 
L 308.240258 496.968973 
L 307.465076 496.113692 
L 306.777459 495.186547 
L 306.184029 494.19647 
L 305.690502 493.152993 
L 305.301629 492.066167 
L 305.021156 490.946458 
L 304.851785 489.804649 
L 304.795146 488.651737 
" style="fill:#1f77b4;fill-opacity:0.6;"/>
   </g>
   <g id="matplotlib.axis_5">
    <g id="xtick_11">
     <g id="line2d_25">
      <g>
       <use style="stroke:#000000;stroke-width:0.8;" x="140.122282" xlink:href="#m29f5844d4d" y="525.769412"/>
      </g>
     </g>
    </g>
    <g id="xtick_12">
     <g id="line2d_26">
      <g>
       <use style="stroke:#000000;stroke-width:0.8;" x="198.934019" xlink:href="#m29f5844d4d" y="525.769412"/>
      </g>
     </g>
    </g>
    <g id="xtick_13">
     <g id="line2d_27">
      <g>
       <use style="stroke:#000000;stroke-width:0.8;" x="257.745756" xlink:href="#m29f5844d4d" y="525.769412"/>
      </g>
     </g>
    </g>
    <g id="xtick_14">
     <g id="line2d_28">
      <g>
       <use style="stroke:#000000;stroke-width:0.8;" x="316.557494" xlink:href="#m29f5844d4d" y="525.769412"/>
      </g>
     </g>
    </g>
    <g id="xtick_15">
     <g id="line2d_29">
      <g>
       <use style="stroke:#000000;stroke-width:0.8;" x="375.369231" xlink:href="#m29f5844d4d" y="525.769412"/>
      </g>
     </g>
    </g>
   </g>
   <g id="matplotlib.axis_6">
    <g id="ytick_15">
     <g id="line2d_30">
      <g>
       <use style="stroke:#000000;stroke-width:0.8;" x="115.177746" xlink:href="#mb94f7f7cb9" y="518.057606"/>
      </g>
     </g>
     <g id="text_10">
      <!-- −1.5 -->
      <g transform="translate(83.894933 521.856825)scale(0.1 -0.1)">
       <use xlink:href="#DejaVuSans-8722"/>
       <use x="83.789062" xlink:href="#DejaVuSans-49"/>
       <use x="147.412109" xlink:href="#DejaVuSans-46"/>
       <use x="179.199219" xlink:href="#DejaVuSans-53"/>
      </g>
     </g>
    </g>
    <g id="ytick_16">
     <g id="line2d_31">
      <g>
       <use style="stroke:#000000;stroke-width:0.8;" x="115.177746" xlink:href="#mb94f7f7cb9" y="488.651737"/>
      </g>
     </g>
     <g id="text_11">
      <!-- −1.0 -->
      <g transform="translate(83.894933 492.450956)scale(0.1 -0.1)">
       <use xlink:href="#DejaVuSans-8722"/>
       <use x="83.789062" xlink:href="#DejaVuSans-49"/>
       <use x="147.412109" xlink:href="#DejaVuSans-46"/>
       <use x="179.199219" xlink:href="#DejaVuSans-48"/>
      </g>
     </g>
    </g>
    <g id="ytick_17">
     <g id="line2d_32">
      <g>
       <use style="stroke:#000000;stroke-width:0.8;" x="115.177746" xlink:href="#mb94f7f7cb9" y="459.245869"/>
      </g>
     </g>
     <g id="text_12">
      <!-- −0.5 -->
      <g transform="translate(83.894933 463.045087)scale(0.1 -0.1)">
       <use xlink:href="#DejaVuSans-8722"/>
       <use x="83.789062" xlink:href="#DejaVuSans-48"/>
       <use x="147.412109" xlink:href="#DejaVuSans-46"/>
       <use x="179.199219" xlink:href="#DejaVuSans-53"/>
      </g>
     </g>
    </g>
    <g id="ytick_18">
     <g id="line2d_33">
      <g>
       <use style="stroke:#000000;stroke-width:0.8;" x="115.177746" xlink:href="#mb94f7f7cb9" y="429.84"/>
      </g>
     </g>
     <g id="text_13">
      <!-- 0.0 -->
      <g transform="translate(92.274621 433.639219)scale(0.1 -0.1)">
       <use xlink:href="#DejaVuSans-48"/>
       <use x="63.623047" xlink:href="#DejaVuSans-46"/>
       <use x="95.410156" xlink:href="#DejaVuSans-48"/>
      </g>
     </g>
    </g>
    <g id="ytick_19">
     <g id="line2d_34">
      <g>
       <use style="stroke:#000000;stroke-width:0.8;" x="115.177746" xlink:href="#mb94f7f7cb9" y="400.434131"/>
      </g>
     </g>
     <g id="text_14">
      <!-- 0.5 -->
      <g transform="translate(92.274621 404.23335)scale(0.1 -0.1)">
       <use xlink:href="#DejaVuSans-48"/>
       <use x="63.623047" xlink:href="#DejaVuSans-46"/>
       <use x="95.410156" xlink:href="#DejaVuSans-53"/>
      </g>
     </g>
    </g>
    <g id="ytick_20">
     <g id="line2d_35">
      <g>
       <use style="stroke:#000000;stroke-width:0.8;" x="115.177746" xlink:href="#mb94f7f7cb9" y="371.028263"/>
      </g>
     </g>
     <g id="text_15">
      <!-- 1.0 -->
      <g transform="translate(92.274621 374.827481)scale(0.1 -0.1)">
       <use xlink:href="#DejaVuSans-49"/>
       <use x="63.623047" xlink:href="#DejaVuSans-46"/>
       <use x="95.410156" xlink:href="#DejaVuSans-48"/>
      </g>
     </g>
    </g>
    <g id="ytick_21">
     <g id="line2d_36">
      <g>
       <use style="stroke:#000000;stroke-width:0.8;" x="115.177746" xlink:href="#mb94f7f7cb9" y="341.622394"/>
      </g>
     </g>
     <g id="text_16">
      <!-- 1.5 -->
      <g transform="translate(92.274621 345.421613)scale(0.1 -0.1)">
       <use xlink:href="#DejaVuSans-49"/>
       <use x="63.623047" xlink:href="#DejaVuSans-46"/>
       <use x="95.410156" xlink:href="#DejaVuSans-53"/>
      </g>
     </g>
    </g>
   </g>
   <g id="LineCollection_3">
    <path clip-path="url(#p65d68b0b20)" d="M 198.934019 488.651737 
L 198.934019 429.84 
L 257.745756 429.84 
L 257.745756 371.028263 
" style="fill:none;stroke:#1f77b4;stroke-width:1.5;"/>
   </g>
   <g id="patch_13">
    <path d="M 115.177746 525.769412 
L 115.177746 333.910588 
" style="fill:none;stroke:#000000;stroke-linecap:square;stroke-linejoin:miter;stroke-width:0.8;"/>
   </g>
   <g id="patch_14">
    <path d="M 405.185891 525.769412 
L 405.185891 333.910588 
" style="fill:none;stroke:#000000;stroke-linecap:square;stroke-linejoin:miter;stroke-width:0.8;"/>
   </g>
   <g id="patch_15">
    <path d="M 115.177746 525.769412 
L 405.185891 525.769412 
" style="fill:none;stroke:#000000;stroke-linecap:square;stroke-linejoin:miter;stroke-width:0.8;"/>
   </g>
   <g id="patch_16">
    <path d="M 115.177746 333.910588 
L 405.185891 333.910588 
" style="fill:none;stroke:#000000;stroke-linecap:square;stroke-linejoin:miter;stroke-width:0.8;"/>
   </g>
   <g id="text_17">
    <!-- s.buffer(0.2, cap_style=2) -->
    <g transform="translate(182.099318 327.910588)scale(0.12 -0.12)">
     <defs>
      <path d="M 48.78125 52.59375 
L 48.78125 44.1875 
Q 44.96875 46.296875 41.140625 47.34375 
Q 37.3125 48.390625 33.40625 48.390625 
Q 24.65625 48.390625 19.8125 42.84375 
Q 14.984375 37.3125 14.984375 27.296875 
Q 14.984375 17.28125 19.8125 11.734375 
Q 24.65625 6.203125 33.40625 6.203125 
Q 37.3125 6.203125 41.140625 7.25 
Q 44.96875 8.296875 48.78125 10.40625 
L 48.78125 2.09375 
Q 45.015625 0.34375 40.984375 -0.53125 
Q 36.96875 -1.421875 32.421875 -1.421875 
Q 20.0625 -1.421875 12.78125 6.34375 
Q 5.515625 14.109375 5.515625 27.296875 
Q 5.515625 40.671875 12.859375 48.328125 
Q 20.21875 56 33.015625 56 
Q 37.15625 56 41.109375 55.140625 
Q 45.0625 54.296875 48.78125 52.59375 
z
" id="DejaVuSans-99"/>
      <path d="M 34.28125 27.484375 
Q 23.390625 27.484375 19.1875 25 
Q 14.984375 22.515625 14.984375 16.5 
Q 14.984375 11.71875 18.140625 8.90625 
Q 21.296875 6.109375 26.703125 6.109375 
Q 34.1875 6.109375 38.703125 11.40625 
Q 43.21875 16.703125 43.21875 25.484375 
L 43.21875 27.484375 
z
M 52.203125 31.203125 
L 52.203125 0 
L 43.21875 0 
L 43.21875 8.296875 
Q 40.140625 3.328125 35.546875 0.953125 
Q 30.953125 -1.421875 24.3125 -1.421875 
Q 15.921875 -1.421875 10.953125 3.296875 
Q 6 8.015625 6 15.921875 
Q 6 25.140625 12.171875 29.828125 
Q 18.359375 34.515625 30.609375 34.515625 
L 43.21875 34.515625 
L 43.21875 35.40625 
Q 43.21875 41.609375 39.140625 45 
Q 35.0625 48.390625 27.6875 48.390625 
Q 23 48.390625 18.546875 47.265625 
Q 14.109375 46.140625 10.015625 43.890625 
L 10.015625 52.203125 
Q 14.9375 54.109375 19.578125 55.046875 
Q 24.21875 56 28.609375 56 
Q 40.484375 56 46.34375 49.84375 
Q 52.203125 43.703125 52.203125 31.203125 
z
" id="DejaVuSans-97"/>
      <path d="M 18.109375 8.203125 
L 18.109375 -20.796875 
L 9.078125 -20.796875 
L 9.078125 54.6875 
L 18.109375 54.6875 
L 18.109375 46.390625 
Q 20.953125 51.265625 25.265625 53.625 
Q 29.59375 56 35.59375 56 
Q 45.5625 56 51.78125 48.09375 
Q 58.015625 40.1875 58.015625 27.296875 
Q 58.015625 14.40625 51.78125 6.484375 
Q 45.5625 -1.421875 35.59375 -1.421875 
Q 29.59375 -1.421875 25.265625 0.953125 
Q 20.953125 3.328125 18.109375 8.203125 
z
M 48.6875 27.296875 
Q 48.6875 37.203125 44.609375 42.84375 
Q 40.53125 48.484375 33.40625 48.484375 
Q 26.265625 48.484375 22.1875 42.84375 
Q 18.109375 37.203125 18.109375 27.296875 
Q 18.109375 17.390625 22.1875 11.75 
Q 26.265625 6.109375 33.40625 6.109375 
Q 40.53125 6.109375 44.609375 11.75 
Q 48.6875 17.390625 48.6875 27.296875 
z
" id="DejaVuSans-112"/>
      <path d="M 50.984375 -16.609375 
L 50.984375 -23.578125 
L -0.984375 -23.578125 
L -0.984375 -16.609375 
z
" id="DejaVuSans-95"/>
      <path d="M 32.171875 -5.078125 
Q 28.375 -14.84375 24.75 -17.8125 
Q 21.140625 -20.796875 15.09375 -20.796875 
L 7.90625 -20.796875 
L 7.90625 -13.28125 
L 13.1875 -13.28125 
Q 16.890625 -13.28125 18.9375 -11.515625 
Q 21 -9.765625 23.484375 -3.21875 
L 25.09375 0.875 
L 2.984375 54.6875 
L 12.5 54.6875 
L 29.59375 11.921875 
L 46.6875 54.6875 
L 56.203125 54.6875 
z
" id="DejaVuSans-121"/>
     </defs>
     <use xlink:href="#DejaVuSans-115"/>
     <use x="52.099609" xlink:href="#DejaVuSans-46"/>
     <use x="83.886719" xlink:href="#DejaVuSans-98"/>
     <use x="147.363281" xlink:href="#DejaVuSans-117"/>
     <use x="210.742188" xlink:href="#DejaVuSans-102"/>
     <use x="245.947266" xlink:href="#DejaVuSans-102"/>
     <use x="281.152344" xlink:href="#DejaVuSans-101"/>
     <use x="342.675781" xlink:href="#DejaVuSans-114"/>
     <use x="383.789062" xlink:href="#DejaVuSans-40"/>
     <use x="422.802734" xlink:href="#DejaVuSans-48"/>
     <use x="486.425781" xlink:href="#DejaVuSans-46"/>
     <use x="518.212891" xlink:href="#DejaVuSans-50"/>
     <use x="581.835938" xlink:href="#DejaVuSans-44"/>
     <use x="613.623047" xlink:href="#DejaVuSans-32"/>
     <use x="645.410156" xlink:href="#DejaVuSans-99"/>
     <use x="700.390625" xlink:href="#DejaVuSans-97"/>
     <use x="761.669922" xlink:href="#DejaVuSans-112"/>
     <use x="825.146484" xlink:href="#DejaVuSans-95"/>
     <use x="875.146484" xlink:href="#DejaVuSans-115"/>
     <use x="927.246094" xlink:href="#DejaVuSans-116"/>
     <use x="966.455078" xlink:href="#DejaVuSans-121"/>
     <use x="1025.634766" xlink:href="#DejaVuSans-108"/>
     <use x="1053.417969" xlink:href="#DejaVuSans-101"/>
     <use x="1114.941406" xlink:href="#DejaVuSans-61"/>
     <use x="1198.730469" xlink:href="#DejaVuSans-50"/>
     <use x="1262.353516" xlink:href="#DejaVuSans-41"/>
    </g>
   </g>
  </g>
  <g id="axes_4">
   <g id="patch_17">
    <path d="M 480.414109 525.769412 
L 770.422254 525.769412 
L 770.422254 333.910588 
L 480.414109 333.910588 
z
" style="fill:#ffffff;"/>
   </g>
   <g id="PatchCollection_7">
    <path clip-path="url(#p409c94627b)" d="M 681.793857 488.651737 
L 740.605595 429.84 
L 681.793857 371.028263 
L 681.793857 488.651737 
" style="fill:#1f77b4;"/>
   </g>
   <g id="PathCollection_4">
    <g clip-path="url(#p409c94627b)">
     <use style="fill:#1f77b4;stroke:#1f77b4;" x="505.358645" xlink:href="#m5566cd2d04" y="429.84"/>
    </g>
   </g>
   <g id="PatchCollection_8">
    <path clip-path="url(#p409c94627b)" d="M 517.120993 418.077653 
L 517.120993 441.602347 
L 493.596298 441.602347 
L 493.596298 418.077653 
L 517.120993 418.077653 
" style="fill:#1f77b4;fill-opacity:0.6;"/>
    <path clip-path="url(#p409c94627b)" d="M 552.408035 429.84 
L 552.464674 428.687088 
L 552.634045 427.54528 
L 552.914518 426.425571 
L 553.30339 425.338744 
L 553.796918 424.295268 
L 554.390348 423.30519 
L 555.077965 422.378046 
L 555.853147 421.522764 
L 556.708428 420.747582 
L 557.635572 420.059966 
L 558.62565 419.466536 
L 559.669127 418.973008 
L 560.755953 418.584135 
L 561.875662 418.303663 
L 563.017471 418.134291 
L 564.170383 418.077653 
L 611.219772 418.077653 
L 611.219772 371.028263 
L 611.219772 359.265915 
L 634.744467 359.265915 
L 634.744467 429.84 
L 634.687828 430.992912 
L 634.518457 432.13472 
L 634.237985 433.254429 
L 633.849112 434.341256 
L 633.355584 435.384732 
L 632.762154 436.37481 
L 632.074537 437.301954 
L 631.299356 438.157236 
L 630.444074 438.932418 
L 629.51693 439.620034 
L 628.526852 440.213464 
L 627.483375 440.706992 
L 626.396549 441.095865 
L 625.27684 441.376337 
L 624.135032 441.545709 
L 622.98212 441.602347 
L 575.93273 441.602347 
L 575.93273 488.651737 
L 575.93273 500.414085 
L 552.408035 500.414085 
L 552.408035 429.84 
" style="fill:#1f77b4;fill-opacity:0.6;"/>
    <path clip-path="url(#p409c94627b)" d="M 670.03151 488.651737 
L 670.03151 371.028263 
L 670.088149 369.875351 
L 670.25752 368.733542 
L 670.537993 367.613833 
L 670.926865 366.527007 
L 671.420393 365.48353 
L 672.013823 364.493453 
L 672.70144 363.566308 
L 673.476622 362.711027 
L 674.331903 361.935845 
L 675.259047 361.248228 
L 676.249125 360.654798 
L 677.292602 360.161271 
L 678.379428 359.772398 
L 679.499137 359.491925 
L 680.640946 359.322554 
L 681.793857 359.265915 
L 682.946769 359.322554 
L 684.088577 359.491925 
L 685.208286 359.772398 
L 686.295113 360.161271 
L 687.338589 360.654798 
L 688.328667 361.248228 
L 689.255811 361.935845 
L 690.111093 362.711027 
L 748.92283 421.522764 
L 749.698012 422.378046 
L 750.385629 423.30519 
L 750.979059 424.295268 
L 751.472587 425.338744 
L 751.861459 426.425571 
L 752.141932 427.54528 
L 752.311303 428.687088 
L 752.367942 429.84 
L 752.311303 430.992912 
L 752.141932 432.13472 
L 751.861459 433.254429 
L 751.472587 434.341256 
L 750.979059 435.384732 
L 750.385629 436.37481 
L 749.698012 437.301954 
L 748.92283 438.157236 
L 690.111093 496.968973 
L 689.255811 497.744155 
L 688.328667 498.431772 
L 687.338589 499.025202 
L 686.295113 499.518729 
L 685.208286 499.907602 
L 684.088577 500.188075 
L 682.946769 500.357446 
L 681.793857 500.414085 
L 680.640946 500.357446 
L 679.499137 500.188075 
L 678.379428 499.907602 
L 677.292602 499.518729 
L 676.249125 499.025202 
L 675.259047 498.431772 
L 674.331903 497.744155 
L 673.476622 496.968973 
L 672.70144 496.113692 
L 672.013823 495.186547 
L 671.420393 494.19647 
L 670.926865 493.152993 
L 670.537993 492.066167 
L 670.25752 490.946458 
L 670.088149 489.804649 
L 670.03151 488.651737 
" style="fill:#1f77b4;fill-opacity:0.6;"/>
   </g>
   <g id="matplotlib.axis_7">
    <g id="xtick_16">
     <g id="line2d_37">
      <g>
       <use style="stroke:#000000;stroke-width:0.8;" x="505.358645" xlink:href="#m29f5844d4d" y="525.769412"/>
      </g>
     </g>
    </g>
    <g id="xtick_17">
     <g id="line2d_38">
      <g>
       <use style="stroke:#000000;stroke-width:0.8;" x="564.170383" xlink:href="#m29f5844d4d" y="525.769412"/>
      </g>
     </g>
    </g>
    <g id="xtick_18">
     <g id="line2d_39">
      <g>
       <use style="stroke:#000000;stroke-width:0.8;" x="622.98212" xlink:href="#m29f5844d4d" y="525.769412"/>
      </g>
     </g>
    </g>
    <g id="xtick_19">
     <g id="line2d_40">
      <g>
       <use style="stroke:#000000;stroke-width:0.8;" x="681.793857" xlink:href="#m29f5844d4d" y="525.769412"/>
      </g>
     </g>
    </g>
    <g id="xtick_20">
     <g id="line2d_41">
      <g>
       <use style="stroke:#000000;stroke-width:0.8;" x="740.605595" xlink:href="#m29f5844d4d" y="525.769412"/>
      </g>
     </g>
    </g>
   </g>
   <g id="matplotlib.axis_8">
    <g id="ytick_22">
     <g id="line2d_42">
      <g>
       <use style="stroke:#000000;stroke-width:0.8;" x="480.414109" xlink:href="#mb94f7f7cb9" y="518.057606"/>
      </g>
     </g>
    </g>
    <g id="ytick_23">
     <g id="line2d_43">
      <g>
       <use style="stroke:#000000;stroke-width:0.8;" x="480.414109" xlink:href="#mb94f7f7cb9" y="488.651737"/>
      </g>
     </g>
    </g>
    <g id="ytick_24">
     <g id="line2d_44">
      <g>
       <use style="stroke:#000000;stroke-width:0.8;" x="480.414109" xlink:href="#mb94f7f7cb9" y="459.245869"/>
      </g>
     </g>
    </g>
    <g id="ytick_25">
     <g id="line2d_45">
      <g>
       <use style="stroke:#000000;stroke-width:0.8;" x="480.414109" xlink:href="#mb94f7f7cb9" y="429.84"/>
      </g>
     </g>
    </g>
    <g id="ytick_26">
     <g id="line2d_46">
      <g>
       <use style="stroke:#000000;stroke-width:0.8;" x="480.414109" xlink:href="#mb94f7f7cb9" y="400.434131"/>
      </g>
     </g>
    </g>
    <g id="ytick_27">
     <g id="line2d_47">
      <g>
       <use style="stroke:#000000;stroke-width:0.8;" x="480.414109" xlink:href="#mb94f7f7cb9" y="371.028263"/>
      </g>
     </g>
    </g>
    <g id="ytick_28">
     <g id="line2d_48">
      <g>
       <use style="stroke:#000000;stroke-width:0.8;" x="480.414109" xlink:href="#mb94f7f7cb9" y="341.622394"/>
      </g>
     </g>
    </g>
   </g>
   <g id="LineCollection_4">
    <path clip-path="url(#p409c94627b)" d="M 564.170383 488.651737 
L 564.170383 429.84 
L 622.98212 429.84 
L 622.98212 371.028263 
" style="fill:none;stroke:#1f77b4;stroke-width:1.5;"/>
   </g>
   <g id="patch_18">
    <path d="M 480.414109 525.769412 
L 480.414109 333.910588 
" style="fill:none;stroke:#000000;stroke-linecap:square;stroke-linejoin:miter;stroke-width:0.8;"/>
   </g>
   <g id="patch_19">
    <path d="M 770.422254 525.769412 
L 770.422254 333.910588 
" style="fill:none;stroke:#000000;stroke-linecap:square;stroke-linejoin:miter;stroke-width:0.8;"/>
   </g>
   <g id="patch_20">
    <path d="M 480.414109 525.769412 
L 770.422254 525.769412 
" style="fill:none;stroke:#000000;stroke-linecap:square;stroke-linejoin:miter;stroke-width:0.8;"/>
   </g>
   <g id="patch_21">
    <path d="M 480.414109 333.910588 
L 770.422254 333.910588 
" style="fill:none;stroke:#000000;stroke-linecap:square;stroke-linejoin:miter;stroke-width:0.8;"/>
   </g>
   <g id="text_18">
    <!-- s.buffer(0.2, cap_style=3) -->
    <g transform="translate(547.335682 327.910588)scale(0.12 -0.12)">
     <defs>
      <path d="M 40.578125 39.3125 
Q 47.65625 37.796875 51.625 33 
Q 55.609375 28.21875 55.609375 21.1875 
Q 55.609375 10.40625 48.1875 4.484375 
Q 40.765625 -1.421875 27.09375 -1.421875 
Q 22.515625 -1.421875 17.65625 -0.515625 
Q 12.796875 0.390625 7.625 2.203125 
L 7.625 11.71875 
Q 11.71875 9.328125 16.59375 8.109375 
Q 21.484375 6.890625 26.8125 6.890625 
Q 36.078125 6.890625 40.9375 10.546875 
Q 45.796875 14.203125 45.796875 21.1875 
Q 45.796875 27.640625 41.28125 31.265625 
Q 36.765625 34.90625 28.71875 34.90625 
L 20.21875 34.90625 
L 20.21875 43.015625 
L 29.109375 43.015625 
Q 36.375 43.015625 40.234375 45.921875 
Q 44.09375 48.828125 44.09375 54.296875 
Q 44.09375 59.90625 40.109375 62.90625 
Q 36.140625 65.921875 28.71875 65.921875 
Q 24.65625 65.921875 20.015625 65.03125 
Q 15.375 64.15625 9.8125 62.3125 
L 9.8125 71.09375 
Q 15.4375 72.65625 20.34375 73.4375 
Q 25.25 74.21875 29.59375 74.21875 
Q 40.828125 74.21875 47.359375 69.109375 
Q 53.90625 64.015625 53.90625 55.328125 
Q 53.90625 49.265625 50.4375 45.09375 
Q 46.96875 40.921875 40.578125 39.3125 
z
" id="DejaVuSans-51"/>
     </defs>
     <use xlink:href="#DejaVuSans-115"/>
     <use x="52.099609" xlink:href="#DejaVuSans-46"/>
     <use x="83.886719" xlink:href="#DejaVuSans-98"/>
     <use x="147.363281" xlink:href="#DejaVuSans-117"/>
     <use x="210.742188" xlink:href="#DejaVuSans-102"/>
     <use x="245.947266" xlink:href="#DejaVuSans-102"/>
     <use x="281.152344" xlink:href="#DejaVuSans-101"/>
     <use x="342.675781" xlink:href="#DejaVuSans-114"/>
     <use x="383.789062" xlink:href="#DejaVuSans-40"/>
     <use x="422.802734" xlink:href="#DejaVuSans-48"/>
     <use x="486.425781" xlink:href="#DejaVuSans-46"/>
     <use x="518.212891" xlink:href="#DejaVuSans-50"/>
     <use x="581.835938" xlink:href="#DejaVuSans-44"/>
     <use x="613.623047" xlink:href="#DejaVuSans-32"/>
     <use x="645.410156" xlink:href="#DejaVuSans-99"/>
     <use x="700.390625" xlink:href="#DejaVuSans-97"/>
     <use x="761.669922" xlink:href="#DejaVuSans-112"/>
     <use x="825.146484" xlink:href="#DejaVuSans-95"/>
     <use x="875.146484" xlink:href="#DejaVuSans-115"/>
     <use x="927.246094" xlink:href="#DejaVuSans-116"/>
     <use x="966.455078" xlink:href="#DejaVuSans-121"/>
     <use x="1025.634766" xlink:href="#DejaVuSans-108"/>
     <use x="1053.417969" xlink:href="#DejaVuSans-101"/>
     <use x="1114.941406" xlink:href="#DejaVuSans-61"/>
     <use x="1198.730469" xlink:href="#DejaVuSans-51"/>
     <use x="1262.353516" xlink:href="#DejaVuSans-41"/>
    </g>
   </g>
  </g>
  <g id="axes_5">
   <g id="patch_22">
    <path d="M 115.177746 756 
L 405.185891 756 
L 405.185891 564.141176 
L 115.177746 564.141176 
z
" style="fill:#ffffff;"/>
   </g>
   <g id="PatchCollection_9">
    <path clip-path="url(#pc7d62013d4)" d="M 316.557494 718.882326 
L 375.369231 660.070588 
L 316.557494 601.258851 
L 316.557494 718.882326 
" style="fill:#1f77b4;"/>
   </g>
   <g id="PathCollection_5">
    <g clip-path="url(#pc7d62013d4)">
     <use style="fill:#1f77b4;stroke:#1f77b4;" x="140.122282" xlink:href="#m5566cd2d04" y="660.070588"/>
    </g>
   </g>
   <g id="PatchCollection_10">
    <path clip-path="url(#pc7d62013d4)" d="M 151.884629 660.070588 
L 151.82799 661.2235 
L 151.658619 662.365308 
L 151.378146 663.485017 
L 150.989274 664.571844 
L 150.495746 665.61532 
L 149.902316 666.605398 
L 149.214699 667.532542 
L 148.439517 668.387824 
L 147.584236 669.163006 
L 146.657092 669.850623 
L 145.667014 670.444053 
L 144.623537 670.93758 
L 143.536711 671.326453 
L 142.417002 671.606925 
L 141.275193 671.776297 
L 140.122282 671.832936 
L 138.96937 671.776297 
L 137.827561 671.606925 
L 136.707852 671.326453 
L 135.621026 670.93758 
L 134.577549 670.444053 
L 133.587471 669.850623 
L 132.660327 669.163006 
L 131.805046 668.387824 
L 131.029864 667.532542 
L 130.342247 666.605398 
L 129.748817 665.61532 
L 129.255289 664.571844 
L 128.866417 663.485017 
L 128.585944 662.365308 
L 128.416573 661.2235 
L 128.359934 660.070588 
L 128.416573 658.917677 
L 128.585944 657.775868 
L 128.866417 656.656159 
L 129.255289 655.569333 
L 129.748817 654.525856 
L 130.342247 653.535778 
L 131.029864 652.608634 
L 131.805046 651.753353 
L 132.660327 650.978171 
L 133.587471 650.290554 
L 134.577549 649.697124 
L 135.621026 649.203596 
L 136.707852 648.814723 
L 137.827561 648.534251 
L 138.96937 648.36488 
L 140.122282 648.308241 
L 141.275193 648.36488 
L 142.417002 648.534251 
L 143.536711 648.814723 
L 144.623537 649.203596 
L 145.667014 649.697124 
L 146.657092 650.290554 
L 147.584236 650.978171 
L 148.439517 651.753353 
L 149.214699 652.608634 
L 149.902316 653.535778 
L 150.495746 654.525856 
L 150.989274 655.569333 
L 151.378146 656.656159 
L 151.658619 657.775868 
L 151.82799 658.917677 
L 151.884629 660.070588 
L 151.884629 660.070588 
" style="fill:#1f77b4;fill-opacity:0.6;"/>
    <path clip-path="url(#pc7d62013d4)" d="M 187.171671 648.308241 
L 245.983409 648.308241 
L 245.983409 601.258851 
L 246.040048 600.105939 
L 246.209419 598.964131 
L 246.489892 597.844422 
L 246.878764 596.757595 
L 247.372292 595.714119 
L 247.965722 594.724041 
L 248.653339 593.796897 
L 249.428521 592.941615 
L 250.283802 592.166433 
L 251.210946 591.478816 
L 252.201024 590.885387 
L 253.244501 590.391859 
L 254.331327 590.002986 
L 255.451036 589.722514 
L 256.592845 589.553142 
L 257.745756 589.496503 
L 258.898668 589.553142 
L 260.040476 589.722514 
L 261.160185 590.002986 
L 262.247012 590.391859 
L 263.290488 590.885387 
L 264.280566 591.478816 
L 265.20771 592.166433 
L 266.062992 592.941615 
L 266.838174 593.796897 
L 267.525791 594.724041 
L 268.119221 595.714119 
L 268.612748 596.757595 
L 269.001621 597.844422 
L 269.282094 598.964131 
L 269.451465 600.105939 
L 269.508104 601.258851 
L 269.508104 671.832936 
L 210.696366 671.832936 
L 210.696366 718.882326 
L 210.639727 720.035237 
L 210.470356 721.177046 
L 210.189884 722.296755 
L 209.801011 723.383581 
L 209.307483 724.427058 
L 208.714053 725.417136 
L 208.026436 726.34428 
L 207.251255 727.199561 
L 206.395973 727.974743 
L 205.468829 728.66236 
L 204.478751 729.25579 
L 203.435274 729.749318 
L 202.348448 730.13819 
L 201.228739 730.418663 
L 200.086931 730.588034 
L 198.934019 730.644673 
L 197.781107 730.588034 
L 196.639299 730.418663 
L 195.51959 730.13819 
L 194.432763 729.749318 
L 193.389287 729.25579 
L 192.399209 728.66236 
L 191.472065 727.974743 
L 190.616783 727.199561 
L 189.841601 726.34428 
L 189.153984 725.417136 
L 188.560555 724.427058 
L 188.067027 723.383581 
L 187.678154 722.296755 
L 187.397682 721.177046 
L 187.22831 720.035237 
L 187.171671 718.882326 
L 187.171671 648.308241 
" style="fill:#1f77b4;fill-opacity:0.6;"/>
    <path clip-path="url(#pc7d62013d4)" d="M 304.795146 747.279144 
L 304.795146 572.862032 
L 392.003702 660.070588 
L 304.795146 747.279144 
" style="fill:#1f77b4;fill-opacity:0.6;"/>
   </g>
   <g id="matplotlib.axis_9">
    <g id="xtick_21">
     <g id="line2d_49">
      <g>
       <use style="stroke:#000000;stroke-width:0.8;" x="140.122282" xlink:href="#m29f5844d4d" y="756"/>
      </g>
     </g>
     <g id="text_19">
      <!-- 0 -->
      <g transform="translate(136.941032 770.598438)scale(0.1 -0.1)">
       <use xlink:href="#DejaVuSans-48"/>
      </g>
     </g>
    </g>
    <g id="xtick_22">
     <g id="line2d_50">
      <g>
       <use style="stroke:#000000;stroke-width:0.8;" x="198.934019" xlink:href="#m29f5844d4d" y="756"/>
      </g>
     </g>
     <g id="text_20">
      <!-- 1 -->
      <g transform="translate(195.752769 770.598438)scale(0.1 -0.1)">
       <use xlink:href="#DejaVuSans-49"/>
      </g>
     </g>
    </g>
    <g id="xtick_23">
     <g id="line2d_51">
      <g>
       <use style="stroke:#000000;stroke-width:0.8;" x="257.745756" xlink:href="#m29f5844d4d" y="756"/>
      </g>
     </g>
     <g id="text_21">
      <!-- 2 -->
      <g transform="translate(254.564506 770.598438)scale(0.1 -0.1)">
       <use xlink:href="#DejaVuSans-50"/>
      </g>
     </g>
    </g>
    <g id="xtick_24">
     <g id="line2d_52">
      <g>
       <use style="stroke:#000000;stroke-width:0.8;" x="316.557494" xlink:href="#m29f5844d4d" y="756"/>
      </g>
     </g>
     <g id="text_22">
      <!-- 3 -->
      <g transform="translate(313.376244 770.598438)scale(0.1 -0.1)">
       <use xlink:href="#DejaVuSans-51"/>
      </g>
     </g>
    </g>
    <g id="xtick_25">
     <g id="line2d_53">
      <g>
       <use style="stroke:#000000;stroke-width:0.8;" x="375.369231" xlink:href="#m29f5844d4d" y="756"/>
      </g>
     </g>
     <g id="text_23">
      <!-- 4 -->
      <g transform="translate(372.187981 770.598438)scale(0.1 -0.1)">
       <defs>
        <path d="M 37.796875 64.3125 
L 12.890625 25.390625 
L 37.796875 25.390625 
z
M 35.203125 72.90625 
L 47.609375 72.90625 
L 47.609375 25.390625 
L 58.015625 25.390625 
L 58.015625 17.1875 
L 47.609375 17.1875 
L 47.609375 0 
L 37.796875 0 
L 37.796875 17.1875 
L 4.890625 17.1875 
L 4.890625 26.703125 
z
" id="DejaVuSans-52"/>
       </defs>
       <use xlink:href="#DejaVuSans-52"/>
      </g>
     </g>
    </g>
   </g>
   <g id="matplotlib.axis_10">
    <g id="ytick_29">
     <g id="line2d_54">
      <g>
       <use style="stroke:#000000;stroke-width:0.8;" x="115.177746" xlink:href="#mb94f7f7cb9" y="748.288194"/>
      </g>
     </g>
     <g id="text_24">
      <!-- −1.5 -->
      <g transform="translate(83.894933 752.087413)scale(0.1 -0.1)">
       <use xlink:href="#DejaVuSans-8722"/>
       <use x="83.789062" xlink:href="#DejaVuSans-49"/>
       <use x="147.412109" xlink:href="#DejaVuSans-46"/>
       <use x="179.199219" xlink:href="#DejaVuSans-53"/>
      </g>
     </g>
    </g>
    <g id="ytick_30">
     <g id="line2d_55">
      <g>
       <use style="stroke:#000000;stroke-width:0.8;" x="115.177746" xlink:href="#mb94f7f7cb9" y="718.882326"/>
      </g>
     </g>
     <g id="text_25">
      <!-- −1.0 -->
      <g transform="translate(83.894933 722.681544)scale(0.1 -0.1)">
       <use xlink:href="#DejaVuSans-8722"/>
       <use x="83.789062" xlink:href="#DejaVuSans-49"/>
       <use x="147.412109" xlink:href="#DejaVuSans-46"/>
       <use x="179.199219" xlink:href="#DejaVuSans-48"/>
      </g>
     </g>
    </g>
    <g id="ytick_31">
     <g id="line2d_56">
      <g>
       <use style="stroke:#000000;stroke-width:0.8;" x="115.177746" xlink:href="#mb94f7f7cb9" y="689.476457"/>
      </g>
     </g>
     <g id="text_26">
      <!-- −0.5 -->
      <g transform="translate(83.894933 693.275676)scale(0.1 -0.1)">
       <use xlink:href="#DejaVuSans-8722"/>
       <use x="83.789062" xlink:href="#DejaVuSans-48"/>
       <use x="147.412109" xlink:href="#DejaVuSans-46"/>
       <use x="179.199219" xlink:href="#DejaVuSans-53"/>
      </g>
     </g>
    </g>
    <g id="ytick_32">
     <g id="line2d_57">
      <g>
       <use style="stroke:#000000;stroke-width:0.8;" x="115.177746" xlink:href="#mb94f7f7cb9" y="660.070588"/>
      </g>
     </g>
     <g id="text_27">
      <!-- 0.0 -->
      <g transform="translate(92.274621 663.869807)scale(0.1 -0.1)">
       <use xlink:href="#DejaVuSans-48"/>
       <use x="63.623047" xlink:href="#DejaVuSans-46"/>
       <use x="95.410156" xlink:href="#DejaVuSans-48"/>
      </g>
     </g>
    </g>
    <g id="ytick_33">
     <g id="line2d_58">
      <g>
       <use style="stroke:#000000;stroke-width:0.8;" x="115.177746" xlink:href="#mb94f7f7cb9" y="630.66472"/>
      </g>
     </g>
     <g id="text_28">
      <!-- 0.5 -->
      <g transform="translate(92.274621 634.463938)scale(0.1 -0.1)">
       <use xlink:href="#DejaVuSans-48"/>
       <use x="63.623047" xlink:href="#DejaVuSans-46"/>
       <use x="95.410156" xlink:href="#DejaVuSans-53"/>
      </g>
     </g>
    </g>
    <g id="ytick_34">
     <g id="line2d_59">
      <g>
       <use style="stroke:#000000;stroke-width:0.8;" x="115.177746" xlink:href="#mb94f7f7cb9" y="601.258851"/>
      </g>
     </g>
     <g id="text_29">
      <!-- 1.0 -->
      <g transform="translate(92.274621 605.05807)scale(0.1 -0.1)">
       <use xlink:href="#DejaVuSans-49"/>
       <use x="63.623047" xlink:href="#DejaVuSans-46"/>
       <use x="95.410156" xlink:href="#DejaVuSans-48"/>
      </g>
     </g>
    </g>
    <g id="ytick_35">
     <g id="line2d_60">
      <g>
       <use style="stroke:#000000;stroke-width:0.8;" x="115.177746" xlink:href="#mb94f7f7cb9" y="571.852982"/>
      </g>
     </g>
     <g id="text_30">
      <!-- 1.5 -->
      <g transform="translate(92.274621 575.652201)scale(0.1 -0.1)">
       <use xlink:href="#DejaVuSans-49"/>
       <use x="63.623047" xlink:href="#DejaVuSans-46"/>
       <use x="95.410156" xlink:href="#DejaVuSans-53"/>
      </g>
     </g>
    </g>
   </g>
   <g id="LineCollection_5">
    <path clip-path="url(#pc7d62013d4)" d="M 198.934019 718.882326 
L 198.934019 660.070588 
L 257.745756 660.070588 
L 257.745756 601.258851 
" style="fill:none;stroke:#1f77b4;stroke-width:1.5;"/>
   </g>
   <g id="patch_23">
    <path d="M 115.177746 756 
L 115.177746 564.141176 
" style="fill:none;stroke:#000000;stroke-linecap:square;stroke-linejoin:miter;stroke-width:0.8;"/>
   </g>
   <g id="patch_24">
    <path d="M 405.185891 756 
L 405.185891 564.141176 
" style="fill:none;stroke:#000000;stroke-linecap:square;stroke-linejoin:miter;stroke-width:0.8;"/>
   </g>
   <g id="patch_25">
    <path d="M 115.177746 756 
L 405.185891 756 
" style="fill:none;stroke:#000000;stroke-linecap:square;stroke-linejoin:miter;stroke-width:0.8;"/>
   </g>
   <g id="patch_26">
    <path d="M 115.177746 564.141176 
L 405.185891 564.141176 
" style="fill:none;stroke:#000000;stroke-linecap:square;stroke-linejoin:miter;stroke-width:0.8;"/>
   </g>
   <g id="text_31">
    <!-- s.buffer(0.2, join_style=2) -->
    <g transform="translate(182.076818 558.141176)scale(0.12 -0.12)">
     <defs>
      <path d="M 9.421875 54.6875 
L 18.40625 54.6875 
L 18.40625 -0.984375 
Q 18.40625 -11.421875 14.421875 -16.109375 
Q 10.453125 -20.796875 1.609375 -20.796875 
L -1.8125 -20.796875 
L -1.8125 -13.1875 
L 0.59375 -13.1875 
Q 5.71875 -13.1875 7.5625 -10.8125 
Q 9.421875 -8.453125 9.421875 -0.984375 
z
M 9.421875 75.984375 
L 18.40625 75.984375 
L 18.40625 64.59375 
L 9.421875 64.59375 
z
" id="DejaVuSans-106"/>
     </defs>
     <use xlink:href="#DejaVuSans-115"/>
     <use x="52.099609" xlink:href="#DejaVuSans-46"/>
     <use x="83.886719" xlink:href="#DejaVuSans-98"/>
     <use x="147.363281" xlink:href="#DejaVuSans-117"/>
     <use x="210.742188" xlink:href="#DejaVuSans-102"/>
     <use x="245.947266" xlink:href="#DejaVuSans-102"/>
     <use x="281.152344" xlink:href="#DejaVuSans-101"/>
     <use x="342.675781" xlink:href="#DejaVuSans-114"/>
     <use x="383.789062" xlink:href="#DejaVuSans-40"/>
     <use x="422.802734" xlink:href="#DejaVuSans-48"/>
     <use x="486.425781" xlink:href="#DejaVuSans-46"/>
     <use x="518.212891" xlink:href="#DejaVuSans-50"/>
     <use x="581.835938" xlink:href="#DejaVuSans-44"/>
     <use x="613.623047" xlink:href="#DejaVuSans-32"/>
     <use x="645.410156" xlink:href="#DejaVuSans-106"/>
     <use x="673.193359" xlink:href="#DejaVuSans-111"/>
     <use x="734.375" xlink:href="#DejaVuSans-105"/>
     <use x="762.158203" xlink:href="#DejaVuSans-110"/>
     <use x="825.537109" xlink:href="#DejaVuSans-95"/>
     <use x="875.537109" xlink:href="#DejaVuSans-115"/>
     <use x="927.636719" xlink:href="#DejaVuSans-116"/>
     <use x="966.845703" xlink:href="#DejaVuSans-121"/>
     <use x="1026.025391" xlink:href="#DejaVuSans-108"/>
     <use x="1053.808594" xlink:href="#DejaVuSans-101"/>
     <use x="1115.332031" xlink:href="#DejaVuSans-61"/>
     <use x="1199.121094" xlink:href="#DejaVuSans-50"/>
     <use x="1262.744141" xlink:href="#DejaVuSans-41"/>
    </g>
   </g>
  </g>
  <g id="axes_6">
   <g id="patch_27">
    <path d="M 480.414109 756 
L 770.422254 756 
L 770.422254 564.141176 
L 480.414109 564.141176 
z
" style="fill:#ffffff;"/>
   </g>
   <g id="PatchCollection_11">
    <path clip-path="url(#pc76390193b)" d="M 681.793857 718.882326 
L 740.605595 660.070588 
L 681.793857 601.258851 
L 681.793857 718.882326 
" style="fill:#1f77b4;"/>
   </g>
   <g id="PathCollection_6">
    <g clip-path="url(#pc76390193b)">
     <use style="fill:#1f77b4;stroke:#1f77b4;" x="505.358645" xlink:href="#m5566cd2d04" y="660.070588"/>
    </g>
   </g>
   <g id="PatchCollection_12">
    <path clip-path="url(#pc76390193b)" d="M 517.120993 660.070588 
L 517.064354 661.2235 
L 516.894982 662.365308 
L 516.61451 663.485017 
L 516.225637 664.571844 
L 515.73211 665.61532 
L 515.13868 666.605398 
L 514.451063 667.532542 
L 513.675881 668.387824 
L 512.820599 669.163006 
L 511.893455 669.850623 
L 510.903377 670.444053 
L 509.859901 670.93758 
L 508.773074 671.326453 
L 507.653365 671.606925 
L 506.511557 671.776297 
L 505.358645 671.832936 
L 504.205734 671.776297 
L 503.063925 671.606925 
L 501.944216 671.326453 
L 500.85739 670.93758 
L 499.813913 670.444053 
L 498.823835 669.850623 
L 497.896691 669.163006 
L 497.04141 668.387824 
L 496.266228 667.532542 
L 495.578611 666.605398 
L 494.985181 665.61532 
L 494.491653 664.571844 
L 494.10278 663.485017 
L 493.822308 662.365308 
L 493.652937 661.2235 
L 493.596298 660.070588 
L 493.652937 658.917677 
L 493.822308 657.775868 
L 494.10278 656.656159 
L 494.491653 655.569333 
L 494.985181 654.525856 
L 495.578611 653.535778 
L 496.266228 652.608634 
L 497.04141 651.753353 
L 497.896691 650.978171 
L 498.823835 650.290554 
L 499.813913 649.697124 
L 500.85739 649.203596 
L 501.944216 648.814723 
L 503.063925 648.534251 
L 504.205734 648.36488 
L 505.358645 648.308241 
L 506.511557 648.36488 
L 507.653365 648.534251 
L 508.773074 648.814723 
L 509.859901 649.203596 
L 510.903377 649.697124 
L 511.893455 650.290554 
L 512.820599 650.978171 
L 513.675881 651.753353 
L 514.451063 652.608634 
L 515.13868 653.535778 
L 515.73211 654.525856 
L 516.225637 655.569333 
L 516.61451 656.656159 
L 516.894982 657.775868 
L 517.064354 658.917677 
L 517.120993 660.070588 
L 517.120993 660.070588 
" style="fill:#1f77b4;fill-opacity:0.6;"/>
    <path clip-path="url(#pc76390193b)" d="M 552.408035 660.070588 
L 564.170383 648.308241 
L 611.219772 648.308241 
L 611.219772 601.258851 
L 611.276411 600.105939 
L 611.445783 598.964131 
L 611.726255 597.844422 
L 612.115128 596.757595 
L 612.608656 595.714119 
L 613.202085 594.724041 
L 613.889702 593.796897 
L 614.664884 592.941615 
L 615.520166 592.166433 
L 616.44731 591.478816 
L 617.437388 590.885387 
L 618.480864 590.391859 
L 619.567691 590.002986 
L 620.6874 589.722514 
L 621.829208 589.553142 
L 622.98212 589.496503 
L 624.135032 589.553142 
L 625.27684 589.722514 
L 626.396549 590.002986 
L 627.483375 590.391859 
L 628.526852 590.885387 
L 629.51693 591.478816 
L 630.444074 592.166433 
L 631.299356 592.941615 
L 632.074537 593.796897 
L 632.762154 594.724041 
L 633.355584 595.714119 
L 633.849112 596.757595 
L 634.237985 597.844422 
L 634.518457 598.964131 
L 634.687828 600.105939 
L 634.744467 601.258851 
L 634.744467 660.070588 
L 622.98212 671.832936 
L 575.93273 671.832936 
L 575.93273 718.882326 
L 575.876091 720.035237 
L 575.70672 721.177046 
L 575.426247 722.296755 
L 575.037375 723.383581 
L 574.543847 724.427058 
L 573.950417 725.417136 
L 573.2628 726.34428 
L 572.487618 727.199561 
L 571.632337 727.974743 
L 570.705193 728.66236 
L 569.715115 729.25579 
L 568.671638 729.749318 
L 567.584812 730.13819 
L 566.465103 730.418663 
L 565.323294 730.588034 
L 564.170383 730.644673 
L 563.017471 730.588034 
L 561.875662 730.418663 
L 560.755953 730.13819 
L 559.669127 729.749318 
L 558.62565 729.25579 
L 557.635572 728.66236 
L 556.708428 727.974743 
L 555.853147 727.199561 
L 555.077965 726.34428 
L 554.390348 725.417136 
L 553.796918 724.427058 
L 553.30339 723.383581 
L 552.914518 722.296755 
L 552.634045 721.177046 
L 552.464674 720.035237 
L 552.408035 718.882326 
L 552.408035 660.070588 
" style="fill:#1f77b4;fill-opacity:0.6;"/>
    <path clip-path="url(#pc76390193b)" d="M 670.03151 718.882326 
L 670.03151 601.258851 
L 690.111093 592.941615 
L 748.92283 651.753353 
L 748.92283 668.387824 
L 690.111093 727.199561 
L 670.03151 718.882326 
" style="fill:#1f77b4;fill-opacity:0.6;"/>
   </g>
   <g id="matplotlib.axis_11">
    <g id="xtick_26">
     <g id="line2d_61">
      <g>
       <use style="stroke:#000000;stroke-width:0.8;" x="505.358645" xlink:href="#m29f5844d4d" y="756"/>
      </g>
     </g>
     <g id="text_32">
      <!-- 0 -->
      <g transform="translate(502.177395 770.598438)scale(0.1 -0.1)">
       <use xlink:href="#DejaVuSans-48"/>
      </g>
     </g>
    </g>
    <g id="xtick_27">
     <g id="line2d_62">
      <g>
       <use style="stroke:#000000;stroke-width:0.8;" x="564.170383" xlink:href="#m29f5844d4d" y="756"/>
      </g>
     </g>
     <g id="text_33">
      <!-- 1 -->
      <g transform="translate(560.989133 770.598438)scale(0.1 -0.1)">
       <use xlink:href="#DejaVuSans-49"/>
      </g>
     </g>
    </g>
    <g id="xtick_28">
     <g id="line2d_63">
      <g>
       <use style="stroke:#000000;stroke-width:0.8;" x="622.98212" xlink:href="#m29f5844d4d" y="756"/>
      </g>
     </g>
     <g id="text_34">
      <!-- 2 -->
      <g transform="translate(619.80087 770.598438)scale(0.1 -0.1)">
       <use xlink:href="#DejaVuSans-50"/>
      </g>
     </g>
    </g>
    <g id="xtick_29">
     <g id="line2d_64">
      <g>
       <use style="stroke:#000000;stroke-width:0.8;" x="681.793857" xlink:href="#m29f5844d4d" y="756"/>
      </g>
     </g>
     <g id="text_35">
      <!-- 3 -->
      <g transform="translate(678.612607 770.598438)scale(0.1 -0.1)">
       <use xlink:href="#DejaVuSans-51"/>
      </g>
     </g>
    </g>
    <g id="xtick_30">
     <g id="line2d_65">
      <g>
       <use style="stroke:#000000;stroke-width:0.8;" x="740.605595" xlink:href="#m29f5844d4d" y="756"/>
      </g>
     </g>
     <g id="text_36">
      <!-- 4 -->
      <g transform="translate(737.424345 770.598438)scale(0.1 -0.1)">
       <use xlink:href="#DejaVuSans-52"/>
      </g>
     </g>
    </g>
   </g>
   <g id="matplotlib.axis_12">
    <g id="ytick_36">
     <g id="line2d_66">
      <g>
       <use style="stroke:#000000;stroke-width:0.8;" x="480.414109" xlink:href="#mb94f7f7cb9" y="748.288194"/>
      </g>
     </g>
    </g>
    <g id="ytick_37">
     <g id="line2d_67">
      <g>
       <use style="stroke:#000000;stroke-width:0.8;" x="480.414109" xlink:href="#mb94f7f7cb9" y="718.882326"/>
      </g>
     </g>
    </g>
    <g id="ytick_38">
     <g id="line2d_68">
      <g>
       <use style="stroke:#000000;stroke-width:0.8;" x="480.414109" xlink:href="#mb94f7f7cb9" y="689.476457"/>
      </g>
     </g>
    </g>
    <g id="ytick_39">
     <g id="line2d_69">
      <g>
       <use style="stroke:#000000;stroke-width:0.8;" x="480.414109" xlink:href="#mb94f7f7cb9" y="660.070588"/>
      </g>
     </g>
    </g>
    <g id="ytick_40">
     <g id="line2d_70">
      <g>
       <use style="stroke:#000000;stroke-width:0.8;" x="480.414109" xlink:href="#mb94f7f7cb9" y="630.66472"/>
      </g>
     </g>
    </g>
    <g id="ytick_41">
     <g id="line2d_71">
      <g>
       <use style="stroke:#000000;stroke-width:0.8;" x="480.414109" xlink:href="#mb94f7f7cb9" y="601.258851"/>
      </g>
     </g>
    </g>
    <g id="ytick_42">
     <g id="line2d_72">
      <g>
       <use style="stroke:#000000;stroke-width:0.8;" x="480.414109" xlink:href="#mb94f7f7cb9" y="571.852982"/>
      </g>
     </g>
    </g>
   </g>
   <g id="LineCollection_6">
    <path clip-path="url(#pc76390193b)" d="M 564.170383 718.882326 
L 564.170383 660.070588 
L 622.98212 660.070588 
L 622.98212 601.258851 
" style="fill:none;stroke:#1f77b4;stroke-width:1.5;"/>
   </g>
   <g id="patch_28">
    <path d="M 480.414109 756 
L 480.414109 564.141176 
" style="fill:none;stroke:#000000;stroke-linecap:square;stroke-linejoin:miter;stroke-width:0.8;"/>
   </g>
   <g id="patch_29">
    <path d="M 770.422254 756 
L 770.422254 564.141176 
" style="fill:none;stroke:#000000;stroke-linecap:square;stroke-linejoin:miter;stroke-width:0.8;"/>
   </g>
   <g id="patch_30">
    <path d="M 480.414109 756 
L 770.422254 756 
" style="fill:none;stroke:#000000;stroke-linecap:square;stroke-linejoin:miter;stroke-width:0.8;"/>
   </g>
   <g id="patch_31">
    <path d="M 480.414109 564.141176 
L 770.422254 564.141176 
" style="fill:none;stroke:#000000;stroke-linecap:square;stroke-linejoin:miter;stroke-width:0.8;"/>
   </g>
   <g id="text_37">
    <!-- s.buffer(0.2, join_style=3) -->
    <g transform="translate(547.313182 558.141176)scale(0.12 -0.12)">
     <use xlink:href="#DejaVuSans-115"/>
     <use x="52.099609" xlink:href="#DejaVuSans-46"/>
     <use x="83.886719" xlink:href="#DejaVuSans-98"/>
     <use x="147.363281" xlink:href="#DejaVuSans-117"/>
     <use x="210.742188" xlink:href="#DejaVuSans-102"/>
     <use x="245.947266" xlink:href="#DejaVuSans-102"/>
     <use x="281.152344" xlink:href="#DejaVuSans-101"/>
     <use x="342.675781" xlink:href="#DejaVuSans-114"/>
     <use x="383.789062" xlink:href="#DejaVuSans-40"/>
     <use x="422.802734" xlink:href="#DejaVuSans-48"/>
     <use x="486.425781" xlink:href="#DejaVuSans-46"/>
     <use x="518.212891" xlink:href="#DejaVuSans-50"/>
     <use x="581.835938" xlink:href="#DejaVuSans-44"/>
     <use x="613.623047" xlink:href="#DejaVuSans-32"/>
     <use x="645.410156" xlink:href="#DejaVuSans-106"/>
     <use x="673.193359" xlink:href="#DejaVuSans-111"/>
     <use x="734.375" xlink:href="#DejaVuSans-105"/>
     <use x="762.158203" xlink:href="#DejaVuSans-110"/>
     <use x="825.537109" xlink:href="#DejaVuSans-95"/>
     <use x="875.537109" xlink:href="#DejaVuSans-115"/>
     <use x="927.636719" xlink:href="#DejaVuSans-116"/>
     <use x="966.845703" xlink:href="#DejaVuSans-121"/>
     <use x="1026.025391" xlink:href="#DejaVuSans-108"/>
     <use x="1053.808594" xlink:href="#DejaVuSans-101"/>
     <use x="1115.332031" xlink:href="#DejaVuSans-61"/>
     <use x="1199.121094" xlink:href="#DejaVuSans-51"/>
     <use x="1262.744141" xlink:href="#DejaVuSans-41"/>
    </g>
   </g>
  </g>
 </g>
 <defs>
  <clipPath id="p8beae937eb">
   <rect height="191.858824" width="290.008145" x="115.177746" y="103.68"/>
  </clipPath>
  <clipPath id="p8108b882b4">
   <rect height="191.858824" width="290.008145" x="480.414109" y="103.68"/>
  </clipPath>
  <clipPath id="p65d68b0b20">
   <rect height="191.858824" width="290.008145" x="115.177746" y="333.910588"/>
  </clipPath>
  <clipPath id="p409c94627b">
   <rect height="191.858824" width="290.008145" x="480.414109" y="333.910588"/>
  </clipPath>
  <clipPath id="pc7d62013d4">
   <rect height="191.858824" width="290.008145" x="115.177746" y="564.141176"/>
  </clipPath>
  <clipPath id="pc76390193b">
   <rect height="191.858824" width="290.008145" x="480.414109" y="564.141176"/>
  </clipPath>
 </defs>
</svg>
