<?xml version="1.0" encoding="UTF-8" standalone="no"?>
<!DOCTYPE svg PUBLIC "-//W3C//DTD SVG 1.1//EN" "http://www.w3.org/Graphics/SVG/1.1/DTD/svg11.dtd">
<svg width="100%" height="100%" viewBox="0 0 1531 629" version="1.1" xmlns="http://www.w3.org/2000/svg" xmlns:xlink="http://www.w3.org/1999/xlink" xml:space="preserve" xmlns:serif="http://www.serif.com/" style="fill-rule:evenodd;clip-rule:evenodd;stroke-miterlimit:10;">
    <g transform="matrix(1,0,0,1,-65.3935,-1793.3)">
        <g id="Artboard1" transform="matrix(0.799349,0,0,0.6338,71.418,752.489)">
            <rect x="-7.537" y="1642.17" width="1915.21" height="991.964" style="fill:none;"/>
            <g transform="matrix(5.21258,0,0,6.5741,242.724,1626.89)">
                <g transform="matrix(12,0,0,12,6.3135,144.35)">
                    <path d="M0.089,-0.1L0.287,-0.1L0.287,-0.451L0.114,-0.451L0.114,-0.55L0.394,-0.55L0.394,-0.1L0.555,-0.1L0.555,-0L0.089,-0L0.089,-0.1ZM0.247,-0.701C0.247,-0.72 0.253,-0.736 0.266,-0.748C0.278,-0.759 0.294,-0.765 0.315,-0.765L0.339,-0.765C0.36,-0.765 0.376,-0.759 0.389,-0.748C0.401,-0.736 0.407,-0.72 0.407,-0.701C0.407,-0.682 0.401,-0.666 0.389,-0.655C0.376,-0.644 0.359,-0.638 0.338,-0.638L0.315,-0.638C0.294,-0.638 0.278,-0.644 0.266,-0.655C0.253,-0.666 0.247,-0.682 0.247,-0.701Z" style="fill:rgb(29,29,27);fill-rule:nonzero;"/>
                </g>
                <g transform="matrix(12,0,0,12,13.5135,144.35)">
                    <path d="M0.079,-0.55L0.183,-0.55L0.183,-0.455L0.192,-0.455C0.199,-0.489 0.216,-0.515 0.241,-0.533C0.266,-0.551 0.299,-0.56 0.339,-0.56C0.368,-0.56 0.393,-0.555 0.416,-0.546C0.438,-0.536 0.457,-0.522 0.473,-0.505C0.488,-0.488 0.5,-0.467 0.508,-0.443C0.516,-0.418 0.52,-0.391 0.52,-0.362L0.52,-0L0.41,-0L0.41,-0.347C0.41,-0.385 0.4,-0.414 0.381,-0.435C0.362,-0.456 0.335,-0.466 0.301,-0.466C0.266,-0.466 0.239,-0.455 0.219,-0.433C0.199,-0.411 0.189,-0.381 0.189,-0.343L0.189,-0L0.079,-0L0.079,-0.55Z" style="fill:rgb(29,29,27);fill-rule:nonzero;"/>
                </g>
                <g transform="matrix(12,0,0,12,20.7135,144.35)">
                    <path d="M0.069,-0.345C0.069,-0.378 0.074,-0.408 0.083,-0.435C0.092,-0.461 0.104,-0.483 0.121,-0.502C0.137,-0.521 0.157,-0.535 0.18,-0.545C0.203,-0.555 0.229,-0.56 0.257,-0.56C0.297,-0.56 0.33,-0.551 0.357,-0.533C0.383,-0.514 0.4,-0.488 0.407,-0.455L0.416,-0.455C0.415,-0.466 0.415,-0.478 0.414,-0.489C0.413,-0.499 0.412,-0.509 0.412,-0.521C0.411,-0.532 0.411,-0.541 0.411,-0.55L0.411,-0.72L0.52,-0.72L0.52,-0L0.416,-0L0.416,-0.095L0.407,-0.095C0.4,-0.062 0.383,-0.036 0.357,-0.018C0.33,0.001 0.297,0.01 0.257,0.01C0.229,0.01 0.203,0.005 0.18,-0.005C0.157,-0.015 0.137,-0.029 0.121,-0.048C0.104,-0.067 0.092,-0.09 0.083,-0.117C0.074,-0.143 0.069,-0.174 0.069,-0.207L0.069,-0.345ZM0.179,-0.343L0.179,-0.208C0.179,-0.171 0.19,-0.141 0.211,-0.119C0.232,-0.097 0.26,-0.086 0.297,-0.086C0.332,-0.086 0.359,-0.097 0.38,-0.119C0.401,-0.141 0.411,-0.17 0.411,-0.207L0.411,-0.343C0.411,-0.38 0.401,-0.41 0.38,-0.432C0.359,-0.454 0.331,-0.465 0.297,-0.465C0.26,-0.465 0.232,-0.454 0.211,-0.433C0.19,-0.411 0.179,-0.381 0.179,-0.343Z" style="fill:rgb(29,29,27);fill-rule:nonzero;"/>
                </g>
                <g transform="matrix(12,0,0,12,27.9135,144.35)">
                    <path d="M0.069,-0.347C0.069,-0.38 0.074,-0.409 0.085,-0.436C0.096,-0.462 0.111,-0.484 0.131,-0.503C0.151,-0.521 0.175,-0.535 0.204,-0.545C0.233,-0.555 0.265,-0.56 0.3,-0.56C0.335,-0.56 0.367,-0.555 0.396,-0.545C0.424,-0.535 0.448,-0.521 0.468,-0.503C0.488,-0.484 0.503,-0.462 0.514,-0.436C0.525,-0.409 0.53,-0.38 0.53,-0.347L0.53,-0.246L0.178,-0.246L0.178,-0.207C0.178,-0.168 0.189,-0.137 0.211,-0.115C0.232,-0.093 0.262,-0.082 0.3,-0.082C0.328,-0.082 0.352,-0.086 0.373,-0.095C0.394,-0.104 0.409,-0.117 0.418,-0.134L0.526,-0.134C0.52,-0.112 0.51,-0.092 0.497,-0.075C0.484,-0.057 0.467,-0.042 0.448,-0.029C0.428,-0.016 0.405,-0.007 0.381,-0C0.356,0.007 0.329,0.01 0.3,0.01C0.265,0.01 0.233,0.005 0.205,-0.005C0.176,-0.015 0.152,-0.029 0.132,-0.048C0.112,-0.067 0.097,-0.089 0.086,-0.116C0.075,-0.142 0.069,-0.171 0.069,-0.204L0.069,-0.347ZM0.178,-0.326L0.422,-0.326L0.422,-0.347C0.422,-0.385 0.411,-0.415 0.39,-0.436C0.369,-0.457 0.339,-0.468 0.3,-0.468C0.261,-0.468 0.231,-0.457 0.21,-0.436C0.189,-0.415 0.178,-0.385 0.178,-0.347L0.178,-0.326Z" style="fill:rgb(29,29,27);fill-rule:nonzero;"/>
                </g>
                <g transform="matrix(12,0,0,12,35.1135,144.35)">
                    <path d="M0.237,-0.283L0.051,-0.55L0.179,-0.55L0.281,-0.395C0.287,-0.387 0.291,-0.379 0.294,-0.37C0.296,-0.366 0.297,-0.362 0.298,-0.359L0.303,-0.359C0.304,-0.362 0.305,-0.366 0.307,-0.37C0.309,-0.377 0.313,-0.385 0.32,-0.395L0.423,-0.55L0.549,-0.55L0.364,-0.284L0.561,-0L0.433,-0L0.322,-0.169C0.319,-0.174 0.316,-0.178 0.314,-0.183C0.311,-0.188 0.309,-0.192 0.308,-0.195C0.306,-0.199 0.304,-0.203 0.303,-0.207L0.297,-0.207C0.296,-0.203 0.294,-0.199 0.292,-0.194C0.291,-0.191 0.289,-0.187 0.287,-0.183C0.285,-0.178 0.282,-0.174 0.279,-0.169L0.166,-0L0.039,-0L0.237,-0.283Z" style="fill:rgb(29,29,27);fill-rule:nonzero;"/>
                </g>
            </g>
            <g transform="matrix(5.21258,0,0,6.5741,511.19,1626.9)">
                <g transform="matrix(12,0,0,12,60.8892,144.35)">
                    <path d="M0.069,-0.345C0.069,-0.378 0.074,-0.408 0.083,-0.435C0.092,-0.461 0.104,-0.483 0.121,-0.502C0.137,-0.521 0.157,-0.535 0.18,-0.545C0.203,-0.555 0.229,-0.56 0.257,-0.56C0.297,-0.56 0.33,-0.551 0.357,-0.533C0.383,-0.514 0.4,-0.488 0.407,-0.455L0.416,-0.455C0.415,-0.466 0.415,-0.478 0.414,-0.489C0.413,-0.499 0.412,-0.509 0.412,-0.521C0.411,-0.532 0.411,-0.541 0.411,-0.55L0.411,-0.72L0.52,-0.72L0.52,-0L0.416,-0L0.416,-0.095L0.407,-0.095C0.4,-0.062 0.383,-0.036 0.357,-0.018C0.33,0.001 0.297,0.01 0.257,0.01C0.229,0.01 0.203,0.005 0.18,-0.005C0.157,-0.015 0.137,-0.029 0.121,-0.048C0.104,-0.067 0.092,-0.09 0.083,-0.117C0.074,-0.143 0.069,-0.174 0.069,-0.207L0.069,-0.345ZM0.179,-0.343L0.179,-0.208C0.179,-0.171 0.19,-0.141 0.211,-0.119C0.232,-0.097 0.26,-0.086 0.297,-0.086C0.332,-0.086 0.359,-0.097 0.38,-0.119C0.401,-0.141 0.411,-0.17 0.411,-0.207L0.411,-0.343C0.411,-0.38 0.401,-0.41 0.38,-0.432C0.359,-0.454 0.331,-0.465 0.297,-0.465C0.26,-0.465 0.232,-0.454 0.211,-0.433C0.19,-0.411 0.179,-0.381 0.179,-0.343Z" style="fill:rgb(29,29,27);fill-rule:nonzero;"/>
                </g>
                <g transform="matrix(12,0,0,12,68.0892,144.35)">
                    <path d="M0.056,-0.157C0.056,-0.21 0.075,-0.253 0.112,-0.284C0.149,-0.315 0.199,-0.331 0.262,-0.331L0.411,-0.331L0.411,-0.377C0.411,-0.406 0.401,-0.429 0.381,-0.446C0.36,-0.462 0.331,-0.47 0.294,-0.47C0.265,-0.47 0.241,-0.465 0.221,-0.455C0.201,-0.444 0.188,-0.43 0.181,-0.411L0.073,-0.411C0.082,-0.457 0.106,-0.493 0.146,-0.52C0.186,-0.547 0.236,-0.56 0.295,-0.56C0.365,-0.56 0.42,-0.544 0.461,-0.512C0.501,-0.48 0.521,-0.436 0.521,-0.38L0.521,-0L0.419,-0L0.419,-0.107L0.411,-0.107C0.404,-0.071 0.384,-0.043 0.353,-0.022C0.321,-0.001 0.282,0.01 0.235,0.01C0.18,0.01 0.137,-0.005 0.105,-0.036C0.072,-0.066 0.056,-0.106 0.056,-0.157ZM0.166,-0.166C0.166,-0.138 0.175,-0.116 0.193,-0.101C0.211,-0.086 0.236,-0.078 0.269,-0.078C0.29,-0.078 0.309,-0.081 0.326,-0.086C0.343,-0.091 0.358,-0.099 0.371,-0.109C0.384,-0.118 0.394,-0.13 0.401,-0.143C0.408,-0.156 0.411,-0.17 0.411,-0.185L0.411,-0.254L0.263,-0.254C0.233,-0.254 0.209,-0.246 0.192,-0.231C0.175,-0.216 0.166,-0.194 0.166,-0.166Z" style="fill:rgb(29,29,27);fill-rule:nonzero;"/>
                </g>
                <g transform="matrix(12,0,0,12,75.2892,144.35)">
                    <path d="M0.052,-0.55L0.207,-0.55L0.207,-0.72L0.317,-0.72L0.317,-0.55L0.528,-0.55L0.528,-0.451L0.317,-0.451L0.317,-0.158C0.317,-0.14 0.322,-0.126 0.333,-0.116C0.344,-0.105 0.359,-0.1 0.378,-0.1L0.518,-0.1L0.518,-0L0.373,-0C0.322,-0 0.281,-0.014 0.252,-0.043C0.222,-0.072 0.207,-0.11 0.207,-0.158L0.207,-0.451L0.052,-0.451L0.052,-0.55Z" style="fill:rgb(29,29,27);fill-rule:nonzero;"/>
                </g>
                <g transform="matrix(12,0,0,12,82.4892,144.35)">
                    <path d="M0.056,-0.157C0.056,-0.21 0.075,-0.253 0.112,-0.284C0.149,-0.315 0.199,-0.331 0.262,-0.331L0.411,-0.331L0.411,-0.377C0.411,-0.406 0.401,-0.429 0.381,-0.446C0.36,-0.462 0.331,-0.47 0.294,-0.47C0.265,-0.47 0.241,-0.465 0.221,-0.455C0.201,-0.444 0.188,-0.43 0.181,-0.411L0.073,-0.411C0.082,-0.457 0.106,-0.493 0.146,-0.52C0.186,-0.547 0.236,-0.56 0.295,-0.56C0.365,-0.56 0.42,-0.544 0.461,-0.512C0.501,-0.48 0.521,-0.436 0.521,-0.38L0.521,-0L0.419,-0L0.419,-0.107L0.411,-0.107C0.404,-0.071 0.384,-0.043 0.353,-0.022C0.321,-0.001 0.282,0.01 0.235,0.01C0.18,0.01 0.137,-0.005 0.105,-0.036C0.072,-0.066 0.056,-0.106 0.056,-0.157ZM0.166,-0.166C0.166,-0.138 0.175,-0.116 0.193,-0.101C0.211,-0.086 0.236,-0.078 0.269,-0.078C0.29,-0.078 0.309,-0.081 0.326,-0.086C0.343,-0.091 0.358,-0.099 0.371,-0.109C0.384,-0.118 0.394,-0.13 0.401,-0.143C0.408,-0.156 0.411,-0.17 0.411,-0.185L0.411,-0.254L0.263,-0.254C0.233,-0.254 0.209,-0.246 0.192,-0.231C0.175,-0.216 0.166,-0.194 0.166,-0.166Z" style="fill:rgb(29,29,27);fill-rule:nonzero;"/>
                </g>
            </g>
            <g transform="matrix(5.21258,0,0,6.5741,242.724,1632)">
                <g opacity="0.2">
                    <g transform="matrix(-1,0,0,1,48.676,-90.177)">
                        <rect x="5.237" y="117.958" width="38.202" height="19.101" style="fill:rgb(15,157,90);stroke:white;stroke-width:1px;"/>
                    </g>
                </g>
            </g>
            <g transform="matrix(5.21258,0,0,6.5741,242.724,1632)">
                <g opacity="0.4">
                    <g transform="matrix(-1,0,0,1,48.676,-51.975)">
                        <rect x="5.237" y="98.857" width="38.202" height="19.101" style="fill:rgb(15,157,90);stroke:white;stroke-width:1px;"/>
                    </g>
                </g>
            </g>
            <g transform="matrix(5.21258,0,0,6.5741,242.724,1632)">
                <g opacity="0.6">
                    <g transform="matrix(-1,0,0,1,48.676,-13.771)">
                        <rect x="5.237" y="79.755" width="38.202" height="19.101" style="fill:rgb(15,157,90);stroke:white;stroke-width:1px;"/>
                    </g>
                </g>
            </g>
            <g transform="matrix(5.21258,0,0,6.5741,242.724,1632)">
                <g opacity="0.8">
                    <g transform="matrix(-1,0,0,1,48.676,24.431)">
                        <rect x="5.237" y="60.654" width="38.202" height="19.101" style="fill:rgb(15,157,90);stroke:white;stroke-width:1px;"/>
                    </g>
                </g>
            </g>
            <g transform="matrix(-5.21258,0,0,6.5741,496.451,2043.75)">
                <rect x="5.237" y="41.553" width="38.202" height="19.101" style="fill:rgb(15,157,90);stroke:white;stroke-width:1px;"/>
            </g>
            <g transform="matrix(-3.15195,0,0,6.5741,912.853,1039.17)">
                <rect x="48.041" y="117.958" width="83.409" height="19.101" style="fill:rgb(255,238,196);stroke:white;stroke-width:1.21px;"/>
            </g>
            <g transform="matrix(-3.15195,0,0,6.5741,1188.41,1039.17)">
                <rect x="48.041" y="117.958" width="83.409" height="19.101" style="fill:rgb(255,238,196);stroke:white;stroke-width:1.21px;"/>
            </g>
            <g transform="matrix(-3.15195,0,0,6.5741,1464.92,1039.17)">
                <rect x="48.041" y="117.958" width="83.409" height="19.101" style="fill:rgb(255,238,196);stroke:white;stroke-width:1.21px;"/>
            </g>
            <g transform="matrix(-3.15195,0,0,6.5741,912.853,788.023)">
                <rect x="48.041" y="137.059" width="83.409" height="19.101" style="fill:rgb(255,211,85);stroke:white;stroke-width:1.21px;"/>
            </g>
            <g transform="matrix(-3.15195,0,0,6.5741,1188.41,788.023)">
                <rect x="48.041" y="137.059" width="83.409" height="19.101" style="fill:rgb(255,211,85);stroke:white;stroke-width:1.21px;"/>
            </g>
            <g transform="matrix(-3.15195,0,0,6.5741,1464.92,788.023)">
                <rect x="48.041" y="137.059" width="83.409" height="19.101" style="fill:rgb(255,211,85);stroke:white;stroke-width:1.21px;"/>
            </g>
            <g transform="matrix(-3.15195,0,0,6.5741,912.853,1290.31)">
                <rect x="48.041" y="98.857" width="83.409" height="19.101" style="fill:rgb(255,238,196);stroke:white;stroke-width:1.21px;"/>
            </g>
            <g transform="matrix(-3.15195,0,0,6.5741,1188.41,1290.31)">
                <rect x="48.041" y="98.857" width="83.409" height="19.101" style="fill:rgb(255,238,196);stroke:white;stroke-width:1.21px;"/>
            </g>
            <g transform="matrix(-3.15195,0,0,6.5741,1464.92,1290.31)">
                <rect x="48.041" y="98.857" width="83.409" height="19.101" style="fill:rgb(255,238,196);stroke:white;stroke-width:1.21px;"/>
            </g>
            <g transform="matrix(-3.15195,0,0,6.5741,912.853,1541.47)">
                <rect x="48.041" y="79.755" width="83.409" height="19.101" style="fill:rgb(255,238,196);stroke:white;stroke-width:1.21px;"/>
            </g>
            <g transform="matrix(-3.15195,0,0,6.5741,1188.41,1541.47)">
                <rect x="48.041" y="79.755" width="83.409" height="19.101" style="fill:rgb(255,238,196);stroke:white;stroke-width:1.21px;"/>
            </g>
            <g transform="matrix(-3.15195,0,0,6.5741,1464.92,1541.47)">
                <rect x="48.041" y="79.755" width="83.409" height="19.101" style="fill:rgb(255,238,196);stroke:white;stroke-width:1.21px;"/>
            </g>
            <g transform="matrix(-3.15195,0,0,6.5741,912.853,1792.61)">
                <rect x="48.041" y="60.654" width="83.409" height="19.101" style="fill:rgb(255,238,196);stroke:white;stroke-width:1.21px;"/>
            </g>
            <g transform="matrix(-3.15195,0,0,6.5741,1188.41,1792.61)">
                <rect x="48.041" y="60.654" width="83.409" height="19.101" style="fill:rgb(255,238,196);stroke:white;stroke-width:1.21px;"/>
            </g>
            <g transform="matrix(-3.15195,0,0,6.5741,1464.92,1792.61)">
                <rect x="48.041" y="60.654" width="83.409" height="19.101" style="fill:rgb(255,238,196);stroke:white;stroke-width:1.21px;"/>
            </g>
            <g transform="matrix(-3.15195,0,0,6.5741,912.853,2043.75)">
                <rect x="48.041" y="41.553" width="83.409" height="19.101" style="fill:rgb(255,238,196);stroke:white;stroke-width:1.21px;"/>
            </g>
            <g transform="matrix(-3.15195,0,0,6.5741,1188.41,2043.75)">
                <rect x="48.041" y="41.553" width="83.409" height="19.101" style="fill:rgb(255,238,196);stroke:white;stroke-width:1.21px;"/>
            </g>
            <g transform="matrix(-3.15195,0,0,6.5741,1464.92,2043.75)">
                <rect x="48.041" y="41.553" width="83.409" height="19.101" style="fill:rgb(255,238,196);stroke:white;stroke-width:1.21px;"/>
            </g>
            <g transform="matrix(-5.21258,0,0,6.5741,496.196,1539.33)">
                <rect x="3.188" y="39.493" width="42.251" height="99.95" style="fill:none;stroke:rgb(29,29,27);stroke-width:0.5px;"/>
            </g>
            <g transform="matrix(-9.67868,0,0,6.5741,1773.61,1413.32)">
                <rect x="46.279" y="39.493" width="86.813" height="119.117" style="fill:none;stroke:rgb(29,29,27);stroke-width:0.34px;"/>
            </g>
            <g transform="matrix(-3.39963,0,0,6.5741,1784.48,1413.32)">
                <rect x="46.279" y="39.493" width="86.813" height="119.117" style="fill:none;stroke:rgb(29,29,27);stroke-width:0.59px;"/>
            </g>
            <g transform="matrix(3.12731,0,0,6.5741,608.309,1635.41)">
                <g opacity="0.2">
                    <g transform="matrix(-1,0,0,1,557.99,-90.177)">
                        <rect x="237.291" y="117.958" width="83.408" height="19.101" style="fill:rgb(226,28,132);stroke:white;stroke-width:1.21px;"/>
                    </g>
                </g>
            </g>
            <g transform="matrix(3.12731,0,0,6.5741,608.309,1635.41)">
                <g opacity="0.4">
                    <g transform="matrix(-1,0,0,1,557.99,-128.379)">
                        <rect x="237.291" y="137.059" width="83.408" height="19.101" style="fill:rgb(226,28,132);stroke:white;stroke-width:1.21px;"/>
                    </g>
                </g>
            </g>
            <g transform="matrix(3.12731,0,0,6.5741,608.309,1635.41)">
                <g opacity="0.2">
                    <g transform="matrix(-1,0,0,1,557.99,-51.975)">
                        <rect x="237.291" y="98.857" width="83.408" height="19.101" style="fill:rgb(226,28,132);stroke:white;stroke-width:1.21px;"/>
                    </g>
                </g>
            </g>
            <g transform="matrix(3.12731,0,0,6.5741,608.309,1635.41)">
                <g opacity="0.2">
                    <g transform="matrix(-1,0,0,1,557.99,-13.771)">
                        <rect x="237.291" y="79.755" width="83.408" height="19.101" style="fill:rgb(226,28,132);stroke:white;stroke-width:1.21px;"/>
                    </g>
                </g>
            </g>
            <g transform="matrix(3.12731,0,0,6.5741,608.309,1635.41)">
                <g opacity="0.2">
                    <g transform="matrix(-1,0,0,1,557.99,24.431)">
                        <rect x="237.291" y="60.654" width="83.408" height="19.101" style="fill:rgb(226,28,132);stroke:white;stroke-width:1.21px;"/>
                    </g>
                </g>
            </g>
            <g transform="matrix(3.12731,0,0,6.5741,608.309,1635.41)">
                <g opacity="0.2">
                    <g transform="matrix(-1,0,0,1,557.99,62.633)">
                        <rect x="237.291" y="41.553" width="83.408" height="19.101" style="fill:rgb(226,28,132);stroke:white;stroke-width:1.21px;"/>
                    </g>
                </g>
            </g>
            <g transform="matrix(5.21258,0,0,6.5741,1013.41,1626.9)">
                <g transform="matrix(12,0,0,12,60.8892,144.35)">
                    <path d="M0.065,-0.348C0.065,-0.38 0.069,-0.409 0.078,-0.436C0.087,-0.462 0.099,-0.484 0.116,-0.503C0.133,-0.521 0.153,-0.535 0.176,-0.545C0.199,-0.555 0.225,-0.56 0.254,-0.56C0.295,-0.56 0.329,-0.55 0.356,-0.531C0.383,-0.512 0.401,-0.485 0.409,-0.45L0.416,-0.45L0.416,-0.55L0.52,-0.55L0.52,-0.033C0.52,0.03 0.5,0.079 0.461,0.116C0.421,0.152 0.366,0.17 0.297,0.17L0.155,0.17L0.155,0.076L0.297,0.076C0.332,0.076 0.36,0.066 0.381,0.047C0.401,0.028 0.411,0.001 0.411,-0.033L0.411,-0.052L0.415,-0.152L0.409,-0.152C0.4,-0.117 0.382,-0.09 0.355,-0.071C0.328,-0.052 0.294,-0.042 0.253,-0.042C0.224,-0.042 0.199,-0.047 0.176,-0.057C0.153,-0.067 0.133,-0.081 0.117,-0.1C0.1,-0.118 0.088,-0.14 0.079,-0.166C0.07,-0.192 0.065,-0.221 0.065,-0.253L0.065,-0.348ZM0.176,-0.255C0.176,-0.218 0.187,-0.19 0.208,-0.169C0.229,-0.148 0.257,-0.137 0.293,-0.137C0.33,-0.137 0.359,-0.148 0.38,-0.169C0.401,-0.19 0.411,-0.218 0.411,-0.255L0.411,-0.347C0.411,-0.384 0.401,-0.413 0.38,-0.434C0.359,-0.455 0.33,-0.465 0.293,-0.465C0.257,-0.465 0.229,-0.455 0.208,-0.434C0.187,-0.413 0.176,-0.384 0.176,-0.347L0.176,-0.255Z" style="fill:rgb(29,29,27);fill-rule:nonzero;"/>
                </g>
                <g transform="matrix(12,0,0,12,68.0892,144.35)">
                    <path d="M0.069,-0.347C0.069,-0.38 0.074,-0.409 0.085,-0.436C0.096,-0.462 0.111,-0.484 0.131,-0.503C0.151,-0.521 0.175,-0.535 0.204,-0.545C0.233,-0.555 0.265,-0.56 0.3,-0.56C0.335,-0.56 0.367,-0.555 0.396,-0.545C0.424,-0.535 0.448,-0.521 0.468,-0.503C0.488,-0.484 0.503,-0.462 0.514,-0.436C0.525,-0.409 0.53,-0.38 0.53,-0.347L0.53,-0.246L0.178,-0.246L0.178,-0.207C0.178,-0.168 0.189,-0.137 0.211,-0.115C0.232,-0.093 0.262,-0.082 0.3,-0.082C0.328,-0.082 0.352,-0.086 0.373,-0.095C0.394,-0.104 0.409,-0.117 0.418,-0.134L0.526,-0.134C0.52,-0.112 0.51,-0.092 0.497,-0.075C0.484,-0.057 0.467,-0.042 0.448,-0.029C0.428,-0.016 0.405,-0.007 0.381,-0C0.356,0.007 0.329,0.01 0.3,0.01C0.265,0.01 0.233,0.005 0.205,-0.005C0.176,-0.015 0.152,-0.029 0.132,-0.048C0.112,-0.067 0.097,-0.089 0.086,-0.116C0.075,-0.142 0.069,-0.171 0.069,-0.204L0.069,-0.347ZM0.178,-0.326L0.422,-0.326L0.422,-0.347C0.422,-0.385 0.411,-0.415 0.39,-0.436C0.369,-0.457 0.339,-0.468 0.3,-0.468C0.261,-0.468 0.231,-0.457 0.21,-0.436C0.189,-0.415 0.178,-0.385 0.178,-0.347L0.178,-0.326Z" style="fill:rgb(29,29,27);fill-rule:nonzero;"/>
                </g>
                <g transform="matrix(12,0,0,12,75.2892,144.35)">
                    <path d="M0.3,0.01C0.265,0.01 0.233,0.005 0.205,-0.006C0.176,-0.016 0.152,-0.031 0.132,-0.05C0.112,-0.069 0.097,-0.091 0.086,-0.118C0.075,-0.145 0.069,-0.174 0.069,-0.207L0.069,-0.344C0.069,-0.377 0.075,-0.406 0.086,-0.433C0.097,-0.46 0.112,-0.483 0.132,-0.502C0.152,-0.521 0.176,-0.535 0.205,-0.546C0.233,-0.556 0.265,-0.561 0.3,-0.561C0.335,-0.561 0.367,-0.556 0.396,-0.546C0.424,-0.536 0.448,-0.522 0.468,-0.503C0.488,-0.484 0.503,-0.461 0.515,-0.435C0.526,-0.408 0.531,-0.378 0.531,-0.345L0.531,-0.207C0.531,-0.174 0.526,-0.145 0.515,-0.118C0.504,-0.091 0.489,-0.068 0.469,-0.049C0.449,-0.03 0.425,-0.016 0.396,-0.006C0.367,0.005 0.335,0.01 0.3,0.01ZM0.179,-0.207C0.179,-0.17 0.19,-0.14 0.211,-0.119C0.232,-0.098 0.262,-0.087 0.3,-0.087C0.337,-0.087 0.367,-0.098 0.389,-0.119C0.41,-0.14 0.421,-0.17 0.421,-0.207L0.421,-0.344C0.421,-0.381 0.41,-0.411 0.389,-0.432C0.367,-0.453 0.337,-0.464 0.3,-0.464C0.263,-0.464 0.233,-0.453 0.212,-0.432C0.19,-0.411 0.179,-0.381 0.179,-0.344L0.179,-0.207Z" style="fill:rgb(29,29,27);fill-rule:nonzero;"/>
                </g>
                <g transform="matrix(12,0,0,12,82.4892,144.35)">
                    <path d="M0.055,-0L0.055,-0.55L0.146,-0.55L0.146,-0.469L0.154,-0.469C0.156,-0.498 0.165,-0.52 0.181,-0.536C0.196,-0.552 0.217,-0.56 0.244,-0.56C0.269,-0.56 0.289,-0.552 0.304,-0.537C0.319,-0.522 0.329,-0.499 0.336,-0.469L0.343,-0.469C0.345,-0.498 0.354,-0.52 0.37,-0.536C0.386,-0.552 0.408,-0.56 0.435,-0.56C0.468,-0.56 0.495,-0.548 0.516,-0.523C0.536,-0.498 0.546,-0.463 0.546,-0.419L0.546,-0L0.445,-0L0.445,-0.414C0.445,-0.435 0.441,-0.452 0.432,-0.463C0.423,-0.474 0.411,-0.48 0.394,-0.48C0.359,-0.48 0.341,-0.457 0.341,-0.41L0.341,-0L0.26,-0L0.26,-0.414C0.26,-0.435 0.255,-0.452 0.246,-0.463C0.237,-0.474 0.223,-0.48 0.206,-0.48C0.171,-0.48 0.154,-0.457 0.154,-0.41L0.154,-0L0.055,-0Z" style="fill:rgb(29,29,27);fill-rule:nonzero;"/>
                </g>
                <g transform="matrix(12,0,0,12,89.6892,144.35)">
                    <path d="M0.069,-0.347C0.069,-0.38 0.074,-0.409 0.085,-0.436C0.096,-0.462 0.111,-0.484 0.131,-0.503C0.151,-0.521 0.175,-0.535 0.204,-0.545C0.233,-0.555 0.265,-0.56 0.3,-0.56C0.335,-0.56 0.367,-0.555 0.396,-0.545C0.424,-0.535 0.448,-0.521 0.468,-0.503C0.488,-0.484 0.503,-0.462 0.514,-0.436C0.525,-0.409 0.53,-0.38 0.53,-0.347L0.53,-0.246L0.178,-0.246L0.178,-0.207C0.178,-0.168 0.189,-0.137 0.211,-0.115C0.232,-0.093 0.262,-0.082 0.3,-0.082C0.328,-0.082 0.352,-0.086 0.373,-0.095C0.394,-0.104 0.409,-0.117 0.418,-0.134L0.526,-0.134C0.52,-0.112 0.51,-0.092 0.497,-0.075C0.484,-0.057 0.467,-0.042 0.448,-0.029C0.428,-0.016 0.405,-0.007 0.381,-0C0.356,0.007 0.329,0.01 0.3,0.01C0.265,0.01 0.233,0.005 0.205,-0.005C0.176,-0.015 0.152,-0.029 0.132,-0.048C0.112,-0.067 0.097,-0.089 0.086,-0.116C0.075,-0.142 0.069,-0.171 0.069,-0.204L0.069,-0.347ZM0.178,-0.326L0.422,-0.326L0.422,-0.347C0.422,-0.385 0.411,-0.415 0.39,-0.436C0.369,-0.457 0.339,-0.468 0.3,-0.468C0.261,-0.468 0.231,-0.457 0.21,-0.436C0.189,-0.415 0.178,-0.385 0.178,-0.347L0.178,-0.326Z" style="fill:rgb(29,29,27);fill-rule:nonzero;"/>
                </g>
                <g transform="matrix(12,0,0,12,96.8892,144.35)">
                    <path d="M0.052,-0.55L0.207,-0.55L0.207,-0.72L0.317,-0.72L0.317,-0.55L0.528,-0.55L0.528,-0.451L0.317,-0.451L0.317,-0.158C0.317,-0.14 0.322,-0.126 0.333,-0.116C0.344,-0.105 0.359,-0.1 0.378,-0.1L0.518,-0.1L0.518,-0L0.373,-0C0.322,-0 0.281,-0.014 0.252,-0.043C0.222,-0.072 0.207,-0.11 0.207,-0.158L0.207,-0.451L0.052,-0.451L0.052,-0.55Z" style="fill:rgb(29,29,27);fill-rule:nonzero;"/>
                </g>
                <g transform="matrix(12,0,0,12,104.089,144.35)">
                    <path d="M0.206,-0.55L0.206,-0.455L0.215,-0.455C0.222,-0.488 0.24,-0.514 0.267,-0.533C0.294,-0.551 0.327,-0.56 0.368,-0.56C0.427,-0.56 0.473,-0.542 0.506,-0.506C0.539,-0.469 0.556,-0.419 0.556,-0.354L0.556,-0.318L0.443,-0.318L0.443,-0.343C0.443,-0.382 0.433,-0.412 0.412,-0.434C0.391,-0.455 0.363,-0.466 0.327,-0.466C0.292,-0.466 0.264,-0.455 0.243,-0.433C0.222,-0.411 0.212,-0.381 0.212,-0.343L0.212,-0L0.102,-0L0.102,-0.55L0.206,-0.55Z" style="fill:rgb(29,29,27);fill-rule:nonzero;"/>
                </g>
                <g transform="matrix(12,0,0,12,111.289,144.35)">
                    <path d="M0.042,-0.55L0.162,-0.55L0.278,-0.247C0.283,-0.234 0.288,-0.221 0.291,-0.208C0.294,-0.195 0.296,-0.182 0.298,-0.171C0.3,-0.158 0.302,-0.146 0.303,-0.135L0.311,-0.135C0.312,-0.146 0.313,-0.158 0.315,-0.171C0.317,-0.182 0.32,-0.194 0.323,-0.207C0.326,-0.22 0.329,-0.234 0.334,-0.247L0.442,-0.55L0.558,-0.55L0.294,0.17L0.178,0.17L0.254,-0.035L0.042,-0.55Z" style="fill:rgb(29,29,27);fill-rule:nonzero;"/>
                </g>
            </g>
        </g>
    </g>
</svg>
