<svg xmlns="http://www.w3.org/2000/svg" viewBox="0 0 1170.16 276.91"><defs><style>.cls-1{fill:#130754;}.cls-2{fill:#ffca00;}.cls-3{fill:#e70488;}</style></defs><g id="Layer_2" data-name="Layer 2"><path class="cls-1" d="M402.44,197.83c-31.14,0-57.42-22.14-57.42-57.06s27.36-56.34,58.86-56.34c14.22,0,29.34,4.14,38.34,11v20c-9-7.56-20.16-13.32-36.18-13.32-22.5,0-38.16,14.76-38.16,39.6,0,24.3,15.3,39.6,36.9,39.6,8.28,0,15.3-1.62,20.88-4.5V155.71H406.58v-16.2h40.14v47.7C440.6,189.73,423.68,197.83,402.44,197.83Z"/><path class="cls-1" d="M532,156.43H480.2c-.54,11.88,5.58,25.38,26.46,25.38,8.82,0,19.26-4,25.2-9.18v15.12c-7.38,5.76-18.72,9.18-31.68,9.18-23.94,0-40.68-17.46-40.68-41.58,0-24.84,19.08-40.5,39.24-40.5,19.8,0,34.56,12.42,34.56,30.78A49.41,49.41,0,0,1,532,156.43Zm-32.76-28.26c-8.82,0-16.38,5-18.18,17.1h33.3C516.2,135.91,510.08,128.17,499.28,128.17Z"/><path class="cls-1" d="M585.32,197.65c-25.2,0-43.74-18.18-43.74-41.76,0-23.4,18.54-41.76,43.74-41.76,25,0,43.56,18.36,43.56,41.76C628.88,179.47,610.34,197.65,585.32,197.65Zm0-68.22c-14,0-23.22,10.8-23.22,26.46,0,15.84,9.36,26.46,23.22,26.46s23-10.62,23-26.46C608.36,140.23,599.18,129.43,585.32,129.43Z"/><path class="cls-1" d="M682,155.53H662.9v39.24h-22v-108h41c25.91,0,37.43,15.84,37.43,34.38C719.41,139.87,707.89,155.53,682,155.53Zm-3.6-53.1H662.9v37.44h15.48c14.22,0,19.26-8.46,19.26-18.72C697.64,111.07,692.6,102.43,678.38,102.43Z"/><path class="cls-1" d="M788.89,194.77l-.72-12.42c-6.48,9.54-18,14.58-29,14.58-21.06,0-36.54-17.64-36.54-41s15.48-41,36.54-41c11,0,22.49,5,29,14.58l.72-12.42h18.9v77.76Zm-23.21-64.44c-12.24,0-22.14,9.54-22.14,25.56s9.9,25.56,22.14,25.56,22.13-9.54,22.13-25.56S777.92,130.33,765.68,130.33Z"/><path class="cls-1" d="M880.51,194.77v-43c0-15.12-5.21-20.16-14.75-20.16-9.9,0-20.7,9-20.7,19.8v43.38H824.18V117h19.08l.9,14.4c5.22-9.9,16.92-16.56,28.79-16.56,20.7,0,28.44,14.4,28.44,33.66v46.26Z"/><path class="cls-1" d="M979.33,194.77l-.72-12.42c-6.48,9.54-18,14.58-29,14.58-21,0-36.53-17.64-36.53-41s15.48-41,36.53-41c10.44,0,21.06,4.32,27.72,12.78V86.77h20.88v108Zm-23.22-64.44c-12.24,0-22.14,9.54-22.14,25.56s9.9,25.56,22.14,25.56,22.14-9.54,22.14-25.56S968.35,130.33,956.11,130.33Z"/><path class="cls-1" d="M1076.35,194.77l-.72-12.42c-6.48,9.54-18,14.58-29,14.58-21.06,0-36.54-17.64-36.54-41s15.48-41,36.54-41c11,0,22.5,5,29,14.58l.72-12.42h18.9v77.76Zm-23.22-64.44c-12.24,0-22.14,9.54-22.14,25.56s9.9,25.56,22.14,25.56,22.14-9.54,22.14-25.56S1065.37,130.33,1053.13,130.33Z"/><path class="cls-1" d="M1137.37,197.29a61.17,61.17,0,0,1-31.14-8.82l3.42-14.4c6.3,3.78,15.84,8.64,27.36,8.64,8.28,0,14-2.52,14-9,0-5.58-5.94-7.56-16.56-10.08-19.08-4.14-25.92-14.22-25.92-25.2,0-12.24,9.54-23.76,30.6-23.76,12.78,0,23.94,5.58,26.46,7l-3.42,13.68a45.3,45.3,0,0,0-22.5-6.48c-8.46,0-12.6,2.88-12.6,7.56,0,5.22,5.4,7.56,13.68,9.54,20.52,4.32,28.8,13.86,28.8,24.3C1169.59,187,1157.35,197.29,1137.37,197.29Z"/></g><g id="Layer_5" data-name="Layer 5"><rect class="cls-1" x="142.57" y="65.01" width="24.09" height="50.02"/><rect class="cls-1" x="142.57" y="167.76" width="24.09" height="50.02"/><rect class="cls-2" x="142.57" y="129.63" width="24.09" height="23.6"/><rect class="cls-1" x="180.47" y="106.2" width="24.09" height="50.02"/><rect class="cls-3" x="180.47" y="170.82" width="24.09" height="23.6"/><path class="cls-1" d="M138.45,0C62.11,0,0,62.11,0,138.45S62.11,276.91,138.45,276.91,276.91,214.8,276.91,138.45,214.8,0,138.45,0ZM251.91,138.45a112.72,112.72,0,0,1-9.46,45.32V93.13A112.75,112.75,0,0,1,251.91,138.45ZM204.56,230.6V209H180.47v34.81a112.9,112.9,0,0,1-42,8.07c-3.53,0-7-.18-10.48-.49V106.14H103.88V246.51A113.44,113.44,0,1,1,218.36,58V218.25H219A114.42,114.42,0,0,1,204.56,230.6Z"/></g></svg>