<?xml version="1.0" encoding="UTF-8" standalone="no"?>
<svg
   xmlns:dc="http://purl.org/dc/elements/1.1/"
   xmlns:cc="http://creativecommons.org/ns#"
   xmlns:rdf="http://www.w3.org/1999/02/22-rdf-syntax-ns#"
   xmlns:svg="http://www.w3.org/2000/svg"
   xmlns="http://www.w3.org/2000/svg"
   version="1.1"
   id="svg2"
   viewBox="0 0 651.36945 562.99741"
   height="158.89038mm"
   width="183.83093mm">
  <defs
     id="defs4" />
  <metadata
     id="metadata7">
    <rdf:RDF>
      <cc:Work
         rdf:about="">
        <dc:format>image/svg+xml</dc:format>
        <dc:type
           rdf:resource="http://purl.org/dc/dcmitype/StillImage" />
        <dc:title></dc:title>
      </cc:Work>
    </rdf:RDF>
  </metadata>
  <g
     transform="translate(-73.1944,-248.91548)"
     style="display:inline"
     id="layer4">
    <path
       id="path4214"
       d="M 404.06055,249.14648 A 285.00745,280.96683 0 0 0 119.05273,530.11328 285.00745,280.96683 0 0 0 404.06055,811.08008 285.00745,280.96683 0 0 0 689.06836,530.11328 285.00745,280.96683 0 0 0 404.06055,249.14648 Z"
       style="display:inline;fill:#4e80dd;fill-opacity:1" />
  </g>
  <g
     transform="translate(-73.1944,-248.91548)"
     style="display:inline"
     id="layer2">
    <path
       id="path4212"
       d="m 440.19336,272.41406 c -6.49305,-0.084 -10.98083,1.71057 -14.22266,5.59375 -2.4669,2.95493 -3.01038,3.13448 -9.65039,3.17188 -5.00197,0.0282 -7.57351,0.5078 -8.89258,1.65625 -1.02065,0.88863 -3.16282,1.9261 -4.75976,2.30664 -3.60296,0.85857 -11.14524,5.95909 -11.96289,8.08984 -0.46875,1.2215 -1.41764,1.43052 -4.16016,0.91602 -2.62849,-0.4931 -4.03752,-0.22817 -5.41406,1.01758 -1.22149,1.10541 -2.0874,1.31837 -2.51953,0.61914 -0.97965,-1.58511 -4.33506,-1.31734 -11.03906,0.88281 -3.3,1.083 -7.22604,2.21743 -8.72266,2.52148 -4.42918,0.89983 -5.23166,3.77168 -2.27344,8.13086 3.08365,4.54402 2.62709,5.29696 -1.40429,2.31641 l -3.05469,-2.25977 -5.27344,2.8125 c -9.52736,5.08381 -11.79463,8.63702 -8.11133,12.70703 0.91316,1.00918 1.36475,2.13135 1.00391,2.49219 -1.21252,1.21254 -7.61747,0.40841 -10.19336,-1.27929 -2.02816,-1.3289 -4.04094,-1.56077 -9.80274,-1.125 -3.98766,0.30158 -8.0187,0.118 -8.95898,-0.40821 -2.15698,-1.20711 -4.89332,-6.17116 -6.25391,-11.34961 -1.49718,-5.69835 -3.39038,-6.33348 -14.89062,-4.99023 -8.77303,1.02471 -9.88666,1.40155 -12.97461,4.39453 -2.81395,2.72737 -3.70809,3.09678 -5.36328,2.21094 -1.67799,-0.89802 -2.69341,-0.4086 -6.53711,3.15625 -2.50304,2.32145 -4.7004,5.10919 -4.88086,6.19531 -0.208,1.25193 -1.81359,2.53309 -4.38867,3.5 -2.23406,0.83888 -5.2528,2.31289 -6.70703,3.27539 -1.45423,0.9625 -3.98294,1.75 -5.6211,1.75 -3.28395,0 -6.09179,3.01039 -6.09179,6.53125 0,1.1475 -0.61888,2.9315 -1.37305,3.96289 -0.63095,0.86287 -1.01461,1.25966 -1.54297,0.95117 l 1.20898,11.67774 -7.57617,8.08203 -9.5957,4.54492 4.54492,4.54492 18.56836,-10.25976 c 0.18433,-1.13718 1.08573,-1.56032 3.43555,-2.54493 2.1065,-0.88265 6.08008,-1.67421 8.83008,-1.75781 0.55882,-0.017 1.05773,-0.028 1.50585,-0.0293 3.13707,-0.009 3.76669,0.44417 4.74805,2.48242 2.45634,5.10162 2.66284,14.02007 0.48633,20.92578 -4.10323,13.01888 -5.55375,22.01353 -4.30273,26.6582 0.63237,2.3478 2.02945,4.81824 3.10546,5.49024 1.47206,0.9193 1.95704,2.33911 1.95704,5.73242 0,2.48041 0.66697,7.65997 1.48242,11.50976 1.94679,9.19096 1.90036,15.85598 -0.13672,19.79883 -0.9094,1.7602 -4.00091,6.62693 -6.86914,10.81641 -5.6131,8.19878 -6.96622,12.44248 -8.00977,25.12109 -0.28735,3.49118 -0.57921,5.64787 -1.35937,7.87305 l 4.08593,41.07226 c 0,0 15.40489,37.87989 15.15235,39.14258 -0.25254,1.26269 5.55469,1.51563 5.55469,1.51563 l 10.35546,21.9707 c 0,0 -0.37307,1.18217 -0.56054,1.79492 0.94106,0.3086 1.30884,1.67097 2.24414,5.15821 1.06919,3.98639 6.72154,11.54445 12.69922,16.98437 4.70873,4.28511 10.0032,1.96891 8.38086,-3.66602 -1.17276,-4.07339 -9.10585,-19.29067 -11.6836,-22.41015 -2.5515,-3.08773 -3.05396,-5.69437 -1.08593,-5.63477 1.86372,0.0564 8.12868,8.49308 9.07226,12.2168 0.45235,1.78511 2.81485,5.28541 5.25,7.7793 2.43515,2.4939 4.42774,4.86195 4.42774,5.26171 0,1.19791 8.11147,12.96626 11.29101,16.38086 2.68969,2.88853 2.89495,3.59177 2.26758,7.7754 -0.55234,3.68326 -0.29065,5.24318 1.3125,7.82421 4.59464,7.39722 12.54081,13.25265 28.62891,21.09766 4.26171,2.07812 7.34186,3.92606 10.42382,6.3457 l 14.30664,-0.89453 2.01954,-11.61719 24.74804,0 10.10157,15.15235 21.71874,4.04101 2.66602,10.66211 0.0156,-0.006 4,2.84961 c 2.2,1.5673 4.54481,3.91658 5.21093,5.22071 1.70505,3.33809 5.09672,5.87109 7.86328,5.87109 1.29493,0 3.83401,1.28759 5.64063,2.86133 2.89181,2.519 5.98073,4.40179 8.66406,5.38086 l 12.66211,0.63476 c -0.57835,-0.80301 -0.10627,-0.87695 1.8457,-0.87695 1.825,0 4.28166,-1.48201 7.59375,-4.58008 l 4.89649,-4.57812 2.30078,4.32812 c 1.26485,2.38136 2.36779,6.30506 2.45312,8.71875 0.17413,4.92308 -0.73105,6.17898 -12.97656,17.97266 -6.6988,6.45161 -10.6239,12.27175 -10.6875,15.84961 -0.0175,0.98442 -0.6925,2.66284 -1.5,3.73047 -2.24198,2.96416 -1.84055,9.70861 0.81055,13.64257 1.78304,2.64586 4.26912,4.1916 11.46094,7.12305 5.05193,2.0592 12.01458,4.11125 15.47265,4.5586 l 6.28907,0.8125 -0.20899,0.082 11.4043,0.41601 10.44726,-5.03906 22.14258,-12.67969 26.60742,-18.75 20.71289,-18.39258 17.14454,-18.39257 14.28515,-18.03516 c 0,0 10.50171,-15.94561 14.46875,-21.61914 l 1.22266,-13.02149 c -1.79684,2.99977 -3.16907,4.48433 -4.22656,4.64454 -1.1,0.16663 -3.66434,1.01549 -5.69727,1.88476 -4.2217,1.8052 -6.80273,1.24044 -6.80273,-1.48828 0,-2.82618 -3.23552,-5.1875 -7.10938,-5.1875 -2.38914,0 -5.59741,1.38391 -10.42187,4.49414 -3.83337,2.47131 -7.51363,4.496 -8.17969,4.5 -0.66609,0.004 -2.14298,-0.99305 -3.28125,-2.21484 -1.75055,-1.87898 -2.37108,-2.03314 -4.02539,-1 -2.83123,1.76812 -4.04811,1.53405 -7.07227,-1.36328 -2.4842,-2.38002 -3.14812,-2.52953 -8.35547,-1.87891 -5.67638,0.7092 -8.55468,2.39562 -8.55468,5.00976 0,3.14685 -15.08252,7.55157 -18.88672,5.51563 -1.09028,-0.58351 -5.07503,-1.0625 -8.85352,-1.0625 -5.97025,0 -7.51637,0.40984 -11.81445,3.12305 -2.72017,1.71717 -6.80743,4.82787 -9.08203,6.91406 -2.2746,2.0862 -5.55771,4.52938 -7.29493,5.42773 -1.73721,0.89835 -3.9251,2.87232 -4.86328,4.38672 -0.93817,1.51439 -3.6245,4.47411 -5.96875,6.57813 l -4.26171,3.82617 -3.79102,-2.62695 c -4.79669,-3.32411 -5.92373,-3.29367 -13.18359,0.37109 -13.67361,6.90242 -20.07578,1.7943 -17.69727,-14.12109 1.27288,-8.51715 0.4465,-11.76878 -3.35352,-13.20313 -0.89769,-0.33884 -1.51955,-0.58168 -1.9375,-0.92383 l -17.40625,-0.71484 -8.30273,-3.48242 -1.25,-8.48242 3.21484,-6.875 2.38672,-5.66797 c -0.0468,-0.51673 0.16295,-1.23443 0.60156,-2.39649 1.42415,-3.77302 0.0287,-5.6676 -4.8457,-6.58203 -3.81959,-0.71656 -12.82616,1.43813 -17.91015,4.28516 -0.0483,0.027 -0.10366,0.0461 -0.15235,0.0723 l -6.95508,8.5918 -13.39257,1.07227 -13.21485,-2.32227 -8.66015,-5.53516 -0.24415,-0.89843 -0.0625,-0.002 -1.28515,-3.1582 c -0.70682,-1.73612 -1.5869,-6.36102 -1.95703,-10.2793 -0.58505,-6.19347 -0.37829,-7.73077 1.58008,-11.76172 2.03328,-4.18508 2.13421,-5.07621 1.04296,-9.15625 -1.07254,-4.0101 -0.98204,-4.9642 0.79688,-8.45117 1.62552,-3.18628 2.80933,-4.14538 6.25391,-5.0625 2.33707,-0.62225 5.06573,-1.86009 6.06445,-2.75195 2.40705,-2.14949 17.25333,-2.55829 20.15625,-0.55469 2.70109,1.86429 10.56804,1.72312 13.37109,-0.24023 1.71818,-1.20345 2.20958,-2.38515 1.97461,-4.75 -0.2829,-2.84715 -0.0738,-3.11495 2.18555,-2.80469 1.37398,0.18869 8.2926,0.43424 15.375,0.54688 12.12739,0.19289 12.98615,0.34126 14.75,2.51953 1.0301,1.27211 1.89327,3.49961 1.91797,4.95117 0.0689,4.02884 1.93885,7.35226 7.95508,14.13867 6.50105,7.33327 8.96901,8.58497 12.91406,6.54492 5.75961,-2.97842 7.04826,-11.63742 2.76953,-18.61523 -3.15084,-5.13845 -4.14571,-6.77609 -7.91406,-13.01758 -4.38055,-7.25548 -3.96166,-9.26231 5.08789,-24.35547 3.90412,-6.51138 6.44375,-8.32798 8.95508,-6.40234 0.38716,0.29686 0.71149,0.5652 1.08203,0.85351 l 10.07812,-18.64453 12.12305,-18.18164 0,-18.18359 4.01562,-15.25782 c -2.81168,-1.60578 -4.95275,-2.74023 -5.26171,-2.74023 -2.37005,0 -0.36126,-3.20786 3.12109,-4.98437 2.18401,-1.1142 4.64002,-3.26008 5.45898,-4.76954 0.96014,-1.76969 1.5035,-2.16251 1.5293,-1.10546 0.022,0.90154 0.85492,2.64615 1.85156,3.87695 2.73762,3.38081 5.61864,1.87969 8.63672,-4.5 1.39968,-2.95871 3.37187,-5.64266 4.38086,-5.96289 2.54817,-0.80877 7.17188,-8.17231 7.17188,-11.42188 0,-4.93348 -4.76714,-9.0349 -7.41797,-6.38281 -0.41231,0.4125 -1.72416,0.78166 -2.91602,0.81836 -1.19187,0.0368 -3.85747,0.39359 -5.92383,0.79492 -3.48016,0.67588 -3.83506,0.52417 -4.82226,-2.06641 -0.58617,-1.53813 -1.30867,-4.00455 -1.60547,-5.48242 -0.51296,-2.55412 -0.32402,-2.70248 3.81445,-3 4.8626,-0.34957 6.2584,-2.62285 3.49024,-5.68164 -1.42467,-1.57425 -1.24298,-2.11017 2.16211,-6.37695 5.17273,-6.48174 6.18456,-6.16611 6.375,1.99414 0.0867,3.7125 0.0933,7.425 0.0137,8.25 -0.52823,5.47686 3.23171,8.04477 8.50976,5.81055 1.55066,-0.65642 5.97032,-1.66996 9.82032,-2.25196 l 7,-1.05859 0.29882,-3.56641 c 0.26496,-3.15617 -0.27695,-4.1062 -4.70703,-8.25 -3.15662,-2.95265 -5.91707,-4.68359 -7.46875,-4.68359 -4.15722,0 -5.62304,-1.05023 -5.62304,-4.02539 0,-2.89716 -6.50758,-11.52739 -11.17774,-14.82422 -3.38877,-2.39225 -12.94689,-6.13953 -15.67187,-6.14453 -3.57831,-0.007 -9.07187,-2.97855 -11.44727,-6.19141 -1.17067,-1.58343 -4.92194,-4.4404 -8.33594,-6.34961 -3.41402,-1.90923 -7.07756,-4.66875 -8.14257,-6.13086 -2.52124,-3.46109 -4.52462,-2.61613 -6.07618,2.5625 -1.05102,3.50801 -1.62317,4.09947 -3.93945,4.07227 -3.59649,-0.0422 -5.8643,-1.89711 -7.70508,-6.30273 -0.96625,-2.31257 -2.33219,-3.78727 -3.76172,-4.0625 -1.23413,-0.23761 -4.8498,-0.95608 -8.03515,-1.59766 -3.18535,-0.64158 -8.74663,-1.29723 -12.35938,-1.45703 -6.13262,-0.27126 -6.84396,-0.55536 -10.70898,-4.2793 -2.27688,-2.19378 -5.62561,-4.75103 -7.44141,-5.68164 -4.108,-2.10539 -4.82698,-3.85136 -2.78711,-6.76367 1.93068,-2.75643 1.97349,-5.50147 0.13672,-8.82031 -0.97154,-1.75546 -1.07283,-2.86916 -0.3418,-3.75 1.8654,-2.24767 3.79493,-1.41532 3.79493,1.63672 0,4.22284 3.0016,7.44298 6.83593,7.33398 3.87058,-0.11005 4.18602,1.87592 0.66407,4.18359 -3.49485,2.28992 -3.38263,6.75419 0.24218,9.60547 2.32691,1.83035 3.5299,2.05826 7.93555,1.50781 3.48427,-0.43534 6.77767,-0.15347 10.00781,0.85547 8.82175,2.7555 15.97026,4.62305 17.69141,4.62305 0.93643,0 3.03438,-0.98407 4.66211,-2.1875 3.58319,-2.64916 4.04417,-7.12019 0.93359,-9.05273 -2.37819,-1.4775 -4.38322,-7.99242 -3.51953,-11.4336 0.71443,-2.84652 -0.93113,-5.48945 -5.5332,-8.88476 -2.61135,-1.9266 -4.53046,-2.44141 -9.10157,-2.44141 -5.64857,0 -5.82739,-0.0833 -7.2207,-3.41797 -1.65824,-3.96872 -3.67072,-5.25345 -9.72265,-6.20508 -5.23427,-0.82307 -12.12561,-3.64133 -15.61329,-6.38476 -1.39227,-1.09515 -3.60743,-1.99219 -4.92187,-1.99219 -2.59561,0 -4.74853,-3.77103 -3.70508,-6.49023 0.75653,-1.97149 1.66726,-1.90587 6.30274,0.45898 3.40665,1.73794 4.4866,1.83672 9.2207,0.84375 9.26834,-1.94407 11.99342,-0.802 31.3418,13.13086 3.85,2.77241 7.51051,5.04383 8.13476,5.04883 0.62424,0.005 1.86737,1.12817 2.76367,2.49609 0.89629,1.36793 3.32659,3.35218 5.40039,4.41016 2.0738,1.05797 6.14432,4.18664 9.04493,6.95312 10.20233,9.7305 27.53653,16.95652 37.64648,15.69336 3.53035,-0.44107 5.55045,-1.21193 5.95703,-2.27148 0.7588,-1.97739 -4.18261,-9.54869 -11.72461,-17.96289 -5.1244,-5.71697 -5.5092,-6.48441 -5.0332,-10.03321 0.44675,-3.33081 0.0349,-4.41658 -3.08789,-8.15429 -2.70958,-3.24315 -3.60156,-5.22899 -3.60156,-8.00977 0,-3.03793 -0.77135,-4.4525 -4.32032,-7.93555 -2.37549,-2.33138 -5.9878,-4.69856 -8.02734,-5.26171 -2.03954,-0.56313 -5.21743,-2.35071 -7.0625,-3.97071 -1.84508,-1.62 -3.6167,-2.94531 -3.9375,-2.94531 -0.32079,0 -2.71268,-1.35 -5.31445,-3 -3.6044,-2.28584 -5.9016,-3 -9.65039,-3 -5.15509,0 -12.4328,-1.94127 -19.1875,-5.11719 -2.2,-1.0344 -7.40004,-2.30855 -11.55469,-2.83203 -1.72141,-0.21689 -3.32583,-0.33609 -4.82422,-0.35547 z m -59.37891,27.81446 c 0.35415,-0.0222 0.71177,0.33514 1.31055,1.05664 1.0959,1.3205 1.0772,1.74033 -0.11719,2.49609 -2.93393,1.85652 -4.4787,0.40142 -2.47851,-2.33398 0.58165,-0.79548 0.93101,-1.19656 1.28515,-1.21875 z m -0.93359,9.52343 c 0.38004,0.0175 1.58823,0.70984 2.68555,1.53907 1.71146,1.29334 1.78255,1.64229 0.5,2.45312 -2.20067,1.39123 -3.7016,1.18031 -4.39063,-0.61523 -0.63312,-1.64992 0.003,-3.43226 1.20508,-3.37696 z m 2.52539,17.61328 c 0.3364,-0.0206 0.75171,0.0296 1.27148,0.12891 3.64207,0.69622 3.63797,1.56861 -0.0273,5.57031 -3.60584,3.93666 -5.25212,4.71336 -4.0332,1.9043 0.41765,-0.9625 0.95592,-3.1421 1.19726,-4.84375 0.28232,-1.99057 0.58261,-2.69785 1.5918,-2.75977 z m 28.69336,31.86329 5.00586,2.81445 5.00586,2.81445 3.54687,-2.1914 3.54492,-2.19141 4.30469,4.62305 c 4.26315,4.57791 7.12624,5.66087 9.27735,3.50976 0.61207,-0.61207 1.58454,-0.82181 2.16211,-0.46484 1.48782,0.91952 3.11114,7.3239 3.11914,12.29687 0.005,3.52135 0.49962,4.58634 2.99023,6.42774 4.18975,3.09761 6.67093,9.85498 5.05274,13.76172 -0.67114,1.62028 -2.07916,3.72382 -3.12891,4.67382 -2.37588,2.15013 -2.37499,2.80898 0.0254,7.85157 1.06443,2.23614 2.23954,5.75195 2.61133,7.81445 0.721,3.99983 -0.28502,4.71644 -3.77344,2.68359 -2.86012,-1.66672 -7.42872,-9.17769 -8.07227,-13.27148 -0.33195,-2.11158 -1.07486,-4.40808 -1.65039,-5.10156 -0.61818,-0.74485 -4.81099,-1.52828 -10.24609,-1.91407 -7.7004,-0.54659 -9.61657,-1.03228 -11.75195,-2.98437 -3.39562,-3.10415 -10.6055,-5.66211 -15.96094,-5.66211 -4.3095,0 -4.33597,-0.0213 -3.72852,-3.05859 0.4885,-2.44254 0.11025,-3.52538 -1.875,-5.36524 -3.45232,-3.19952 -3.25844,-7.69827 0.58985,-13.69531 1.69214,-2.63696 3.93155,-5.06478 4.97656,-5.39649 1.04503,-0.33168 3.26687,-2.26229 4.9375,-4.28906 z m 12.08594,90.49023 c 0.78207,0 3.07807,1.125 5.10156,2.5 2.0235,1.375 4.1513,2.5 4.73047,2.5 0.57919,0 1.05469,0.62126 1.05469,1.37891 0,2.76141 -2.81011,3.77222 -9.69141,3.48632 -3.74502,-0.1556 -7.87007,0.0815 -9.16602,0.52735 -1.90583,0.65569 -2.19258,0.53362 -1.5,-0.63672 2.03469,-3.43828 8.16764,-9.75586 9.47071,-9.75586 z m 31.82617,18.12891 c 0.63073,-0.006 1.26772,0.0135 1.90039,0.0664 4.2645,0.35645 5.36442,2.80263 1.93555,4.30664 -1.25155,0.54897 -2.72076,2.01055 -3.26368,3.24805 -0.76209,1.73706 -1.81121,2.25 -4.60546,2.25 -3.29253,0 -3.61678,-0.24833 -3.57618,-2.75 0.0245,-1.5125 -0.15161,-3.37765 -0.39257,-4.14453 -0.48082,-1.53026 3.58681,-2.93283 8.00195,-2.97656 z m -23.32422,1.87109 c 2.92808,0 2.96767,0.93606 0.26367,6.23633 -1.67325,3.27985 -2.00446,5.27143 -1.57226,9.45898 0.30114,2.91777 0.36346,5.30469 0.13867,5.30469 -1.1487,0 -2.63265,-15.56677 -1.79102,-18.78516 0.3933,-1.50397 1.34182,-2.21484 2.96094,-2.21484 z m 31.49609,17.14648 c 0.19684,3e-4 0.38776,0.0102 0.57227,0.0312 l 2.81641,0.32227 -2.5,1.68359 c -3.30125,2.22144 -8,3.36633 -8,1.94922 0,-1.74121 4.15883,-3.99083 7.11132,-3.98633 z m 11.66993,130.83204 c -4.65309,0.17018 -13.35929,3.27691 -16.35352,6.08984 -3.27889,3.08035 -3.14666,5.73598 0.32227,6.49609 3.43995,0.75375 4.30995,1.11201 6.52148,2.67969 1.48143,1.05014 2.46333,0.85958 5.98633,-1.16016 3.60441,-2.0664 5.37609,-2.38945 12.22851,-2.22851 10.33253,0.24266 11.10115,0.53202 14.11524,5.30664 1.91,3.02564 2.93888,3.82178 4.21289,3.25976 0.92704,-0.4089 4.38555,-1.60174 7.68555,-2.65039 8.71423,-2.76916 10.96123,-4.06871 11.31835,-6.54492 0.4099,-2.84217 -1.86439,-3.77284 -12.81835,-5.25 -4.675,-0.63044 -10.96085,-2.00755 -13.9668,-3.06054 -3.00594,-1.05299 -7.50594,-1.96811 -10,-2.03321 -2.49405,-0.0651 -5.8832,-0.41948 -7.5332,-0.78711 -0.47081,-0.10489 -1.05403,-0.1415 -1.71875,-0.11718 z m 70.86718,6.2832 c -0.54135,-0.008 -1.06823,0.0248 -1.5625,0.10547 -13.59704,2.2205 -19.08593,4.11261 -19.08593,6.58008 0,0.9374 -1.125,2.76098 -2.5,4.05273 -2.9615,2.7822 -3.0742,3.70839 -0.76172,6.26367 1.38522,1.53065 2.4518,1.77415 5.25,1.19531 1.93138,-0.39951 5.47578,-0.81557 7.87695,-0.92382 2.89231,-0.13045 4.68138,-0.76277 5.30273,-1.87305 0.51583,-0.92175 2.82676,-2.62304 5.13477,-3.78125 4.97271,-2.49538 8.69727,-5.71965 8.69727,-7.5293 0,-1.956 -4.56209,-4.03336 -8.35157,-4.08984 z"
       style="fill:#32c279;fill-opacity:1" />
  </g>
  <g
     transform="translate(-73.1944,-248.91548)"
     id="g4472"
     style="display:inline">
    <path
       style="fill:none;fill-opacity:1;stroke:#000000;stroke-width:5.4000001;stroke-miterlimit:4;stroke-dasharray:none;stroke-opacity:1"
       d="m 440.19336,272.41406 c -6.49305,-0.084 -10.98083,1.71057 -14.22266,5.59375 -2.4669,2.95493 -3.01038,3.13448 -9.65039,3.17188 -5.00197,0.0282 -7.57351,0.5078 -8.89258,1.65625 -1.02065,0.88863 -3.16282,1.9261 -4.75976,2.30664 -3.60296,0.85857 -11.14524,5.95909 -11.96289,8.08984 -0.46875,1.2215 -1.41764,1.43052 -4.16016,0.91602 -2.62849,-0.4931 -4.03752,-0.22817 -5.41406,1.01758 -1.22149,1.10541 -2.0874,1.31837 -2.51953,0.61914 -0.97965,-1.58511 -4.33506,-1.31734 -11.03906,0.88281 -3.3,1.083 -7.22604,2.21743 -8.72266,2.52148 -4.42918,0.89983 -5.23166,3.77168 -2.27344,8.13086 3.08365,4.54402 2.62709,5.29696 -1.40429,2.31641 l -3.05469,-2.25977 -5.27344,2.8125 c -9.52736,5.08381 -11.79463,8.63702 -8.11133,12.70703 0.91316,1.00918 1.36475,2.13135 1.00391,2.49219 -1.21252,1.21254 -7.61747,0.40841 -10.19336,-1.27929 -2.02816,-1.3289 -4.04094,-1.56077 -9.80274,-1.125 -3.98766,0.30158 -8.0187,0.118 -8.95898,-0.40821 -2.15698,-1.20711 -4.89332,-6.17116 -6.25391,-11.34961 -1.49718,-5.69835 -3.39038,-6.33348 -14.89062,-4.99023 -8.77303,1.02471 -9.88666,1.40155 -12.97461,4.39453 -2.81395,2.72737 -3.70809,3.09678 -5.36328,2.21094 -1.67799,-0.89802 -2.69341,-0.4086 -6.53711,3.15625 -2.50304,2.32145 -4.7004,5.10919 -4.88086,6.19531 -0.208,1.25193 -1.81359,2.53309 -4.38867,3.5 -2.23406,0.83888 -5.2528,2.31289 -6.70703,3.27539 -1.45423,0.9625 -3.98294,1.75 -5.6211,1.75 -3.28395,0 -6.09179,3.01039 -6.09179,6.53125 0,1.1475 -0.61888,2.9315 -1.37305,3.96289 -0.63095,0.86287 -1.01461,1.25966 -1.54297,0.95117 l 1.20898,11.67774 -7.57617,8.08203 -9.5957,4.54492 4.54492,4.54492 18.56836,-10.25976 c 0.18433,-1.13718 1.08573,-1.56032 3.43555,-2.54493 2.1065,-0.88265 6.08008,-1.67421 8.83008,-1.75781 0.55882,-0.017 1.05773,-0.028 1.50585,-0.0293 3.13707,-0.009 3.76669,0.44417 4.74805,2.48242 2.45634,5.10162 2.66284,14.02007 0.48633,20.92578 -4.10323,13.01888 -5.55375,22.01353 -4.30273,26.6582 0.63237,2.3478 2.02945,4.81824 3.10546,5.49024 1.47206,0.9193 1.95704,2.33911 1.95704,5.73242 0,2.48041 0.66697,7.65997 1.48242,11.50976 1.94679,9.19096 1.90036,15.85598 -0.13672,19.79883 -0.9094,1.7602 -4.00091,6.62693 -6.86914,10.81641 -5.6131,8.19878 -6.96622,12.44248 -8.00977,25.12109 -0.28735,3.49118 -0.57921,5.64787 -1.35937,7.87305 l 4.08593,41.07226 c 0,0 15.40489,37.87989 15.15235,39.14258 -0.25254,1.26269 5.55469,1.51563 5.55469,1.51563 l 10.35546,21.9707 c 0,0 -0.37307,1.18217 -0.56054,1.79492 0.94106,0.3086 1.30884,1.67097 2.24414,5.15821 1.06919,3.98639 6.72154,11.54445 12.69922,16.98437 4.70873,4.28511 10.0032,1.96891 8.38086,-3.66602 -1.17276,-4.07339 -9.10585,-19.29067 -11.6836,-22.41015 -2.5515,-3.08773 -3.05396,-5.69437 -1.08593,-5.63477 1.86372,0.0564 8.12868,8.49308 9.07226,12.2168 0.45235,1.78511 2.81485,5.28541 5.25,7.7793 2.43515,2.4939 4.42774,4.86195 4.42774,5.26171 0,1.19791 8.11147,12.96626 11.29101,16.38086 2.68969,2.88853 2.89495,3.59177 2.26758,7.7754 -0.55234,3.68326 -0.29065,5.24318 1.3125,7.82421 4.59464,7.39722 12.54081,13.25265 28.62891,21.09766 4.26171,2.07812 7.34186,3.92606 10.42382,6.3457 l 14.30664,-0.89453 2.01954,-11.61719 24.74804,0 10.10157,15.15235 21.71874,4.04101 2.66602,10.66211 0.0156,-0.006 4,2.84961 c 2.2,1.5673 4.54481,3.91658 5.21093,5.22071 1.70505,3.33809 5.09672,5.87109 7.86328,5.87109 1.29493,0 3.83401,1.28759 5.64063,2.86133 2.89181,2.519 5.98073,4.40179 8.66406,5.38086 l 12.66211,0.63476 c -0.57835,-0.80301 -0.10627,-0.87695 1.8457,-0.87695 1.825,0 4.28166,-1.48201 7.59375,-4.58008 l 4.89649,-4.57812 2.30078,4.32812 c 1.26485,2.38136 2.36779,6.30506 2.45312,8.71875 0.17413,4.92308 -0.73105,6.17898 -12.97656,17.97266 -6.6988,6.45161 -10.6239,12.27175 -10.6875,15.84961 -0.0175,0.98442 -0.6925,2.66284 -1.5,3.73047 -2.24198,2.96416 -1.84055,9.70861 0.81055,13.64257 1.78304,2.64586 4.26912,4.1916 11.46094,7.12305 5.05193,2.0592 12.01458,4.11125 15.47265,4.5586 l 6.28907,0.8125 -0.20899,0.082 11.4043,0.41601 10.44726,-5.03906 22.14258,-12.67969 26.60742,-18.75 20.71289,-18.39258 17.14454,-18.39257 14.28515,-18.03516 c 0,0 10.50171,-15.94561 14.46875,-21.61914 l 1.22266,-13.02149 c -1.79684,2.99977 -3.16907,4.48433 -4.22656,4.64454 -1.1,0.16663 -3.66434,1.01549 -5.69727,1.88476 -4.2217,1.8052 -6.80273,1.24044 -6.80273,-1.48828 0,-2.82618 -3.23552,-5.1875 -7.10938,-5.1875 -2.38914,0 -5.59741,1.38391 -10.42187,4.49414 -3.83337,2.47131 -7.51363,4.496 -8.17969,4.5 -0.66609,0.004 -2.14298,-0.99305 -3.28125,-2.21484 -1.75055,-1.87898 -2.37108,-2.03314 -4.02539,-1 -2.83123,1.76812 -4.04811,1.53405 -7.07227,-1.36328 -2.4842,-2.38002 -3.14812,-2.52953 -8.35547,-1.87891 -5.67638,0.7092 -8.55468,2.39562 -8.55468,5.00976 0,3.14685 -15.08252,7.55157 -18.88672,5.51563 -1.09028,-0.58351 -5.07503,-1.0625 -8.85352,-1.0625 -5.97025,0 -7.51637,0.40984 -11.81445,3.12305 -2.72017,1.71717 -6.80743,4.82787 -9.08203,6.91406 -2.2746,2.0862 -5.55771,4.52938 -7.29493,5.42773 -1.73721,0.89835 -3.9251,2.87232 -4.86328,4.38672 -0.93817,1.51439 -3.6245,4.47411 -5.96875,6.57813 l -4.26171,3.82617 -3.79102,-2.62695 c -4.79669,-3.32411 -5.92373,-3.29367 -13.18359,0.37109 -13.67361,6.90242 -20.07578,1.7943 -17.69727,-14.12109 1.27288,-8.51715 0.4465,-11.76878 -3.35352,-13.20313 -0.89769,-0.33884 -1.51955,-0.58168 -1.9375,-0.92383 l -17.40625,-0.71484 -8.30273,-3.48242 -1.25,-8.48242 3.21484,-6.875 2.38672,-5.66797 c -0.0468,-0.51673 0.16295,-1.23443 0.60156,-2.39649 1.42415,-3.77302 0.0287,-5.6676 -4.8457,-6.58203 -3.81959,-0.71656 -12.82616,1.43813 -17.91015,4.28516 -0.0483,0.027 -0.10366,0.0461 -0.15235,0.0723 l -6.95508,8.5918 -13.39257,1.07227 -13.21485,-2.32227 -8.66015,-5.53516 -0.24415,-0.89843 -0.0625,-0.002 -1.28515,-3.1582 c -0.70682,-1.73612 -1.5869,-6.36102 -1.95703,-10.2793 -0.58505,-6.19347 -0.37829,-7.73077 1.58008,-11.76172 2.03328,-4.18508 2.13421,-5.07621 1.04296,-9.15625 -1.07254,-4.0101 -0.98204,-4.9642 0.79688,-8.45117 1.62552,-3.18628 2.80933,-4.14538 6.25391,-5.0625 2.33707,-0.62225 5.06573,-1.86009 6.06445,-2.75195 2.40705,-2.14949 17.25333,-2.55829 20.15625,-0.55469 2.70109,1.86429 10.56804,1.72312 13.37109,-0.24023 1.71818,-1.20345 2.20958,-2.38515 1.97461,-4.75 -0.2829,-2.84715 -0.0738,-3.11495 2.18555,-2.80469 1.37398,0.18869 8.2926,0.43424 15.375,0.54688 12.12739,0.19289 12.98615,0.34126 14.75,2.51953 1.0301,1.27211 1.89327,3.49961 1.91797,4.95117 0.0689,4.02884 1.93885,7.35226 7.95508,14.13867 6.50105,7.33327 8.96901,8.58497 12.91406,6.54492 5.75961,-2.97842 7.04826,-11.63742 2.76953,-18.61523 -3.15084,-5.13845 -4.14571,-6.77609 -7.91406,-13.01758 -4.38055,-7.25548 -3.96166,-9.26231 5.08789,-24.35547 3.90412,-6.51138 6.44375,-8.32798 8.95508,-6.40234 0.38716,0.29686 0.71149,0.5652 1.08203,0.85351 l 10.07812,-18.64453 12.12305,-18.18164 0,-18.18359 4.01562,-15.25782 c -2.81168,-1.60578 -4.95275,-2.74023 -5.26171,-2.74023 -2.37005,0 -0.36126,-3.20786 3.12109,-4.98437 2.18401,-1.1142 4.64002,-3.26008 5.45898,-4.76954 0.96014,-1.76969 1.5035,-2.16251 1.5293,-1.10546 0.022,0.90154 0.85492,2.64615 1.85156,3.87695 2.73762,3.38081 5.61864,1.87969 8.63672,-4.5 1.39968,-2.95871 3.37187,-5.64266 4.38086,-5.96289 2.54817,-0.80877 7.17188,-8.17231 7.17188,-11.42188 0,-4.93348 -4.76714,-9.0349 -7.41797,-6.38281 -0.41231,0.4125 -1.72416,0.78166 -2.91602,0.81836 -1.19187,0.0368 -3.85747,0.39359 -5.92383,0.79492 -3.48016,0.67588 -3.83506,0.52417 -4.82226,-2.06641 -0.58617,-1.53813 -1.30867,-4.00455 -1.60547,-5.48242 -0.51296,-2.55412 -0.32402,-2.70248 3.81445,-3 4.8626,-0.34957 6.2584,-2.62285 3.49024,-5.68164 -1.42467,-1.57425 -1.24298,-2.11017 2.16211,-6.37695 5.17273,-6.48174 6.18456,-6.16611 6.375,1.99414 0.0867,3.7125 0.0933,7.425 0.0137,8.25 -0.52823,5.47686 3.23171,8.04477 8.50976,5.81055 1.55066,-0.65642 5.97032,-1.66996 9.82032,-2.25196 l 7,-1.05859 0.29882,-3.56641 c 0.26496,-3.15617 -0.27695,-4.1062 -4.70703,-8.25 -3.15662,-2.95265 -5.91707,-4.68359 -7.46875,-4.68359 -4.15722,0 -5.62304,-1.05023 -5.62304,-4.02539 0,-2.89716 -6.50758,-11.52739 -11.17774,-14.82422 -3.38877,-2.39225 -12.94689,-6.13953 -15.67187,-6.14453 -3.57831,-0.007 -9.07187,-2.97855 -11.44727,-6.19141 -1.17067,-1.58343 -4.92194,-4.4404 -8.33594,-6.34961 -3.41402,-1.90923 -7.07756,-4.66875 -8.14257,-6.13086 -2.52124,-3.46109 -4.52462,-2.61613 -6.07618,2.5625 -1.05102,3.50801 -1.62317,4.09947 -3.93945,4.07227 -3.59649,-0.0422 -5.8643,-1.89711 -7.70508,-6.30273 -0.96625,-2.31257 -2.33219,-3.78727 -3.76172,-4.0625 -1.23413,-0.23761 -4.8498,-0.95608 -8.03515,-1.59766 -3.18535,-0.64158 -8.74663,-1.29723 -12.35938,-1.45703 -6.13262,-0.27126 -6.84396,-0.55536 -10.70898,-4.2793 -2.27688,-2.19378 -5.62561,-4.75103 -7.44141,-5.68164 -4.108,-2.10539 -4.82698,-3.85136 -2.78711,-6.76367 1.93068,-2.75643 1.97349,-5.50147 0.13672,-8.82031 -0.97154,-1.75546 -1.07283,-2.86916 -0.3418,-3.75 1.8654,-2.24767 3.79493,-1.41532 3.79493,1.63672 0,4.22284 3.0016,7.44298 6.83593,7.33398 3.87058,-0.11005 4.18602,1.87592 0.66407,4.18359 -3.49485,2.28992 -3.38263,6.75419 0.24218,9.60547 2.32691,1.83035 3.5299,2.05826 7.93555,1.50781 3.48427,-0.43534 6.77767,-0.15347 10.00781,0.85547 8.82175,2.7555 15.97026,4.62305 17.69141,4.62305 0.93643,0 3.03438,-0.98407 4.66211,-2.1875 3.58319,-2.64916 4.04417,-7.12019 0.93359,-9.05273 -2.37819,-1.4775 -4.38322,-7.99242 -3.51953,-11.4336 0.71443,-2.84652 -0.93113,-5.48945 -5.5332,-8.88476 -2.61135,-1.9266 -4.53046,-2.44141 -9.10157,-2.44141 -5.64857,0 -5.82739,-0.0833 -7.2207,-3.41797 -1.65824,-3.96872 -3.67072,-5.25345 -9.72265,-6.20508 -5.23427,-0.82307 -12.12561,-3.64133 -15.61329,-6.38476 -1.39227,-1.09515 -3.60743,-1.99219 -4.92187,-1.99219 -2.59561,0 -4.74853,-3.77103 -3.70508,-6.49023 0.75653,-1.97149 1.66726,-1.90587 6.30274,0.45898 3.40665,1.73794 4.4866,1.83672 9.2207,0.84375 9.26834,-1.94407 11.99342,-0.802 31.3418,13.13086 3.85,2.77241 7.51051,5.04383 8.13476,5.04883 0.62424,0.005 1.86737,1.12817 2.76367,2.49609 0.89629,1.36793 3.32659,3.35218 5.40039,4.41016 2.0738,1.05797 6.14432,4.18664 9.04493,6.95312 10.20233,9.7305 27.53653,16.95652 37.64648,15.69336 3.53035,-0.44107 5.55045,-1.21193 5.95703,-2.27148 0.7588,-1.97739 -4.18261,-9.54869 -11.72461,-17.96289 -5.1244,-5.71697 -5.5092,-6.48441 -5.0332,-10.03321 0.44675,-3.33081 0.0349,-4.41658 -3.08789,-8.15429 -2.70958,-3.24315 -3.60156,-5.22899 -3.60156,-8.00977 0,-3.03793 -0.77135,-4.4525 -4.32032,-7.93555 -2.37549,-2.33138 -5.9878,-4.69856 -8.02734,-5.26171 -2.03954,-0.56313 -5.21743,-2.35071 -7.0625,-3.97071 -1.84508,-1.62 -3.6167,-2.94531 -3.9375,-2.94531 -0.32079,0 -2.71268,-1.35 -5.31445,-3 -3.6044,-2.28584 -5.9016,-3 -9.65039,-3 -5.15509,0 -12.4328,-1.94127 -19.1875,-5.11719 -2.2,-1.0344 -7.40004,-2.30855 -11.55469,-2.83203 -1.72141,-0.21689 -3.32583,-0.33609 -4.82422,-0.35547 z m -59.37891,27.81446 c 0.35415,-0.0222 0.71177,0.33514 1.31055,1.05664 1.0959,1.3205 1.0772,1.74033 -0.11719,2.49609 -2.93393,1.85652 -4.4787,0.40142 -2.47851,-2.33398 0.58165,-0.79548 0.93101,-1.19656 1.28515,-1.21875 z m -0.93359,9.52343 c 0.38004,0.0175 1.58823,0.70984 2.68555,1.53907 1.71146,1.29334 1.78255,1.64229 0.5,2.45312 -2.20067,1.39123 -3.7016,1.18031 -4.39063,-0.61523 -0.63312,-1.64992 0.003,-3.43226 1.20508,-3.37696 z m 2.52539,17.61328 c 0.3364,-0.0206 0.75171,0.0296 1.27148,0.12891 3.64207,0.69622 3.63797,1.56861 -0.0273,5.57031 -3.60584,3.93666 -5.25212,4.71336 -4.0332,1.9043 0.41765,-0.9625 0.95592,-3.1421 1.19726,-4.84375 0.28232,-1.99057 0.58261,-2.69785 1.5918,-2.75977 z m 28.69336,31.86329 5.00586,2.81445 5.00586,2.81445 3.54687,-2.1914 3.54492,-2.19141 4.30469,4.62305 c 4.26315,4.57791 7.12624,5.66087 9.27735,3.50976 0.61207,-0.61207 1.58454,-0.82181 2.16211,-0.46484 1.48782,0.91952 3.11114,7.3239 3.11914,12.29687 0.005,3.52135 0.49962,4.58634 2.99023,6.42774 4.18975,3.09761 6.67093,9.85498 5.05274,13.76172 -0.67114,1.62028 -2.07916,3.72382 -3.12891,4.67382 -2.37588,2.15013 -2.37499,2.80898 0.0254,7.85157 1.06443,2.23614 2.23954,5.75195 2.61133,7.81445 0.721,3.99983 -0.28502,4.71644 -3.77344,2.68359 -2.86012,-1.66672 -7.42872,-9.17769 -8.07227,-13.27148 -0.33195,-2.11158 -1.07486,-4.40808 -1.65039,-5.10156 -0.61818,-0.74485 -4.81099,-1.52828 -10.24609,-1.91407 -7.7004,-0.54659 -9.61657,-1.03228 -11.75195,-2.98437 -3.39562,-3.10415 -10.6055,-5.66211 -15.96094,-5.66211 -4.3095,0 -4.33597,-0.0213 -3.72852,-3.05859 0.4885,-2.44254 0.11025,-3.52538 -1.875,-5.36524 -3.45232,-3.19952 -3.25844,-7.69827 0.58985,-13.69531 1.69214,-2.63696 3.93155,-5.06478 4.97656,-5.39649 1.04503,-0.33168 3.26687,-2.26229 4.9375,-4.28906 z m 12.08594,90.49023 c 0.78207,0 3.07807,1.125 5.10156,2.5 2.0235,1.375 4.1513,2.5 4.73047,2.5 0.57919,0 1.05469,0.62126 1.05469,1.37891 0,2.76141 -2.81011,3.77222 -9.69141,3.48632 -3.74502,-0.1556 -7.87007,0.0815 -9.16602,0.52735 -1.90583,0.65569 -2.19258,0.53362 -1.5,-0.63672 2.03469,-3.43828 8.16764,-9.75586 9.47071,-9.75586 z m 31.82617,18.12891 c 0.63073,-0.006 1.26772,0.0135 1.90039,0.0664 4.2645,0.35645 5.36442,2.80263 1.93555,4.30664 -1.25155,0.54897 -2.72076,2.01055 -3.26368,3.24805 -0.76209,1.73706 -1.81121,2.25 -4.60546,2.25 -3.29253,0 -3.61678,-0.24833 -3.57618,-2.75 0.0245,-1.5125 -0.15161,-3.37765 -0.39257,-4.14453 -0.48082,-1.53026 3.58681,-2.93283 8.00195,-2.97656 z m -23.32422,1.87109 c 2.92808,0 2.96767,0.93606 0.26367,6.23633 -1.67325,3.27985 -2.00446,5.27143 -1.57226,9.45898 0.30114,2.91777 0.36346,5.30469 0.13867,5.30469 -1.1487,0 -2.63265,-15.56677 -1.79102,-18.78516 0.3933,-1.50397 1.34182,-2.21484 2.96094,-2.21484 z m 31.49609,17.14648 c 0.19684,3e-4 0.38776,0.0102 0.57227,0.0312 l 2.81641,0.32227 -2.5,1.68359 c -3.30125,2.22144 -8,3.36633 -8,1.94922 0,-1.74121 4.15883,-3.99083 7.11132,-3.98633 z m 11.66993,130.83204 c -4.65309,0.17018 -13.35929,3.27691 -16.35352,6.08984 -3.27889,3.08035 -3.14666,5.73598 0.32227,6.49609 3.43995,0.75375 4.30995,1.11201 6.52148,2.67969 1.48143,1.05014 2.46333,0.85958 5.98633,-1.16016 3.60441,-2.0664 5.37609,-2.38945 12.22851,-2.22851 10.33253,0.24266 11.10115,0.53202 14.11524,5.30664 1.91,3.02564 2.93888,3.82178 4.21289,3.25976 0.92704,-0.4089 4.38555,-1.60174 7.68555,-2.65039 8.71423,-2.76916 10.96123,-4.06871 11.31835,-6.54492 0.4099,-2.84217 -1.86439,-3.77284 -12.81835,-5.25 -4.675,-0.63044 -10.96085,-2.00755 -13.9668,-3.06054 -3.00594,-1.05299 -7.50594,-1.96811 -10,-2.03321 -2.49405,-0.0651 -5.8832,-0.41948 -7.5332,-0.78711 -0.47081,-0.10489 -1.05403,-0.1415 -1.71875,-0.11718 z m 70.86718,6.2832 c -0.54135,-0.008 -1.06823,0.0248 -1.5625,0.10547 -13.59704,2.2205 -19.08593,4.11261 -19.08593,6.58008 0,0.9374 -1.125,2.76098 -2.5,4.05273 -2.9615,2.7822 -3.0742,3.70839 -0.76172,6.26367 1.38522,1.53065 2.4518,1.77415 5.25,1.19531 1.93138,-0.39951 5.47578,-0.81557 7.87695,-0.92382 2.89231,-0.13045 4.68138,-0.76277 5.30273,-1.87305 0.51583,-0.92175 2.82676,-2.62304 5.13477,-3.78125 4.97271,-2.49538 8.69727,-5.71965 8.69727,-7.5293 0,-1.956 -4.56209,-4.03336 -8.35157,-4.08984 z"
       id="path4474" />
  </g>
  <g
     transform="translate(-73.1944,-248.91548)"
     style="display:inline"
     id="layer3">
    <path
       id="path4210"
       d="m 405.98828,248.91602 c -65.35123,-0.12607 -129.01166,21.74173 -180.82031,63.20703 -5.17141,4.13896 -9.89641,7.2324 -10.5,6.87304 -0.60359,-0.35935 -4.0207,-2.98813 -7.5957,-5.84179 -13.61356,-10.86669 -24.89307,-15.30835 -41.01563,-16.14844 -12.40936,-0.64661 -22.59913,1.46443 -34.34766,7.11523 -17.82186,8.57197 -37.596701,26.53381 -45.324214,41.16993 -16.5211,31.29138 -17.623831,72.82284 -2.736328,103.06445 2.473421,5.02437 6.08874,10.77324 8.033203,12.77539 3.6629,3.77156 15.463079,10.20376 25.890629,14.11523 4.39908,1.65013 6.08387,2.8095 6.3164,4.34375 0.17442,1.15095 -0.42291,6.93873 -1.32812,12.86133 -3.68241,24.09342 -3.0259,59.33853 1.60351,86.04102 6.76956,39.04685 23.37205,79.56674 45.45508,110.9375 51.49431,73.15191 132.7672,118.07994 220.95313,122.14453 83.6441,3.85525 159.91701,-25.28484 218.07031,-83.3125 18.92972,-18.88882 31.67266,-35.35768 44.92383,-58.06445 32.64959,-55.94728 44.73336,-123.57198 33.46679,-187.29102 -1.10023,-6.22243 -1.73305,-11.74662 -1.40625,-12.27539 0.3268,-0.52877 3.82303,-2.57362 7.76953,-4.54492 9.85625,-4.92314 13.27157,-7.69704 17.36719,-14.09961 17.25813,-26.97865 18.48565,-72.27938 2.80078,-103.28906 -13.93825,-27.55635 -47.40791,-50.03204 -74.40234,-49.96094 -13.73431,0.0362 -29.14267,5.42356 -39.95313,13.96875 -2.79319,2.20788 -5.52812,4.01367 -6.07812,4.01367 -0.55003,0 -6.30062,-4.00184 -12.7793,-8.89258 -34.96571,-26.39561 -72.80509,-43.80859 -114.16406,-52.54101 -20.03129,-4.22936 -40.19374,-6.33055 -60.19922,-6.36914 z m -0.47461,9.57031 c 12.63028,0.002 25.28038,0.55495 33.96289,1.65625 40.88158,5.18542 79.37246,18.74027 113.91406,40.11719 5.22317,3.23248 8.35062,5.38456 10.19922,7.32617 l 9.92383,6.85937 9.97656,9.59766 -4.21679,7.24023 c -0.48507,1.53825 -1.73359,3.82094 -4.14844,8.02735 -7.18194,12.51011 -10.2678,22.59832 -10.37305,33.9082 -0.0548,5.8877 0.41743,10.11382 1.36719,12.21875 0.93025,2.06165 17.62009,17.64894 46.45313,43.38672 24.75,22.09307 46.8,41.4969 49,43.11914 3.50882,2.58732 4.5659,2.87445 8.61328,2.3457 3.14982,-0.41148 4.94146,-0.20044 5.64648,0.66406 1.33547,1.63761 3.88628,17.01913 5.35156,32.26563 1.4408,14.9918 0.59213,47.19783 -1.62109,61.5 -4.49911,29.0739 -12.88502,56.05079 -24.99023,80.38281 -2.91207,5.85339 -4.44598,8.87411 -5.71485,10.52735 l -2.73828,4.42382 -4.53125,6.18165 c -3.70894,6.21517 -10.18995,15.84859 -16.125,23.68164 -9.33817,12.32447 -36.52192,39.82081 -48.39062,48.94726 -11.53047,8.86635 -26.23032,18.39835 -39.70313,25.74414 l -10.71094,5.83985 -0.16211,0.10156 -8.97461,4.75586 -0.0371,-0.0117 c -3.34659,1.9973 -11.89424,5.32276 -24.41211,9.45508 -15.60058,5.14995 -31.263,8.89847 -48,11.48828 -12.47288,1.93001 -53.98465,2.80809 -67.5,1.42773 -21.74565,-2.22094 -48.49942,-8.49854 -70.17383,-16.46679 -24.25484,-8.9169 -55.73374,-26.86077 -77.32617,-44.07813 -12.47081,-9.94399 -34.24237,-32.22272 -44.375,-45.41016 -24.94935,-32.47112 -41.89255,-68.53027 -50.50391,-107.48828 -6.8703,-31.08145 -7.92255,-66.85965 -2.95117,-100.29101 l 1.08398,-7.28907 6.1836,-4.71093 c 3.4009,-2.59082 26.97584,-23.13057 52.38867,-45.64453 44.6575,-39.56335 46.25519,-41.10198 47.68945,-45.93164 1.75996,-5.92645 1.87238,-11.16746 0.4082,-19.0879 -0.19963,-1.07992 -0.35133,-1.99066 -0.44726,-2.79296 l -5.35156,-16.42578 -2.26172,-3.83985 c -1.29082,-2.19246 -3.81316,-6.17011 -5.60547,-8.83789 -1.7923,-2.66776 -3.25781,-5.46321 -3.25781,-6.21289 0,-2.74567 21.10853,-18.69752 39,-29.47266 32.69984,-19.69345 70.10366,-32.50953 109.59375,-37.55078 8.60572,-1.09888 21.21737,-1.64838 33.84765,-1.64648 z m -91.3125,197.23242 c -3.94733,0 -14.04067,6.24761 -31.52539,19.51172 -4.3424,3.2942 -8.72897,6.60547 -9.74805,7.35937 -1.01906,0.75391 -5.34,2.3647 -9.60351,3.58008 -3.75444,1.07025 -7.36607,2.13484 -9.1211,2.67969 l -6.94921,6.02344 c -0.5567,1.10676 -1.23045,2.2891 -2.07813,3.69726 -10.14533,16.85345 -13.62742,30.35419 -13.57812,52.64844 0.0263,11.93254 0.0485,12.04866 4.07422,20.51172 4.33887,9.12144 9.47154,14.62205 18.18164,19.49023 5.94886,3.32487 18.8156,6.56586 24.8164,6.25 l 4.4961,-0.23828 2.32031,-2.32031 c 0.031,-0.0622 0.0505,-0.13594 0.0859,-0.19336 0.12711,-0.20568 0.3004,-0.32656 0.49804,-0.39063 l 0.17969,-0.17968 2.51953,-4.30469 c 0.20011,-0.73698 0.56359,-1.45972 1.10547,-2.12891 l 0.50781,-0.62695 0.15235,-0.26172 2.32226,-3.02539 0,-0.01 0.008,0 1.3418,-1.74805 c 0.35306,-0.83096 0.98926,-1.72226 1.88672,-2.85156 1.63738,-2.06038 2.97852,-4.23721 2.97852,-4.83594 0,-0.59874 2.41039,-5.14818 5.35742,-10.11133 2.94702,-4.96315 6.54986,-11.13479 8.00586,-13.71289 1.456,-2.5781 6.69589,-8.42067 11.64453,-12.98437 10.98161,-10.12753 15.14238,-16.63009 17.48437,-27.32032 2.29261,-10.46488 1.74315,-25.8093 -1.08593,-30.33398 -12.23174,-19.5627 -17.24343,-24.17383 -26.27735,-24.17383 z m 175.42383,6.21094 c -1.04593,-0.0363 -2.03914,0.21836 -3.49414,0.65429 -5.52348,1.65487 -10.3731,6.128 -12.88086,11.87891 -0.22486,0.51567 -0.46476,0.99884 -0.7207,1.45899 l -2.58203,7.51562 -3.625,9.31445 -1.07422,6.25782 c 0.0864,0.81099 0.17102,1.65121 0.25,2.55664 0.41542,4.76225 2.00683,11.64348 4.04687,17.50195 2.77896,7.98053 4.347,10.77735 9.04883,16.13281 l 1.9668,2.24219 8.32031,4.2832 c 0.0147,-10e-4 0.0328,-0.008 0.0469,-0.008 0.60058,0 4.22707,2.698 8.0586,5.99609 6.43566,5.539 13.70844,14.07679 21.875,25.67774 1.80974,2.57081 4.73474,6.32967 6.5,8.35351 1.76527,2.02384 4.4669,5.32305 6.0039,7.33008 3.2051,4.18525 9.31174,7.64453 13.49415,7.64453 4.14575,0 14.96716,-4.63313 20.32226,-8.69922 7.07931,-5.37525 11.98852,-12.65557 14.60547,-21.66406 1.25636,-4.32481 2.28425,-9.72481 2.28125,-12 -0.005,-5.44953 -2.53736,-20.9128 -3.81641,-23.30273 -0.55406,-1.03526 -1.75509,-4.76423 -2.66797,-8.28711 -2.12015,-8.18195 -4.93629,-13.67197 -11.89257,-23.17969 -6.63399,-9.06724 -10.55354,-11.29576 -22.49414,-12.79297 -4.47888,-0.56162 -9.767,-1.92813 -11.85547,-3.06445 -10.28815,-5.59762 -15.06033,-8.34276 -17.18555,-10.22461 l -8.85937,-5.88672 c -1.60265,-0.66544 -3.60404,-1.57621 -5.63282,-2.58008 -4.40748,-2.18087 -6.29585,-3.04895 -8.03906,-3.10937 z m -97.68555,177.87304 c -6.96734,0.96735 -16.39393,2.8099 -21.86718,6.21875 -2.69311,1.67732 -6.39429,7.82786 -6.09375,10.98633 0,0 0.4531,4.16633 0.9707,6.91016 0.65821,3.48926 2.76734,10.47784 3.28516,11.16601 0.50696,0.48903 1.02448,0.99578 1.5625,1.53711 8.81486,8.86931 16.2446,13.14925 28.07812,16.17579 4.17468,1.06767 7.94362,2.49932 8.37695,3.18164 1.48757,2.34227 0.8495,10.76378 -1.10742,14.5996 -2.19613,4.30476 -8.93396,10.75843 -12.74414,12.20704 -5.81067,2.20923 -16.72407,2.99164 -26.58789,1.90625 -12.18164,-1.34045 -17.71974,-3.58451 -20.68164,-8.37696 -1.53151,-2.47803 -2.95406,-3.5957 -4.57422,-3.5957 -3.82295,0 -4.17754,3.54303 -0.83984,8.37109 4.32314,6.25351 11.38636,9.2558 25.17187,10.69922 19.02034,1.99155 31.84922,-1.07712 40.24024,-9.62695 2.39766,-2.44305 4.84071,-4.44336 5.42968,-4.44336 0.58897,0 3.3422,2.41513 6.11914,5.36523 7.18666,7.63482 13.18336,9.75041 29.39454,10.375 13.76289,0.53025 21.37287,-0.49602 28.48242,-3.83789 7.92371,-3.72459 12.6316,-13.88747 6.8164,-14.71484 -1.6031,-0.22807 -2.82336,0.65 -4.5,3.24023 -1.28795,1.98977 -4.27937,4.53772 -6.79882,5.78907 -4.04665,2.00988 -6.01115,2.23826 -19.5,2.25976 -17.6686,0.0282 -20.77964,-0.79446 -27.83789,-7.36719 -5.75584,-5.35964 -7.66211,-9.25241 -7.66211,-15.64257 0,-6.70996 1.09289,-8.08791 7.04101,-8.87696 2.8128,-0.37314 8.08946,-1.75987 11.72656,-3.08007 l 5.66211,-2.05274 9.03321,-4.43555 c 0.17982,-0.13964 0.33658,-0.27108 0.52148,-0.41211 2.74224,-2.09126 6.62345,-6.03311 8.625,-8.75976 1.05809,-1.44141 1.87954,-2.46172 2.60156,-3.1875 0.8507,-2.0855 1.55816,-4.02054 1.83789,-5.33594 l 0.58203,-6.26367 c 0.61661,-6.63431 0.53303,-7.00523 -2.12304,-9.4668 -1.5206,-1.40924 -5.96986,-3.55528 -9.88672,-4.76953 -1.9579,-0.60696 -3.47268,-1.11043 -4.73242,-1.58008 l -7.70117,-2.42382 c 0,0 -7.74637,-2.59639 -20.18555,-2.7129 l -0.002,0 c -0.275,0.0707 -9.37869,0.0745 -20.22852,0.01 l -5.9043,-0.0352 z"
       style="display:inline;fill:#020504" />
  </g>
</svg>
