<svg id="Vrstva_1" data-name="Vrstva 1" xmlns="http://www.w3.org/2000/svg" viewBox="0 0 1324.25 412.98"><defs><style>.cls-1{fill:#fec905;}.cls-2{fill:#e21c84;}.cls-3{fill:#0f9c5a;}</style></defs><rect class="cls-1" x="211.63" y="198.82" width="24.09" height="23.6"/><rect class="cls-2" x="249.53" y="240.01" width="24.09" height="23.6"/><path class="cls-3" d="M471.5,267c-31.14,0-57.42-22.14-57.42-57.06s27.36-56.34,58.86-56.34c14.22,0,29.34,4.14,38.34,11v20c-9-7.56-20.16-13.32-36.18-13.32-22.5,0-38.16,14.76-38.16,39.6,0,24.3,15.3,39.6,36.9,39.6,8.28,0,15.3-1.62,20.88-4.5V224.9H475.64V208.7h40.14v47.7C509.66,258.92,492.74,267,471.5,267Z"/><path class="cls-3" d="M601.1,225.62H549.26c-.54,11.88,5.58,25.38,26.46,25.38,8.82,0,19.26-4,25.2-9.18v15.12c-7.38,5.76-18.72,9.18-31.68,9.18-23.94,0-40.68-17.46-40.68-41.58,0-24.84,19.08-40.5,39.24-40.5,19.8,0,34.56,12.42,34.56,30.78A49.41,49.41,0,0,1,601.1,225.62Zm-32.76-28.26c-8.82,0-16.38,5-18.18,17.1h33.3C585.26,205.1,579.14,197.36,568.34,197.36Z"/><path class="cls-3" d="M654.37,266.84c-25.19,0-43.73-18.18-43.73-41.76,0-23.4,18.54-41.76,43.73-41.76,25,0,43.56,18.36,43.56,41.76C697.93,248.66,679.39,266.84,654.37,266.84Zm0-68.22c-14,0-23.21,10.8-23.21,26.46,0,15.84,9.36,26.46,23.21,26.46s23-10.62,23-26.46C677.41,209.42,668.23,198.62,654.37,198.62Z"/><path class="cls-3" d="M751,224.72H732V264H710V156h41c25.92,0,37.44,15.84,37.44,34.38C788.47,209.06,777,224.72,751,224.72Zm-3.6-53.1H732v37.44h15.48c14.22,0,19.26-8.46,19.26-18.72C766.69,180.26,761.65,171.62,747.43,171.62Z"/><path class="cls-3" d="M858,264l-.72-12.42c-6.48,9.54-18,14.58-29,14.58-21,0-36.53-17.64-36.53-41s15.48-41,36.53-41c11,0,22.5,5,29,14.58L858,186.2h18.9V264Zm-23.22-64.44c-12.24,0-22.14,9.54-22.14,25.56s9.9,25.56,22.14,25.56,22.14-9.54,22.14-25.56S847,199.52,834.73,199.52Z"/><path class="cls-3" d="M949.57,264v-43c0-15.12-5.22-20.16-14.76-20.16-9.9,0-20.7,9-20.7,19.8V264H893.24V186.2h19.07l.9,14.4C918.43,190.7,930.13,184,942,184c20.7,0,28.44,14.4,28.44,33.66V264Z"/><path class="cls-3" d="M1048.39,264l-.72-12.42c-6.48,9.54-18,14.58-29,14.58-21.06,0-36.54-17.64-36.54-41s15.48-41,36.54-41c10.44,0,21.06,4.32,27.72,12.78V156h20.88V264Zm-23.22-64.44c-12.24,0-22.14,9.54-22.14,25.56s9.9,25.56,22.14,25.56,22.14-9.54,22.14-25.56S1037.41,199.52,1025.17,199.52Z"/><path class="cls-3" d="M1145.41,264l-.72-12.42c-6.48,9.54-18,14.58-29,14.58-21.06,0-36.54-17.64-36.54-41s15.48-41,36.54-41c11,0,22.5,5,29,14.58l.72-12.42h18.9V264Zm-23.22-64.44c-12.24,0-22.14,9.54-22.14,25.56s9.9,25.56,22.14,25.56,22.14-9.54,22.14-25.56S1134.43,199.52,1122.19,199.52Z"/><path class="cls-3" d="M1206.43,266.48a61.17,61.17,0,0,1-31.14-8.82l3.42-14.4c6.3,3.78,15.84,8.64,27.36,8.64,8.28,0,14-2.52,14-9,0-5.58-5.94-7.56-16.56-10.08-19.08-4.14-25.92-14.22-25.92-25.2,0-12.24,9.54-23.76,30.6-23.76,12.78,0,23.94,5.58,26.46,7l-3.42,13.68a45.3,45.3,0,0,0-22.5-6.48c-8.46,0-12.6,2.88-12.6,7.56,0,5.22,5.4,7.56,13.68,9.54,20.52,4.32,28.8,13.86,28.8,24.3C1238.65,256.22,1226.41,266.48,1206.43,266.48Z"/><rect class="cls-3" x="211.63" y="134.2" width="24.09" height="50.02"/><rect class="cls-3" x="211.63" y="236.95" width="24.09" height="50.02"/><rect class="cls-3" x="249.53" y="175.39" width="24.09" height="50.02"/><path class="cls-3" d="M207.51,69.19c-76.34,0-138.45,62.11-138.45,138.45S131.17,346.1,207.51,346.1,346,284,346,207.64,283.85,69.19,207.51,69.19ZM321,207.64A112.84,112.84,0,0,1,311.51,253V162.32A112.92,112.92,0,0,1,321,207.64Zm-47.34,92.15V278.22H249.53V313a112.9,112.9,0,0,1-42,8.07c-3.53,0-7-.17-10.48-.49V175.33H172.94V315.7A113.44,113.44,0,1,1,287.42,127.19V287.44h.66A114.42,114.42,0,0,1,273.62,299.79Z"/></svg>