<svg id="Vrstva_1" data-name="Vrstva 1" xmlns="http://www.w3.org/2000/svg" viewBox="0 0 313.97 313.97"><defs><style>.cls-1{fill:#0f9c5a;}.cls-2{fill:#fff;}.cls-3{fill:#fec905;}.cls-4{fill:#e21c84;}</style></defs><rect class="cls-1" width="313.97" height="313.97"/><rect class="cls-2" x="159.41" y="84.7" width="24.09" height="50.02"/><rect class="cls-2" x="159.41" y="187.45" width="24.09" height="50.02"/><rect class="cls-3" x="159.41" y="149.32" width="24.09" height="23.6"/><rect class="cls-2" x="197.31" y="125.89" width="24.09" height="50.02"/><rect class="cls-4" x="197.31" y="190.51" width="24.09" height="23.6"/><path class="cls-2" d="M155.29,19.69C79,19.69,16.84,81.8,16.84,158.14S79,296.6,155.29,296.6s138.46-62.11,138.46-138.46S231.64,19.69,155.29,19.69ZM268.75,158.14a112.72,112.72,0,0,1-9.46,45.32V112.82A112.75,112.75,0,0,1,268.75,158.14ZM221.4,250.29V228.72H197.31v34.81a112.9,112.9,0,0,1-42,8.07c-3.53,0-7-.18-10.48-.49V125.83H120.72V266.2A113.44,113.44,0,1,1,235.2,77.68V237.94h.66A114.42,114.42,0,0,1,221.4,250.29Z"/></svg>