<?xml version="1.0" encoding="utf-8"?>
<!-- Generator: Adobe Illustrator 24.2.1, SVG Export Plug-In . SVG Version: 6.00 Build 0)  -->
<svg version="1.1" xmlns="http://www.w3.org/2000/svg" xmlns:xlink="http://www.w3.org/1999/xlink" x="0px" y="0px"
	 viewBox="0 0 1393.8 292.8" style="enable-background:new 0 0 1393.8 292.8;" xml:space="preserve">
<style type="text/css">
	.st0{fill:#130754;}
	.st1{fill:#139C5A;}
	.st2{fill:#04542F;}
	.st3{fill:#166799;}
	.st4{fill:#FFCA00;}
	.st5{fill:#E70488;}
	.st6{fill:#FFFFFF;stroke:#9C9C9C;stroke-width:0.75;stroke-miterlimit:10;}
	.st7{fill:#FFFFFF;}
</style>
<g id="Layer_7">
</g>
<g id="Layer_1">
</g>
<g id="Layer_6">
</g>
<g id="Layer_2">
</g>
<g id="Layer_5">
	<rect x="243.2" y="137.8" class="st4" width="24.1" height="23.6"/>
	<rect x="281.1" y="179" class="st5" width="24.1" height="23.6"/>
	<g>
		<path class="st1" d="M503,206c-31.1,0-57.4-22.1-57.4-57.1c0-34.9,27.4-56.3,58.9-56.3c14.2,0,29.3,4.1,38.3,11v20
			c-9-7.6-20.2-13.3-36.2-13.3c-22.5,0-38.2,14.8-38.2,39.6c0,24.3,15.3,39.6,36.9,39.6c8.3,0,15.3-1.6,20.9-4.5v-21.1h-19.1v-16.2
			h40.1v47.7C541.2,197.9,524.3,206,503,206z"/>
		<path class="st1" d="M632.6,164.6h-51.8c-0.5,11.9,5.6,25.4,26.5,25.4c8.8,0,19.3-4,25.2-9.2V196c-7.4,5.8-18.7,9.2-31.7,9.2
			c-23.9,0-40.7-17.5-40.7-41.6c0-24.8,19.1-40.5,39.2-40.5c19.8,0,34.6,12.4,34.6,30.8C633.9,157.3,633.4,161.9,632.6,164.6z
			 M599.9,136.4c-8.8,0-16.4,5-18.2,17.1H615C616.8,144.1,610.7,136.4,599.9,136.4z"/>
		<path class="st1" d="M685.9,205.9c-25.2,0-43.7-18.2-43.7-41.8c0-23.4,18.5-41.8,43.7-41.8c25,0,43.6,18.4,43.6,41.8
			C729.5,187.7,710.9,205.9,685.9,205.9z M685.9,137.6c-14,0-23.2,10.8-23.2,26.5c0,15.8,9.4,26.5,23.2,26.5s23-10.6,23-26.5
			C709,148.4,699.8,137.6,685.9,137.6z"/>
		<path class="st1" d="M782.6,163.7h-19.1V203h-22V95h41c25.9,0,37.4,15.8,37.4,34.4C820,148.1,808.5,163.7,782.6,163.7z M779,110.6
			h-15.5v37.4H779c14.2,0,19.3-8.5,19.3-18.7C798.2,119.3,793.2,110.6,779,110.6z"/>
		<path class="st1" d="M889.5,203l-0.7-12.4c-6.5,9.5-18,14.6-29,14.6c-21.1,0-36.5-17.6-36.5-41s15.5-41,36.5-41
			c11,0,22.5,5,29,14.6l0.7-12.4h18.9V203H889.5z M866.3,138.5c-12.2,0-22.1,9.5-22.1,25.6s9.9,25.6,22.1,25.6
			c12.2,0,22.1-9.5,22.1-25.6S878.5,138.5,866.3,138.5z"/>
		<path class="st1" d="M981.1,203v-43c0-15.1-5.2-20.2-14.8-20.2c-9.9,0-20.7,9-20.7,19.8V203h-20.9v-77.8h19.1l0.9,14.4
			c5.2-9.9,16.9-16.6,28.8-16.6c20.7,0,28.4,14.4,28.4,33.7V203H981.1z"/>
		<path class="st1" d="M1079.9,203l-0.7-12.4c-6.5,9.5-18,14.6-29,14.6c-21.1,0-36.5-17.6-36.5-41s15.5-41,36.5-41
			c10.4,0,21.1,4.3,27.7,12.8V95h20.9v108H1079.9z M1056.7,138.5c-12.2,0-22.1,9.5-22.1,25.6s9.9,25.6,22.1,25.6
			c12.2,0,22.1-9.5,22.1-25.6S1069,138.5,1056.7,138.5z"/>
		<path class="st1" d="M1176.9,203l-0.7-12.4c-6.5,9.5-18,14.6-29,14.6c-21.1,0-36.5-17.6-36.5-41s15.5-41,36.5-41
			c11,0,22.5,5,29,14.6l0.7-12.4h18.9V203H1176.9z M1153.7,138.5c-12.2,0-22.1,9.5-22.1,25.6s9.9,25.6,22.1,25.6
			c12.2,0,22.1-9.5,22.1-25.6S1166,138.5,1153.7,138.5z"/>
		<path class="st1" d="M1238,205.5c-16,0-27.9-6.8-31.1-8.8l3.4-14.4c6.3,3.8,15.8,8.6,27.4,8.6c8.3,0,14-2.5,14-9
			c0-5.6-5.9-7.6-16.6-10.1c-19.1-4.1-25.9-14.2-25.9-25.2c0-12.2,9.5-23.8,30.6-23.8c12.8,0,23.9,5.6,26.5,7l-3.4,13.7
			c-6.7-4-14.8-6.5-22.5-6.5c-8.5,0-12.6,2.9-12.6,7.6c0,5.2,5.4,7.6,13.7,9.5c20.5,4.3,28.8,13.9,28.8,24.3
			C1270.2,195.2,1257.9,205.5,1238,205.5z"/>
	</g>
	<rect x="243.2" y="73.2" class="st1" width="24.1" height="50"/>
	<rect x="243.2" y="176" class="st1" width="24.1" height="50"/>
	<rect x="281.1" y="114.4" class="st1" width="24.1" height="50"/>
	<path class="st1" d="M239.1,8.2c-76.3,0-138.5,62.1-138.5,138.5c0,76.3,62.1,138.5,138.5,138.5S377.5,223,377.5,146.7
		C377.5,70.3,315.4,8.2,239.1,8.2z M352.5,146.7c0,16.1-3.4,31.4-9.5,45.3v-90.6C349.1,115.2,352.5,130.6,352.5,146.7z M305.2,238.8
		v-21.6h-24.1V252c-13,5.2-27.2,8.1-42,8.1c-3.5,0-7-0.2-10.5-0.5V114.3h-24.1v140.4c-45.7-14.7-78.9-57.6-78.9-108.1
		c0-62.6,50.9-113.5,113.5-113.5c31.1,0,59.4,12.6,79.9,33v160.3h0.7C315.2,231,310.3,235.1,305.2,238.8z"/>
</g>
</svg>
