<svg id="Vrstva_1" data-name="Vrstva 1" xmlns="http://www.w3.org/2000/svg" viewBox="0 0 1324.25 412.98"><defs><style>.cls-1{fill:#0f9c5a;}.cls-2{fill:#fff;}.cls-3{fill:#fec905;}.cls-4{fill:#e21c84;}</style></defs><rect class="cls-1" width="1324.25" height="412.98"/><path class="cls-2" d="M484.46,267c-31.13,0-57.41-22.14-57.41-57.06s27.36-56.34,58.85-56.34c14.22,0,29.34,4.14,38.34,11v20c-9-7.56-20.16-13.32-36.18-13.32-22.5,0-38.15,14.76-38.15,39.6,0,24.3,15.29,39.6,36.89,39.6,8.28,0,15.3-1.62,20.88-4.5V224.9H488.6V208.7h40.14v47.7C522.62,258.92,505.7,267,484.46,267Z"/><path class="cls-2" d="M614.06,225.62H562.22C561.68,237.5,567.8,251,588.68,251c8.82,0,19.26-4,25.2-9.18v15.12c-7.38,5.76-18.72,9.18-31.68,9.18-23.94,0-40.68-17.46-40.68-41.58,0-24.84,19.08-40.5,39.24-40.5,19.8,0,34.56,12.42,34.56,30.78A49.41,49.41,0,0,1,614.06,225.62ZM581.3,197.36c-8.82,0-16.38,5-18.18,17.1h33.3C598.22,205.1,592.1,197.36,581.3,197.36Z"/><path class="cls-2" d="M667.34,266.84c-25.2,0-43.74-18.18-43.74-41.76,0-23.4,18.54-41.76,43.74-41.76,25,0,43.56,18.36,43.56,41.76C710.9,248.66,692.36,266.84,667.34,266.84Zm0-68.22c-14,0-23.22,10.8-23.22,26.46,0,15.84,9.36,26.46,23.22,26.46s23-10.62,23-26.46C690.38,209.42,681.2,198.62,667.34,198.62Z"/><path class="cls-2" d="M764,224.72H744.92V264H723V156h41c25.92,0,37.44,15.84,37.44,34.38C801.44,209.06,789.92,224.72,764,224.72Zm-3.6-53.1H744.92v37.44H760.4c14.22,0,19.26-8.46,19.26-18.72C779.66,180.26,774.62,171.62,760.4,171.62Z"/><path class="cls-2" d="M870.92,264l-.72-12.42c-6.48,9.54-18,14.58-29,14.58-21.06,0-36.54-17.64-36.54-41s15.48-41,36.54-41c11,0,22.5,5,29,14.58l.72-12.42h18.9V264ZM847.7,199.52c-12.24,0-22.14,9.54-22.14,25.56s9.9,25.56,22.14,25.56,22.14-9.54,22.14-25.56S859.94,199.52,847.7,199.52Z"/><path class="cls-2" d="M962.54,264v-43c0-15.12-5.22-20.16-14.76-20.16-9.9,0-20.7,9-20.7,19.8V264H906.2V186.2h19.08l.9,14.4C931.4,190.7,943.1,184,955,184c20.7,0,28.44,14.4,28.44,33.66V264Z"/><path class="cls-2" d="M1061.36,264l-.72-12.42c-6.48,9.54-18,14.58-29,14.58-21.06,0-36.54-17.64-36.54-41s15.48-41,36.54-41c10.44,0,21.06,4.32,27.72,12.78V156h20.88V264Zm-23.22-64.44c-12.24,0-22.14,9.54-22.14,25.56s9.9,25.56,22.14,25.56,22.14-9.54,22.14-25.56S1050.38,199.52,1038.14,199.52Z"/><path class="cls-2" d="M1158.38,264l-.72-12.42c-6.48,9.54-18,14.58-29,14.58-21.06,0-36.54-17.64-36.54-41s15.48-41,36.54-41c11,0,22.5,5,29,14.58l.72-12.42h18.89V264Zm-23.22-64.44c-12.24,0-22.14,9.54-22.14,25.56s9.9,25.56,22.14,25.56,22.14-9.54,22.14-25.56S1147.4,199.52,1135.16,199.52Z"/><path class="cls-2" d="M1219.4,266.48a61.17,61.17,0,0,1-31.14-8.82l3.42-14.4c6.3,3.78,15.84,8.64,27.36,8.64,8.28,0,14-2.52,14-9,0-5.58-5.94-7.56-16.56-10.08-19.08-4.14-25.92-14.22-25.92-25.2,0-12.24,9.54-23.76,30.6-23.76,12.78,0,23.93,5.58,26.46,7l-3.42,13.68a45.3,45.3,0,0,0-22.5-6.48c-8.46,0-12.6,2.88-12.6,7.56,0,5.22,5.4,7.56,13.68,9.54,20.52,4.32,28.79,13.86,28.79,24.3C1251.61,256.22,1239.38,266.48,1219.4,266.48Z"/><rect class="cls-2" x="224.59" y="134.2" width="24.09" height="50.02"/><rect class="cls-2" x="224.59" y="236.95" width="24.09" height="50.02"/><rect class="cls-3" x="224.59" y="198.82" width="24.09" height="23.6"/><rect class="cls-2" x="262.49" y="175.39" width="24.09" height="50.02"/><rect class="cls-4" x="262.49" y="240.01" width="24.09" height="23.6"/><path class="cls-2" d="M220.48,69.19C144.13,69.19,82,131.3,82,207.64S144.13,346.1,220.48,346.1,358.93,284,358.93,207.64,296.82,69.19,220.48,69.19ZM333.93,207.64A112.68,112.68,0,0,1,324.47,253V162.32A112.75,112.75,0,0,1,333.93,207.64Zm-47.35,92.15V278.22H262.49V313a112.89,112.89,0,0,1-42,8.07c-3.54,0-7-.17-10.49-.49V175.33H185.9V315.7A113.44,113.44,0,1,1,300.38,127.19V287.44h.67A115.21,115.21,0,0,1,286.58,299.79Z"/></svg>