<svg id="Vrstva_1" data-name="Vrstva 1" xmlns="http://www.w3.org/2000/svg" viewBox="0 0 313.97 313.97"><defs><style>.cls-1{fill:#fec905;}.cls-2{fill:#e21c84;}.cls-3{fill:#0f9c5a;}</style></defs><rect class="cls-1" x="160.46" y="149.32" width="24.09" height="23.6"/><rect class="cls-2" x="198.36" y="190.51" width="24.09" height="23.6"/><rect class="cls-3" x="160.46" y="84.7" width="24.09" height="50.02"/><rect class="cls-3" x="160.46" y="187.45" width="24.09" height="50.02"/><rect class="cls-3" x="198.36" y="125.89" width="24.09" height="50.02"/><path class="cls-3" d="M156.34,19.69C80,19.69,17.89,81.8,17.89,158.14S80,296.6,156.34,296.6s138.45-62.11,138.45-138.46S232.68,19.69,156.34,19.69ZM269.79,158.14a112.88,112.88,0,0,1-9.45,45.32V112.82A112.92,112.92,0,0,1,269.79,158.14Zm-47.34,92.15V228.72H198.36v34.81a112.94,112.94,0,0,1-42,8.07c-3.54,0-7-.18-10.48-.49V125.83H121.77V266.2A113.44,113.44,0,1,1,236.25,77.68V237.94h.66A115.12,115.12,0,0,1,222.45,250.29Z"/></svg>